SplineFontDB: 3.0
FontName: GoudyBookletter1911Light
FullName: GoudyBookletter1911 Light
FamilyName: GoudyBookletter1911Light
Weight: Light
Copyright: This font has been released into the public domain by its author, Barry Schwartz. This applies worldwide.\n\nIn some countries this may not be legally possible; if so:\n\nBarry Schwartz grants anyone the right to use this work for any purpose, without any conditions, unless such conditions are required by law.
Version: 2010.07.03
ItalicAngle: 0
UnderlinePosition: -90
UnderlineWidth: 45
Ascent: 737
Descent: 263
LayerCount: 2
Layer: 0 0 "Back"  1
Layer: 1 0 "Fore"  0
NeedsXUIDChange: 1
XUID: [1021 658 797806517 331928]
UniqueID: 4088483
FSType: 0
OS2Version: 3
OS2_WeightWidthSlopeOnly: 0
OS2_UseTypoMetrics: 1
CreationTime: 1199071125
ModificationTime: 1329137375
PfmFamily: 17
TTFWeight: 400
TTFWidth: 5
LineGap: 90
VLineGap: 0
Panose: 2 0 5 3 0 0 0 0 0 0
OS2TypoAscent: 0
OS2TypoAOffset: 1
OS2TypoDescent: 0
OS2TypoDOffset: 1
OS2TypoLinegap: 90
OS2WinAscent: 0
OS2WinAOffset: 1
OS2WinDescent: -1
OS2WinDOffset: 1
HheadAscent: 0
HheadAOffset: 1
HheadDescent: 1
HheadDOffset: 1
OS2SubXSize: 650
OS2SubYSize: 700
OS2SubXOff: 0
OS2SubYOff: 140
OS2SupXSize: 650
OS2SupYSize: 700
OS2SupXOff: 0
OS2SupYOff: 480
OS2StrikeYSize: 49
OS2StrikeYPos: 258
OS2Vendor: 'PfEd'
OS2CodePages: 00000092.0d940000
OS2UnicodeRanges: 8000002f.0000004a.00000000.00000000
Lookup: 1 0 0 "'ss01' Style Set 1 in Latin lookup 0"  {"'ss01' Style Set 1 in Latin lookup 0 subtable"  } ['aalt' ('DFLT' <'dflt' > 'latn' <'dflt' > ) 'ss01' ('DFLT' <'dflt' > 'latn' <'dflt' > ) ]
Lookup: 4 0 1 "'liga' Standard Ligatures in Latin lookup 1"  {"'liga' Standard Ligatures in Latin lookup 1 per glyph data 0"  "'liga' Standard Ligatures in Latin lookup 1 per glyph data 1"  "'liga' Standard Ligatures in Latin lookup 1 per glyph data 2"  "'liga' Standard Ligatures in Latin lookup 1 per glyph data 3"  } ['liga' ('DFLT' <'dflt' > 'latn' <'dflt' > ) ]

StartChar: .notdef
Encoding: 65536 -1 0
Width: 500
Flags: HW
HStem: 0 50<100 400> 441 50<100 400>
VStem: 50 50<50 441> 400 50<50 441>
LayerCount: 2
Fore
SplineSet
70 20 m 1
 70 471 l 1
 430 471 l 1
 430 20 l 1
 70 20 l 1
80 30 m 1
 420 30 l 1
 420 461 l 1
 80 461 l 1
 80 30 l 1
EndSplineSet
EndChar

StartChar: exclam
Encoding: 33 33 2
Width: 325
GlyphClass: 2
Flags: HW
HStem: -16 101<123.334 207.265>
VStem: 108 96<367.096 637.634> 114 103<-6.4071 75.7681> 127 32<195.064 282.718>
LayerCount: 2
Fore
SplineSet
184 647.841 m 1
 184 625 l 0
 184 456.057 159.802 307.924 146.894 246.16 c 1
 140.953 460.728 129.067 598.591 128.006 611.681 c 1
 128.055 613.661 128.232 614.55 128.278 614.802 c 1
 128.766 615.188 130.185 616.156 131.371 616.897 c 1
 157.924 632.516 176.028 643.234 184 647.841 c 1
166 65 m 0
 182.33 65 197 51.4987 197 34 c 0
 197 18.0453 184.021 4 166 4 c 0
 148.943 4 134 17.0755 134 35 c 0
 134 52.5524 148.388 65 166 65 c 0
EndSplineSet
EndChar

StartChar: quotedbl
Encoding: 34 34 3
Width: 389
GlyphClass: 2
Flags: HW
HStem: 457 258
VStem: 38 314
LayerCount: 2
Fore
SplineSet
150 695 m 0
 160.812 695 167 687.772 167 677 c 0
 167 667.92 162.179 659.927 155.502 647.686 c 1
 125.468 594.188 67.3448 491.212 59.9377 479.004 c 1
 59.2464 478.255 58.4261 477.559 58.341 477.491 c 1
 58.0999 478.04 58 478.593 58 479 c 0
 58 480 l 0
 58.0002 480.127 l 1
 58.8382 484.291 68.4291 512.497 115.838 652.275 c 1
 125.586 678.269 135.567 695 150 695 c 0
316 695 m 0
 325.391 695 332 688.047 332 677 c 0
 332 667.191 327.626 658.886 321.562 647.798 c 1
 289.388 592.179 233.065 491.147 225.451 479.582 c 1
 224.267 478.23 223.593 477.693 223.341 477.491 c 1
 223.1 478.04 223 478.593 223 479 c 0
 223 480 l 0
 223 480.1 l 1
 223.969 484.732 233.671 512.68 281.941 652.578 c 1
 290.596 678.543 300.376 695 316 695 c 0
EndSplineSet
EndChar

StartChar: numbersign
Encoding: 35 35 4
Width: 552
GlyphClass: 2
Flags: HW
HStem: 157 45<54.0142 152.998 206.138 318.839 372.236 497.98> 353 45<54.0204 179.998 234.002 345.999 400.001 497.891>
VStem: 153 45<-3.6207 156.771> 189 45<398 553.952> 319 44<-10.2178 157> 327 45<202 347.564> 355 45<398 558.829>
LayerCount: 2
Fore
SplineSet
366 348 m 0
 366 361.001 351.577 373 339 373 c 0
 234 373 l 0
 217.088 373 207.206 357.284 205.597 350.851 c 0
 205.317 349.731 l 1
 205.168 348.587 l 0
 199.045 301.645 186 217.691 186 207 c 0
 186 185.492 209.115 182 214 182 c 0
 316 182 l 0
 318.76 182 343.86 183.635 346.829 207.387 c 1
 360.862 308.626 366 334.17 366 348 c 0
179.4 198.436 m 1
 186.725 248.662 200 337.37 200 348 c 0
 200 368.63 178.363 373 173 373 c 0
 74.0388 373 l 1
 74.0099 373.729 74 374.257 74 375 c 0
 74 376.134 74.042 377.185 74.079 378 c 1
 180 378 l 0
 195.904 378 209 392.223 209 406 c 0
 209 407 208.873 404.197 208.803 403.2 c 1
 228.082 539.532 233.313 582.035 235.322 594.818 c 1
 237.22 594.958 238.635 595 241 595 c 1
 236.024 557.088 214 413.94 214 403 c 0
 214 381.492 237.115 378 242 378 c 0
 346 378 l 0
 350.224 378 371.888 381.795 374.803 402.2 c 0
 393.768 536.314 399.565 580.696 401.955 595 c 1
 405.946 595 l 1
 400.535 551.794 380 417.471 380 403 c 0
 380 393.566 389.795 378 405 378 c 0
 477.753 378 l 1
 477.915 376.284 477.957 374.975 478 373 c 1
 396 373 l 0
 374.118 373 372.022 353.312 372.022 353.312 c 1
 371.417 351.497 l 1
 371.168 349.587 l 0
 365.035 302.565 352 217.766 352 208 c 0
 352 193.165 366.714 182 379 182 c 0
 477.961 182 l 1
 477.99 181.271 478 180.743 478 180 c 0
 478 178.875 477.949 177.417 477.931 177 c 1
 376 177 l 0
 355.061 177 344.952 159.37 343.23 149.035 c 1
 325.091 19.9013 320.959 -13.8348 319.361 -22.7546 c 1
 317.9 -22.9308 315.987 -22.9909 315.746 -22.9947 c 1
 320.506 15.4131 339 140.892 339 151 c 0
 339 173.196 316.011 177 311 177 c 0
 242 177 l 0
 229.27 177 220.174 176.918 213.068 176.542 c 0
 198.726 175.784 180.547 168.253 178.19 151.751 c 0
 160.828 26.7489 155.873 -11.2426 154.084 -22.7443 c 1
 151.583 -22.9413 150.085 -22.9642 148.826 -22.9897 c 1
 153.699 14.0303 173 139.921 173 150 c 0
 173 168.413 154.708 177 144 177 c 0
 74.0001 177 l 1
 74.0012 179.093 74.0147 180.707 74.0324 182 c 1
 157 182 l 0
 157 182 173.498 179.55 179.4 198.436 c 1
EndSplineSet
EndChar

StartChar: dollar
Encoding: 36 36 5
Width: 482
GlyphClass: 2
Flags: HW
HStem: 1 41<126.287 185.998> 599 39<139.978 185.991 228 265.03>
VStem: 16 91<74.0898 178.771> 41 58<446.429 562.384> 186 41<-96.9934 1.49219 48.8126 294.997 409.001 594.467 636.303 684.991> 332 70<101.123 239.657>
LayerCount: 2
Fore
SplineSet
228.002 618.545 m 1
 219.468 616.482 208 607.026 208 594 c 0
 208 420 l 0
 208 415.693 207 410.144 207 404 c 0
 207 366.902 241.477 364.301 267.203 353.582 c 1
 347.141 319.19 364.84 273.964 373.843 244.253 c 0
 379.265 226.181 382 207.009 382 189 c 0
 382 89.0566 309.31 35.6609 231.712 22.7279 c 0
 230.924 22.5966 l 1
 230.149 22.4028 l 0
 210.849 17.5777 207 -2.84422 207 -9 c 0
 207 -9 l 0
 207 3.8862 195.576 21 178.303 21 c 1
 89.0361 23.705 36 93.5407 36 133 c 0
 36 155.214 49.8508 168 65 168 c 0
 76.8939 168 87 161.095 87 142 c 0
 87 133.624 84 123.333 84 107 c 0
 84 36.6229 155.604 22 181 22 c 0
 188.084 22 206 28.6323 206 46 c 0
 206 306 l 0
 206 322.595 193.419 336.194 180.484 338.709 c 1
 98.2538 356.882 61 427.143 61 484 c 0
 61 555.119 112.377 610.903 178.554 616.06 c 0
 179.426 616.128 l 1
 180.288 616.272 l 0
 186.561 617.318 206 624.915 206 644 c 0
 206 665 l 1
 207 665 l 0
 207.463 665 208 664.98 208 664.98 c 1
 208 644 l 0
 208 638.749 212.041 622.889 228.002 618.545 c 1
250.882 615.084 m 1
 321.456 600.273 356 554.835 356 531 c 0
 356 514.865 347.551 507 335 507 c 0
 290.406 507 332.794 582.493 250.882 615.084 c 1
183 619 m 0
 156.703 619 79 585.727 79 504 c 0
 79 416.746 168.396 389 181 389 c 0
 196.205 389 206 404.566 206 414 c 0
 206 572 l 0
 206 582.643 213.365 619 183 619 c 0
234 315 m 0
 212.196 315 207 292.422 207 286 c 0
 207 165.064 206 105.35 206 75 c 0
 206 55.6211 202.92 24 230 24 c 0
 232 24 l 0
 258.58 24 352 68.6792 352 171 c 0
 352 272.867 256.286 315 234 315 c 0
EndSplineSet
EndChar

StartChar: percent
Encoding: 37 37 6
Width: 820
GlyphClass: 2
Flags: HW
HStem: -93 39<596.026 686.047> 170 38<148.026 238.047> 252 38<583.686 671.302> 515 38<135.782 223.302>
VStem: 41 60<264.374 459.62> 271 60<265.244 456.628> 489 60<2.06218 116 118 196.557> 719 60<2.68817 193.628>
LayerCount: 2
Fore
SplineSet
213 -103 m 0
 206.494 -103 208.043 -104.527 208.043 -104.527 c 1
 210.147 -100.472 209.006 -102.71 209.889 -100.944 c 1
 554.667 487.368 598.984 563.014 604.442 571.089 c 1
 605.364 572.196 l 0
 606.375 573.409 608.421 575 613 575 c 0
 623.489 575 623 577 623 577 c 0
 623 577 624.267 579.956 622.359 577.094 c 0
 622.067 576.656 l 1
 621.799 576.204 l 0
 265.883 -23.7731 226.301 -90.3148 220.804 -97.9122 c 1
 220.216 -98.4994 l 1
 219.636 -99.1963 l 0
 216.955 -102.413 215.646 -103 213 -103 c 0
179 535 m 0
 92.0483 535 81 423.448 81 379 c 0
 81 336.251 90.3845 249.081 136.116 209.701 c 1
 157.831 191.818 180.001 188 193 188 c 0
 271.104 188 283.181 271.848 285.766 289.941 c 1
 288.816 308.242 291 328.677 291 348 c 0
 291 425.001 262.006 535 179 535 c 0
193 533 m 0
 237.77 533 311 502.766 311 375 c 0
 311 259.414 254.6 190 179 190 c 0
 133.967 190 61 219.435 61 346 c 0
 61 477.157 126.884 533 193 533 c 0
627 272 m 0
 540.358 272 528 162.01 528 118 c 0
 528 113.279 l 1
 529.05 111.179 l 1
 529.916 68.3167 540.14 -14.4292 583.859 -52.0775 c 1
 605.491 -71.1652 629.187 -74 641 -74 c 0
 719.043 -74 731.185 9.73851 733.755 26.872 c 1
 736.831 45.3301 739 65.7033 739 86 c 0
 739 162.071 709.973 272 627 272 c 0
641 270 m 0
 685.77 270 759 239.766 759 112 c 0
 759 -2.61464 702.506 -73 627 -73 c 0
 581.967 -73 509 -43.5651 509 83 c 0
 509 214.157 574.884 270 641 270 c 0
EndSplineSet
EndChar

StartChar: ampersand
Encoding: 38 38 7
Width: 828
GlyphClass: 2
Flags: HW
HStem: -23 77<253.323 436.75> 154 35<392.292 467.569> 360 32<183.728 301.127> 384 62<131.409 174.589> 440 33<181.692 300.583> 645 56<151.444 248.706> 677 38<643.513 724.85>
VStem: 30 79<178.938 345.842> 58 44<460.076 594.439> 100 76<400.864 431.197> 303 35<395.011 436.183> 338 36<206.326 300.965> 468 53<191.42 247> 573 70<616.704 676.103> 586 33<156.893 293.79> 768 41<504.154 630.001>
LayerCount: 2
Fore
SplineSet
485.558 194.746 m 1
 486.887 198.094 488 202.446 488 206 c 0
 488 239.598 447.329 241.57 447.329 241.57 c 1
 444.996 245.446 444 249.051 444 252 c 0
 444 259.359 450.254 268 463 268 c 0
 481.754 268 501 251.934 501 230 c 0
 501 218.074 495.574 205.263 485.558 194.746 c 1
787.962 566.629 m 1
 788.636 560.585 789 554.308 789 548 c 0
 789 452.655 702.177 373.828 599.821 372 c 1
 597.89 372 565 373.136 565 344 c 0
 565 333.881 568.408 331.247 570.069 328.292 c 1
 548.489 352.244 517.686 367 482 367 c 0
 444.645 367 410.603 350.786 387.024 326.971 c 1
 401.263 343.456 420.576 358.428 443.944 370.111 c 0
 521.898 409.087 613.463 399.393 690.109 432.717 c 1
 735.298 453.159 786.154 496.649 787.962 566.629 c 1
102.802 455.17 m 1
 91.5117 471.127 78 493.84 78 529 c 0
 78 607.386 151.181 681 233 681 c 0
 272.042 681 320 664.697 320 640 c 0
 320 626.238 306.863 615 295 615 c 0
 274.601 615 271.31 665 208 665 c 0
 155.141 665 82 613.293 82 529 c 0
 82 500.971 91.3545 474.241 102.802 455.17 c 1
646.364 693.694 m 1
 642.948 692.662 623 688.414 623 668 c 0
 623 634.044 639 650.407 639 633 c 0
 639 621.388 630.489 612 618 612 c 0
 604.953 612 593 624.048 593 641 c 0
 593 665.654 614.61 687.847 646.364 693.694 c 1
522.432 71.9032 m 1
 471.818 26.5841 400.191 -3 321 -3 c 0
 164.042 -3 50 113.995 50 245 c 0
 50 343.559 106.657 388.838 115.365 404.077 c 0
 115.64 404.559 l 1
 115.889 405.056 l 0
 117.972 409.223 120 413.218 120 421 c 0
 120 422 l 2
 120 432.268 115.456 437.374 112.982 441.081 c 1
 118.786 434.683 127.241 426 141 426 c 0
 166.869 426 192.82 453 251 453 c 0
 297.167 453 318 432.883 318 417 c 0
 318 401.857 294.68 380 246 380 c 0
 245 380 l 0
 191.881 380 174.62 404 149 404 c 0
 128.383 404 122.437 388.559 118.779 382.179 c 1
 118.568 381.805 l 0
 98.8198 346.696 89 307.321 89 268 c 0
 89 173.454 155.787 43.504 358.064 34.0219 c 0
 358.532 34 l 1
 377 34 l 0
 438.652 34 486.803 48.7383 522.432 71.9032 c 1
261 372 m 0
 277.688 372 323 374.199 323 415 c 0
 323 438.179 302.058 460 260 460 c 0
 217.063 460 156 454.979 156 417 c 0
 156 404.68 163.918 397.798 164.858 396.858 c 0
 165.863 395.853 l 1
 167 395 l 0
 196.718 372.712 228.235 372 261 372 c 0
EndSplineSet
EndChar

StartChar: quotesingle
Encoding: 39 39 8
Width: 224
GlyphClass: 2
Flags: HW
HStem: 457 258
VStem: 38 149
LayerCount: 2
Fore
SplineSet
150 695 m 0
 160.812 695 167 687.772 167 677 c 0
 167 669.155 161.91 659.435 155.502 647.686 c 1
 125.468 594.188 67.3448 491.212 59.9377 479.004 c 1
 59.3114 478.325 58.7665 477.846 58.4527 477.576 c 1
 58.15 478.344 58 479.083 58 480 c 0
 58 480.667 l 1
 59.3114 486.176 69.6823 516.192 115.838 652.275 c 1
 125.586 678.269 135.567 695 150 695 c 0
EndSplineSet
EndChar

StartChar: parenleft
Encoding: 40 40 9
Width: 363
GlyphClass: 2
Flags: HW
HStem: 698 20G<291 303>
VStem: 45 76<116.498 405.186>
LayerCount: 2
Fore
SplineSet
295.994 -173.794 m 0
 295.732 -173.914 295.396 -174 295 -174 c 0
 292.058 -174 289.092 -173.166 283.682 -168.529 c 1
 153.256 -66.3292 65 90.9009 65 262 c 0
 65 416.587 142.373 577.931 279.255 688.191 c 1
 288.735 695.325 293.829 698 297 698 c 0
 297.338 698 297.653 697.967 297.847 697.945 c 1
 297.181 696.014 294.711 693.181 291.506 690.617 c 0
 291.048 690.251 l 1
 291.048 690.251 912.559 1250.06 290.613 689.859 c 0
 186.029 595.628 101 448.353 101 263 c 0
 101 95.3214 170.83 -56.0509 286.202 -161.485 c 1
 293.19 -168.335 295.839 -172.265 295.994 -173.794 c 0
EndSplineSet
EndChar

StartChar: parenright
Encoding: 41 41 10
Width: 363
GlyphClass: 2
Flags: HW
HStem: 702 20G<63.5 73.5>
VStem: 242 76<121.91 410.739>
LayerCount: 2
Fore
SplineSet
68 701 m 0
 68 701.5 68.0688 701.739 68.0847 701.8 c 1
 68.243 701.888 68.5413 702 69 702 c 0
 69.9527 702 72.8108 701.142 80.8304 695.127 c 1
 210.21 593.752 298 436.028 298 265 c 0
 298 110.412 220.625 -50.9296 83.7456 -161.191 c 1
 74.2641 -168.326 69.1711 -171 66 -171 c 0
 65.6904 -171 65.3646 -170.926 65.1764 -170.865 c 1
 66.2355 -168.959 70.1113 -165.091 73.761 -161.522 c 1
 178.601 -66.7687 262 78.9995 262 264 c 0
 262 432.499 193.59 582.991 77.5383 689.721 c 0
 77.5383 689.721 1305.4 -439.206 77.1788 690.052 c 1
 76.8037 690.364 l 0
 69.9154 696.105 68 699.09 68 701 c 0
EndSplineSet
EndChar

StartChar: asterisk
Encoding: 42 42 11
Width: 335
GlyphClass: 2
Flags: HW
HStem: 448 21G<263.5 290.5> 497 109<106.146 135.998 198.001 226.26> 701 20G<159 183>
VStem: 129 78<389.462 485.336 613.573 717.469> 136 62<426.987 496.937 607.071 673.685>
LayerCount: 2
Fore
SplineSet
301 617 m 0
 301 595.541 208 603.031 208 552 c 0
 208 495.261 299 525.664 299 487 c 0
 299 475.634 289.398 468 281 468 c 0
 259.168 468 244.512 521 205 521 c 0
 185.199 521 178 500.151 178 492 c 0
 178 463.161 187 430.912 187 423 c 0
 187 409.618 171.59 404.14 164.976 404 c 1
 160.663 404.089 149 406.218 149 426 c 0
 149 443.282 156 466.771 156 486 c 0
 156 489.013 155.74 517 130 517 c 0
 90.8617 517 71.3226 473 46 473 c 0
 39.848 473 34.7968 481.876 34.0025 488.283 c 1
 34.729 511.708 125 508.562 125 560 c 0
 125 617.283 37 590.487 37 624 c 0
 37 630.624 46.3535 639 55 639 c 0
 69.7843 639 85.7018 586 133 586 c 0
 146.001 586 158 600.423 158 613 c 0
 158 632.126 149 655.829 149 676 c 0
 149 700.064 157.279 701 169 701 c 0
 182.974 701 188 695.64 188 675 c 0
 188 650.546 176 626.294 176 609 c 0
 176 596.214 185.214 587 198 587 c 0
 235.833 587 259.184 636 282 636 c 0
 290.389 636 301 626.803 301 617 c 0
EndSplineSet
EndChar

StartChar: plus
Encoding: 43 43 12
Width: 701
GlyphClass: 2
Flags: HW
HStem: 231 57<53 322 380 648.954>
VStem: 322 58<-38 231 288 556.954>
LayerCount: 2
Fore
SplineSet
76 251 m 2
 74.8705 251 73.3257 251.068 73.0482 251.084 c 1
 72.9867 252.538 73 252.186 73 253 c 0
 73 266 l 0
 73 266.706 73.0571 267.788 73.0634 267.897 c 1
 74.4045 267.986 75.4271 268 77 268 c 0
 342 268 l 1
 342 537 l 1
 356 537 l 0
 357.766 537 359.59 536.731 359.636 536.722 c 1
 359.902 535.167 360 533.491 360 531 c 0
 360 268 l 1
 629 268 l 1
 629 255 l 0
 629 253.338 628.823 251.762 628.759 251.297 c 1
 626.898 251.057 624.924 251 622 251 c 0
 360 251 l 1
 360 -16 l 0
 360 -17.0067 359.953 -17.9521 359.953 -17.9521 c 1
 358.353 -18.0163 358.842 -18 358 -18 c 0
 344 -18 l 0
 343.228 -18 342.049 -17.9404 342.049 -17.9404 c 1
 342.009 -16.9611 342 -16.1274 342 -15 c 0
 342 251 l 1
 76 251 l 2
EndSplineSet
EndChar

StartChar: comma
Encoding: 44 44 13
Width: 227
GlyphClass: 2
Flags: HW
HStem: -147 247<77 108>
VStem: 137 51<-86.0814 -11.7099>
LayerCount: 2
Fore
SplineSet
100 80 m 0
 131.563 80 168 42.2223 168 -15 c 0
 168 -62.2896 141.66 -94.1076 117.211 -111.959 c 1
 121.234 -108.72 121.902 -108.128 124.485 -105.77 c 0
 151.008 -81.553 157 -58.2613 157 -44 c 0
 157 20.9262 69.2615 21.7764 63.426 30.4129 c 1
 60.6271 34.3314 59 38.9093 59 45 c 0
 59 63.3329 77.5651 80 100 80 c 0
EndSplineSet
EndChar

StartChar: hyphen
Encoding: 45 45 14
Width: 227
GlyphClass: 2
Flags: HW
HStem: 154 181
VStem: 12 203
LayerCount: 2
Fore
SplineSet
194.171 311.543 m 1
 194.846 306.259 195 302.181 195 296 c 0
 195 293.032 194.945 291.969 184.506 283.617 c 0
 183.725 282.993 184.745 283.796 185.546 284.395 c 1
 79.286 210.157 44.2292 182.601 32.236 175.472 c 1
 32.0054 177.726 32 178.289 32 180 c 0
 32 194 l 0
 32 198.379 32.0938 197.853 32.0938 197.853 c 1
 33.5648 199.278 36.5584 201.551 42.3857 205.557 c 1
 141.236 274.492 179.083 301.958 194.171 311.543 c 1
EndSplineSet
EndChar

StartChar: period
Encoding: 46 46 15
Width: 227
GlyphClass: 2
Flags: HW
HStem: -17 118<68.3914 158.932>
VStem: 54 119<-2.99638 86.7526>
LayerCount: 2
Fore
SplineSet
113 81 m 0
 134.438 81 153 63.309 153 42 c 0
 153 21.5168 136.4 3 114 3 c 0
 93.3568 3 74 19.7792 74 43 c 0
 74 66.0191 91.7245 81 113 81 c 0
EndSplineSet
EndChar

StartChar: slash
Encoding: 47 47 16
Width: 435
GlyphClass: 2
Flags: HW
LayerCount: 2
Fore
SplineSet
35.1407 -166.995 m 1
 33.5464 -166.974 31.5736 -166.872 30.2081 -166.766 c 1
 47.7351 -130.658 121.462 13.5704 399.803 559.923 c 1
 401.617 559.791 404.599 559.314 406.561 558.838 c 1
 396.285 537.803 360.513 470.936 240.225 243.169 c 1
 80.3895 -74.2022 44.4001 -148.548 35.1407 -166.995 c 1
EndSplineSet
EndChar

StartChar: zero
Encoding: 48 48 17
Width: 475
GlyphClass: 2
Flags: HW
HStem: -18 60<162.468 311.127> 385 55<159.25 309.448>
VStem: 12 66<130.19 299.792> 394 62<126.916 295.427>
LayerCount: 2
Fore
SplineSet
235 420 m 0
 344.407 420 436 327.473 436 211 c 0
 436 95.552 344.399 2 234 2 c 0
 125.335 2 32 92.7584 32 211 c 0
 32 327.311 124.438 420 235 420 c 0
234 405 m 0
 135.402 405 58 317.567 58 215 c 0
 58 110.436 136.459 22 237 22 c 0
 328.215 22 414 98.2842 414 211 c 0
 414 321.164 329.981 405 234 405 c 0
EndSplineSet
EndChar

StartChar: one
Encoding: 49 49 18
Width: 356
GlyphClass: 2
Flags: HW
HStem: -6 40<41.0061 134.862 211.525 317.949> 381 43<26.298 135 211 299.99>
VStem: 135 76<39.854 381.18>
LayerCount: 2
Fore
SplineSet
104.634 401.701 m 1
 121.198 401.285 140.366 401 164 401 c 0
 214.152 401 249.206 402.482 267.371 403.297 c 1
 256.613 402.648 242.885 402.196 223.525 400.946 c 1
 214.837 400.222 203.942 397.578 196.93 387.592 c 0
 190.855 378.94 191 370.58 191 365 c 0
 191 61 l 0
 191 53.313 191.478 42.2149 199.916 32.447 c 0
 207.239 23.969 218.031 20.6868 227.504 20.0553 c 1
 266.248 16.8267 290.029 16.2726 298.272 14.2401 c 1
 282.285 15.5839 234.632 20 177 20 c 0
 155.672 20 134.166 19.2886 117.832 18.4925 c 1
 127.825 19.7036 139.378 20.8366 148.106 32.1339 c 0
 155.524 41.736 155 51.3971 155 58 c 0
 155 365 l 0
 155 389.311 134.537 399.508 122.209 400.878 c 0
 121.611 400.944 l 1
 121.011 400.974 l 0
 114.056 401.327 110.627 401.486 104.634 401.701 c 1
78.9407 402.498 m 1
 68.5806 402.784 58.5242 403.189 54.2372 403.54 c 1
 61.7304 403.205 68.6841 402.88 78.9407 402.498 c 1
EndSplineSet
EndChar

StartChar: two
Encoding: 50 50 19
Width: 450
GlyphClass: 2
Flags: HW
HStem: -13 21G<65 80.5> 0 58<193.709 336.688> 362 62<84.85 216.758>
VStem: 25 36<265.197 333.097> 276 62<205.76 305.971> 389 30<119.161 154.717>
LayerCount: 2
Fore
SplineSet
386.348 99.8763 m 1
 380.983 81.866 373.341 56.2148 362.865 20.8207 c 1
 360.8 20.636 356.432 20.2732 351.905 19.9714 c 1
 259.833 16.0114 84.6541 7.09842 75.6337 6.99603 c 0
 73.1888 7.06082 72.3871 7.1882 72.3871 7.1882 c 1
 83.6357 14.6395 105.12 26.1233 140.267 53.2039 c 1
 152.8 63.0117 165.256 73.3775 177.328 84.034 c 1
 177.078 83.6829 170 78.8899 170 66 c 0
 170 51.5696 183.951 38 201 38 c 0
 204.945 38 249.437 39.9711 275.51 42.0569 c 1
 315.34 44.9019 360.511 56.2073 395.038 113.761 c 0
 386.348 99.8763 l 1
243.534 150.44 m 1
 251.941 160.064 259.951 169.708 267.877 179.836 c 1
 277.073 192.098 296 216.116 296 250 c 0
 296 329.828 209.403 382 144 382 c 0
 93.3958 382 58.8724 352.222 46.3353 317.906 c 1
 54.4605 367.923 99.2579 404 163 404 c 0
 246.837 404 318 349.229 318 278 c 0
 318 231.087 289.004 195.454 243.534 150.44 c 1
EndSplineSet
EndChar

StartChar: three
Encoding: 51 51 20
Width: 360
GlyphClass: 2
Flags: HW
HStem: -182 43<135.253 239.111> 370 73<64.1018 173.42>
VStem: 26 35<298.009 363.51> 205 9<180 273> 285 54<-79.2107 66.58>
LayerCount: 2
Fore
SplineSet
194 181.939 m 1
 194 145.459 249.976 144.787 271.888 131.744 c 1
 293.133 119.487 319 95.9992 319 35 c 0
 319 10.8362 313.595 -44.9834 292.666 -85.184 c 1
 301.534 -61.2381 305 -34.9617 305 -10 c 0
 305 59.1149 272.149 124 163 124 c 0
 153.587 124 144.124 123.556 140.437 123.314 c 1
 146.369 128.519 149.187 131.104 154.923 136.642 c 0
 168.587 149.892 182.309 165.018 194 181.939 c 1
181.848 -158.518 m 1
 168.694 -160.844 155.329 -162 143 -162 c 0
 70.4779 -162 48 -116.504 48 -109 c 0
 48 -98.7196 58.2014 -89 72 -89 c 0
 98.4882 -89 94.3578 -150.305 181.848 -158.518 c 1
216.65 225.475 m 1
 221.783 240.307 225 256.578 225 273 c 0
 225 312.415 202.774 390 113 390 c 0
 81.5853 390 59.5713 380.827 48.8511 363.823 c 1
 57.4092 398.991 80.396 423 119 423 c 0
 156.747 423 252 389.741 252 326 c 0
 252 296.937 232.999 254.953 216.65 225.475 c 1
EndSplineSet
EndChar

StartChar: four
Encoding: 52 52 21
Width: 447
GlyphClass: 2
Flags: HW
HStem: 0 74<330.031 406.859> 0 66<109.001 270> 409 20G<313.5 320>
VStem: 270 60<-186 -1.19998e-07 74.157 299.997>
LayerCount: 2
Fore
SplineSet
45.7396 20 m 1
 48.2102 23.7818 52.2006 28.5537 56.4217 34.5839 c 0
 256.453 322.32 299.301 383.713 310.966 399.938 c 1
 310 85 l 0
 310 72.7684 320.035 54 340 54 c 0
 356 54 l 0
 384.172 54 393.229 55.8101 396.978 55.9822 c 1
 395.414 44.7186 392.822 28.5677 391.014 20 c 1
 339 20 l 0
 332.578 20 310 14.8035 310 -7 c 0
 310 -166 l 1
 290 -166 l 1
 290 -10 l 0
 290 -2.24951 283.681 20 262 20 c 0
 45.7396 20 l 1
260 46 m 2
 285.393 46 290 71.2303 290 79 c 0
 290 292 l 0
 290 295.014 288.7 320 265 320 c 0
 252.92 320 244.755 310.312 243.721 309.005 c 1
 243.502 308.786 l 1
 242.428 307.197 l 0
 92.8656 85.8472 89 91.123 89 71 c 0
 89 61.3786 98.3213 46 115 46 c 0
 260 46 l 2
EndSplineSet
EndChar

StartChar: five
Encoding: 53 53 22
Width: 381
GlyphClass: 2
Flags: HW
HStem: 191 66<98.135 170.388> 299 88<215.446 309.304> 347 88<113.76 191.234>
VStem: 235 61<-40.5996 120.982>
LayerCount: 2
Fore
SplineSet
313.333 379.347 m 1
 307.453 365.826 296.677 341.057 287.624 320.199 c 1
 253.353 328.755 145.465 365.098 131.481 366.846 c 0
 130.245 367 l 1
 128 367 l 0
 118.148 367 106.505 359.77 101.443 350.422 c 1
 110.358 381.676 117.675 407.245 119.672 414.414 c 1
 148.946 407.389 261.372 367 285 367 c 0
 299.138 367 306.835 372.985 313.333 379.347 c 1
77 264.241 m 1
 77 252.133 86.5059 237 104 237 c 0
 117 237 l 2
 196.864 237 276 172.474 276 61 c 0
 276 6.97732 255.639 -42.4509 232.406 -76.8365 c 0
 221.821 -92.5694 206.298 -109.787 192.019 -123.146 c 1
 201.84 -111.958 207.644 -104.336 215.821 -91.8204 c 1
 236.447 -59.2523 255 -14.8576 255 38 c 0
 255 143.911 179.839 211 102 211 c 0
 84.3981 211 70.0984 207.447 60.5671 204.577 c 1
 64.4465 219.318 70.0553 239.526 77 264.241 c 1
EndSplineSet
EndChar

StartChar: six
Encoding: 54 54 23
Width: 483
GlyphClass: 2
Flags: HW
HStem: -28 40<187.686 316.189> 365 36<149.312 263.195>
VStem: 33 64<112.246 315.477> 368 77<76.1476 246.159>
LayerCount: 2
Fore
SplineSet
388 142 m 0
 388 233.178 333.596 385 200 385 c 0
 99.0423 385 77 284.268 77 217 c 0
 77 91.255 153.923 -8 253 -8 c 0
 328.801 -8 388 51.803 388 142 c 0
128.5 402.472 m 1
 128.5 382.27 146.05 376 152 376 c 0
 161.226 376 176.006 381 204 381 c 0
 324.107 381 425 290.996 425 169 c 0
 425 72.5138 356.927 -8 255 -8 c 0
 157.483 -8 53 73.0948 53 227 c 0
 53 407.447 196.535 573.985 387.638 609.334 c 0
 389.939 609.759 l 1
 390.087 609.524 390.418 608.861 390.418 608.861 c 1
 389.368 608.355 388.698 608.066 387.964 607.744 c 1
 285.106 574.271 193.677 507.672 132.219 412.88 c 0
 129 407.916 l 1
 128.5 402.472 l 1
EndSplineSet
EndChar

StartChar: seven
Encoding: 55 55 24
Width: 450
GlyphClass: 2
Flags: HW
HStem: 330 82<91.4919 218.976> 337 75<112.548 348.999>
VStem: 35 33<217.026 286.324> 54 39<412 469.92>
LayerCount: 2
Fore
SplineSet
61.4285 279.925 m 1
 65.8559 314.405 70.9995 362.934 73.2025 420.979 c 1
 73.4041 420 73.1437 421.406 73.3226 420.422 c 0
 77.0792 399.762 96.0422 392 107 392 c 0
 409 392 l 0
 410.004 392 410.799 391.964 410.799 391.964 c 1
 408.758 383.784 397.869 352.081 354.022 221.313 c 1
 253.62 -83.3908 233.162 -175.96 224.244 -198.346 c 1
 220.307 -198.926 214.714 -199 209 -199 c 0
 202 -199 l 0
 199.87 -199 196.357 -198.928 195.946 -198.913 c 1
 202.552 -177.833 225.885 -109.961 303.863 118.35 c 1
 348.139 240.113 370 289.225 370 308 c 0
 370 345.362 331.871 350.297 323.288 351.728 c 0
 322.553 351.85 l 1
 321.811 351.918 l 0
 288.453 354.951 255.788 357 221 357 c 0
 176.45 357 124.517 353.598 107.218 349.43 c 1
 102.591 348.432 96.0686 346.805 89.8319 342.233 c 0
 73.5656 330.307 71.0202 312.312 61.4285 279.925 c 1
EndSplineSet
EndChar

StartChar: eight
Encoding: 56 56 25
Width: 447
GlyphClass: 2
Flags: HW
HStem: -22 47<146.258 291.197> 308 58<176.219 227.156> 621 47<141.339 256.162>
VStem: 16 74<81.6211 226.516> 33 69<439.759 579.141> 300 74<442.856 574.658> 342 83<85.8585 202.16>
LayerCount: 2
Fore
SplineSet
82 514 m 0
 82 401.258 190.893 346 226 346 c 0
 239.629 346 249.295 354.163 253.96 358.664 c 1
 291.563 393.288 320 444.534 320 503 c 0
 320 573.846 271.97 641 198 641 c 0
 196.814 641 l 1
 129.773 639.76 82 580.949 82 514 c 0
220 5 m 0
 293.919 5 362 58.9307 362 136 c 0
 362 216.277 287.796 279.241 207.636 319.542 c 1
 202.393 322.676 195.247 328 183 328 c 0
 148.774 328 70 246.266 70 151 c 0
 70 63.9016 141.345 5 220 5 c 0
209 -2 m 0
 110.752 -2 36 72.5185 36 153 c 0
 36 203.221 64.0622 234.637 97.3957 261.304 c 1
 151.006 303.102 165 303.398 165 326 c 0
 165 341.26 153.987 346.712 151.159 348.598 c 1
 95.3809 386.413 53 443.677 53 502 c 0
 53 570.013 115.499 648 209 648 c 0
 288.728 648 354 606.567 354 526 c 0
 354 466.671 313.671 405.352 258.263 374.47 c 1
 250.11 370.393 245 360.384 245 352 c 0
 245 338.269 254.674 333.042 254.674 333.042 c 1
 256.44 331.276 l 1
 259.768 329.773 l 0
 349.441 289.275 405 224.045 405 161 c 0
 405 78.3375 313.567 -2 209 -2 c 0
EndSplineSet
EndChar

StartChar: nine
Encoding: 57 57 26
Width: 509
GlyphClass: 2
Flags: HW
HStem: -5 39<209.335 352.072> 383 45<154.45 294.59>
VStem: 32 73<148.813 316.685> 395 77<81.1 269.826>
LayerCount: 2
Fore
SplineSet
85 250 m 0
 85 148.545 149.697 14 284 14 c 0
 358.018 14 388.453 53.9939 403.079 98.9968 c 1
 410.714 124.083 415 149.65 415 176 c 0
 415 299.661 324.851 403 221 403 c 0
 159.338 403 85 357.164 85 250 c 0
275 15 m 0
 150.646 15 52 115.705 52 227 c 0
 52 330.233 137.219 408 238 408 c 0
 351.904 408 452 308.004 452 175 c 0
 452 34.2175 334.4 -126.854 149.466 -184.776 c 1
 136.257 -188.316 129.338 -190.156 125.987 -190.739 c 1
 125.692 -189.99 125.651 -189.825 125.651 -189.825 c 1
 127.544 -189.199 126.696 -189.472 127.853 -189.125 c 1
 289.081 -138.805 379 -18.8654 379 5 c 0
 379 16.4261 367.426 28 356 28 c 0
 341.014 28 317.562 15 275 15 c 0
EndSplineSet
EndChar

StartChar: colon
Encoding: 58 58 27
Width: 228
GlyphClass: 2
Flags: HW
HStem: -17 118<78.9846 169.66> 293 118<78.9846 169.66>
VStem: 65 119<-2.99638 86.7526 307.004 396.622>
LayerCount: 2
Fore
SplineSet
124 391 m 0
 145.438 391 164 373.309 164 352 c 0
 164 331.98 146.722 313 124 313 c 0
 103.675 313 85 329.341 85 353 c 0
 85 375.078 103.041 391 124 391 c 0
124 81 m 0
 145.438 81 164 63.309 164 42 c 0
 164 21.9805 146.722 3 124 3 c 0
 103.675 3 85 19.3413 85 43 c 0
 85 66.0191 102.725 81 124 81 c 0
EndSplineSet
EndChar

StartChar: semicolon
Encoding: 59 59 28
Width: 227
GlyphClass: 2
Flags: HW
HStem: 293 118<78.9846 169.66>
VStem: 65 119<307.004 396.622> 161 51<-85.0525 -12.0097>
LayerCount: 2
Fore
SplineSet
124 80 m 0
 155.563 80 192 42.2223 192 -15 c 0
 192 -60.8987 166.988 -92.3255 143.657 -109.98 c 1
 147.296 -106.902 146.387 -107.685 148.649 -105.62 c 1
 174.031 -81.3921 181 -59.2292 181 -44 c 0
 181 -42.8 l 1
 179.713 21.5698 93.3688 21.6176 87.5718 30.1971 c 0
 86.9305 31.1462 l 1
 86.1851 32.0158 l 0
 84.4995 33.9824 83 37.4233 83 45 c 0
 83 63.3329 101.565 80 124 80 c 0
124 391 m 0
 145.438 391 164 373.309 164 352 c 0
 164 331.98 146.722 313 124 313 c 0
 103.675 313 85 329.341 85 353 c 0
 85 375.078 103.041 391 124 391 c 0
EndSplineSet
EndChar

StartChar: less
Encoding: 60 60 29
Width: 672
GlyphClass: 2
Flags: HW
LayerCount: 2
Fore
SplineSet
72 246.216 m 1
 73.3364 246.86 75.0367 247.529 76.9376 248.242 c 1
 509.02 405.812 583.603 433.765 597.552 437.749 c 1
 598.595 436.196 600.866 429.806 600.994 420.962 c 1
 599.593 420.257 598.368 419.791 596.253 419.157 c 0
 595.692 418.988 l 1
 102.492 238.931 l 1
 600.886 58.3054 l 1
 599.596 47.3439 594.488 43.0929 592.334 43.0062 c 1
 581.662 45.7187 516.227 70.1142 75.591 230.885 c 1
 73.6672 231.526 72.5596 231.969 72 232.2 c 1
 72 246.216 l 1
EndSplineSet
EndChar

StartChar: equal
Encoding: 61 61 30
Width: 701
GlyphClass: 2
Flags: HW
HStem: 156 58<54 648.954> 305 58<53 647.872>
LayerCount: 2
Fore
SplineSet
76 325 m 2
 74.8705 325 73.3257 325.068 73.0482 325.084 c 1
 72.9867 326.538 73 326.186 73 327 c 0
 73 341 l 0
 73 341.772 73.0596 342.951 73.0596 342.951 c 1
 74.0389 342.991 74.8726 343 76 343 c 0
 628 343 l 1
 628 330 l 0
 628 327.688 627.7 325.887 627.59 325.356 c 1
 626.015 325.087 624.463 325 622 325 c 0
 76 325 l 2
76 176 m 2
 74.9933 176 74.0479 176.047 74.0479 176.047 c 1
 73.9837 177.647 74 177.158 74 178 c 0
 74 192 l 0
 74 192.772 74.0596 193.951 74.0596 193.951 c 1
 75.0389 193.991 75.8726 194 77 194 c 0
 629 194 l 1
 629 180 l 0
 629 178.306 628.816 176.701 628.751 176.238 c 1
 627.232 176.055 625.454 176 623 176 c 0
 76 176 l 2
EndSplineSet
EndChar

StartChar: greater
Encoding: 62 62 31
Width: 672
GlyphClass: 2
Flags: HW
LayerCount: 2
Fore
SplineSet
601 246.216 m 2
 601 230 l 0
 601 228.338 601.85 232.164 601.85 232.164 c 1
 601.85 232.164 604.368 233.918 601.634 232.462 c 1
 598.83 231.304 599.638 231.628 597.413 230.886 c 1
 159.341 71.276 91.6057 46.1022 80.3049 43.0242 c 1
 77.9262 43.3182 73.199 49.0891 72.1145 58.3055 c 1
 570.508 238.931 l 1
 77.3082 418.988 l 1
 76.747 419.157 l 0
 74.5893 419.804 72.7094 420.608 72.0058 420.962 c 1
 72.1611 431.688 74.5658 436.436 75.4484 437.749 c 1
 89.8469 433.636 164.85 405.499 596.063 248.241 c 1
 597.956 247.531 600.598 246.409 601 246.216 c 2
EndSplineSet
EndChar

StartChar: question
Encoding: 63 63 32
Width: 380
GlyphClass: 2
Flags: HW
HStem: -17 118<113.391 204.66> 577 103<31.9434 95.0571> 651 38<120.281 214.194>
VStem: 99 120<-2.99638 86.7526> 119 52<192.704 327.862> 252 85<470.93 612.194>
LayerCount: 2
Fore
SplineSet
159 81 m 0
 180.438 81 199 63.309 199 42 c 0
 199 21.9805 181.722 3 159 3 c 0
 138.357 3 119 19.7792 119 43 c 0
 119 65.5865 137.402 81 159 81 c 0
193.525 666.635 m 1
 284.091 653.167 317 585.96 317 542 c 0
 317 437.567 151 408.365 151 250 c 0
 151 239.38 152 232.882 152 228 c 0
 152 212.39 145.928 212.029 145.853 212.008 c 1
 145.276 212.519 139 219.788 139 247 c 0
 139 362.944 272 414.834 272 547 c 0
 272 601.625 241.223 651.353 193.525 666.635 c 1
144.161 668.641 m 1
 74.0654 651.387 85.0429 597 57 597 c 0
 45.0169 597 35 606.863 35 621 c 0
 35 627.009 31.4912 649.426 83.3349 660.475 c 1
 102.958 665.003 123.525 667.689 144.161 668.641 c 1
EndSplineSet
EndChar

StartChar: at
Encoding: 64 64 33
Width: 1000
GlyphClass: 2
Flags: HW
HStem: -176 38<388.066 610.518> -14 66<382.487 465.106> -8 46<602.669 713.161> 363 33<534.747 597.381> 409 20G<644 651.5> 572 39<426.292 651.985>
VStem: 88 82<70.9096 316.808> 302 74<57.2769 161.388> 824 42<176.781 411.103>
LayerCount: 2
Fore
SplineSet
718.867 39.434 m 1
 690.813 21.511 661.049 12 632 12 c 0
 540.666 12 581.373 86 531 86 c 0
 512.386 86 511.858 76.1421 511.858 76.1421 c 0
 511.099 75.3828 l 1
 510.425 74.5466 l 0
 483.103 40.629 438.049 6 395 6 c 0
 354.912 6 322 35.5695 322 83 c 0
 322 162.94 441.687 310.535 514.399 354.916 c 0
 535.616 367.831 557.054 376 579 376 c 0
 595.549 376 595.172 373 608 373 c 0
 637.548 373 644.902 406.632 646.098 409.002 c 1
 647.118 408.971 647.76 408.861 648.129 408.794 c 1
 641.298 382.182 607.805 288.264 580.367 128.846 c 1
 578.063 118.327 575 102.468 575 86 c 0
 575 33.894 617.231 18 643 18 c 0
 667.297 18 693.815 26.0494 718.867 39.434 c 1
831.851 198.295 m 1
 839.851 230.802 844 265.664 844 300 c 0
 844 301 l 0
 844 325.739 841.583 349.327 837.011 371.36 c 1
 842.885 347.322 846 321.934 846 296 c 0
 846 261.756 840.855 228.671 831.851 198.295 c 1
427.867 575.237 m 1
 273.163 529.168 150 390.427 150 198 c 0
 150 10.3322 268.65 -131.985 447.774 -154.751 c 1
 253.462 -140.711 108 -16.8781 108 186 c 0
 108 187 l 0
 108 279.558 140.505 442.395 333.944 539.111 c 0
 360.203 552.241 392.16 565.442 427.867 575.237 c 1
607 353 m 0
 607 370.236 591.964 383 576 383 c 0
 523.153 383 421.722 297.726 371.471 169.531 c 1
 363.049 149.53 356 125.83 356 102 c 0
 356 50.4327 392.666 32 418 32 c 0
 446.041 32 497.115 52.238 531.068 91.847 c 1
 544.704 107.188 553.841 116.226 557.553 134.787 c 1
 606.588 346.916 607 341.69 607 353 c 0
EndSplineSet
EndChar

StartChar: A
Encoding: 65 65 34
Width: 821
GlyphClass: 2
Flags: HW
HStem: -6 51<9.70312 96.8955 184.385 268.276 543.905 621.989> 300 52<298.001 517.997>
VStem: 622 195<9.5 73>
DStem2: 111 93 271 288 0.40364 0.914918<11.178 264.736 316.421 512.08> 485 668 430 565 0.391141 -0.920331<62.6289 296.73 353.02 608.612>
LayerCount: 2
Fore
SplineSet
137 20 m 0
 82.4229 20 38.3333 14.9476 29.0806 14.0603 c 1
 29.0209 14.4326 29 14.7815 29 15 c 0
 29 18.0763 29.3976 20.4276 29.4953 20.8528 c 1
 33.0135 22.1446 42.6265 23.3065 56.562 25.1646 c 1
 94.657 29.9265 113.327 48.7256 129.274 84.8714 c 1
 177.053 191.38 228.076 298.419 281.761 403.803 c 1
 429.697 684.875 427.175 678.815 431.175 682.114 c 1
 435.886 685.201 438.697 686 443 686 c 0
 453.004 686 461.761 672.246 466.538 660.305 c 1
 610.576 328.215 l 1
 719.497 63.3861 714.153 70.7153 723.394 56.8531 c 1
 747.22 21.5925 787.846 23.5649 796.132 21.5879 c 1
 796.664 18.5978 796.914 16.4475 796.997 15.6653 c 1
 796.974 14.8354 796.884 14.2118 796.858 14.0384 c 1
 787.28 14.7931 739.25 20 682 20 c 0
 609.509 20 571.033 14.0643 563.047 13.9998 c 1
 563.137 16.6213 563.381 18.4909 563.547 19.4494 c 1
 568.919 21.1498 582.631 22.4231 604.481 25.1544 c 0
 605.206 25.2451 l 1
 605.922 25.3884 l 0
 606.149 25.4338 642 29.3694 642 64 c 0
 642 91.5139 605.474 206.393 565.296 298.078 c 1
 557.561 315.483 539.832 320 529 320 c 0
 294 320 l 0
 281.314 320 263.303 315.655 253.417 297.53 c 1
 203.18 204.237 164 102.305 164 72 c 0
 164 61.8441 166.147 51.3424 172.805 42.6948 c 0
 189.817 20.5986 217.85 23.3291 244.713 20.131 c 1
 246.699 19.9104 248.195 19.5732 248.69 19.4235 c 1
 248.891 18.476 249 17.6626 249 16 c 0
 249 14.7812 248.742 14.3088 248.725 14.2747 c 1
 248.592 14.2098 248.137 14 247 14 c 0
 240.469 14 203.367 20 137 20 c 0
509 332 m 2
 515.422 332 538 337.196 538 359 c 0
 538 383.192 464.996 546.742 447.057 575.445 c 1
 442.136 583.647 431.14 592 419 592 c 0
 394.679 592 385.6 570.112 382.495 564.677 c 1
 319.576 446.954 278 378.281 278 356 c 0
 278 338.592 294.355 332 304 332 c 0
 509 332 l 2
EndSplineSet
EndChar

StartChar: B
Encoding: 66 66 35
Width: 564
GlyphClass: 2
Flags: HMW
HStem: -6 47<17.3125 93.935 182.305 356.782> 355 43<180 347.133> 651 44<182.763 340.509>
VStem: 94 86<46.989 355 398 639.812> 402 89<461.932 592.593> 447 89<121.063 282.491>
LayerCount: 2
Fore
SplineSet
90 666 m 0
 153.072 666 206.108 675 264 675 c 0
 303.968 675 373.123 670.051 418.441 638.677 c 1
 443.503 620.53 471 585.611 471 540 c 0
 471 486.018 434.109 433.288 385.429 402.978 c 0
 383.481 401.765 l 1
 381.858 400.142 l 0
 381.858 400.142 374 396.67 374 383 c 0
 374 367.837 385.812 363.233 388.056 362.111 c 0
 390.497 360.891 l 1
 393.176 360.369 l 0
 460.734 347.207 516 285.464 516 206 c 0
 516 120.118 454.663 58.9781 400.829 35.2549 c 1
 390.202 30.4245 357.905 14 289 14 c 0
 244.753 14 199.753 20 152 20 c 0
 116.195 20 82.3764 18 38 18 c 1
 37.9545 18.5555 37.0217 20.2551 37.0217 20.2551 c 1
 43.2987 21.7163 56.3301 22.9269 75.31 25.1339 c 0
 75.9469 25.2079 l 1
 76.5777 25.3226 l 0
 81.5831 26.2327 92.9074 26.4732 103.19 36.3263 c 0
 111.116 43.9207 114 54.7449 114 65 c 0
 114 612 l 0
 114 623.665 111.483 635.44 103.581 644.719 c 0
 87.8267 663.219 63.9021 662.151 44.2644 663.878 c 1
 44.0858 665.56 44.0366 666.945 44.0366 666.945 c 1
 50.7052 666.706 65.3943 666 90 666 c 0
422 519 m 0
 422 574.216 385.193 671 255 671 c 0
 234.595 671 192.501 671.613 172.506 655.617 c 0
 159.961 645.581 160 630.662 160 627 c 0
 160 411 l 0
 160 402.143 165.992 378 190 378 c 0
 248 378 l 0
 287.603 378 367.491 379.85 405.802 452.882 c 1
 416.182 473.644 422 495.523 422 519 c 0
257 21 m 0
 362.146 21 467 81.2514 467 201 c 0
 467 266.525 431.196 347.154 333.339 368.524 c 0
 303.405 375.175 272.985 375 245 375 c 0
 194 375 l 0
 167.196 375 160 350.306 160 340 c 0
 160 82 l 0
 160 63.0737 165.738 32.3362 206.978 25.2259 c 1
 222.982 23.0921 239.091 21 257 21 c 0
EndSplineSet
EndChar

StartChar: C
Encoding: 67 67 36
Width: 700
GlyphClass: 2
Flags: HW
HStem: -24 51<296.333 499.546> 439 21G<629 650.5> 650 46<283.328 486.406>
VStem: 19 96<225.341 451.697> 613 49<439.285 545.701>
LayerCount: 2
Fore
SplineSet
95 354 m 0
 95 161.554 226.57 7 396 7 c 0
 507.209 7 611.963 73.9483 661.066 178.994 c 1
 654.854 136.113 646.043 78.4156 644.252 70.3171 c 1
 643.675 68.1533 l 0
 643.561 67.7243 643.442 67.4228 643.385 67.2719 c 1
 642.724 67.0832 641.856 67 641 67 c 0
 612 67 l 0
 581.763 67 569.722 52.6198 554.767 43.1847 c 1
 492.945 7.68434 433.033 -4 380 -4 c 0
 292.372 -4 204.143 32.0253 140.93 93.3516 c 0
 76.9303 155.469 39 245.511 39 335 c 0
 39 429.936 82.6332 520.237 143.867 579.588 c 1
 207.911 640.807 297.227 676 385 676 c 0
 386 676 l 0
 505.781 676 547.574 623 582 623 c 0
 611.423 623 615.713 655.779 616.226 657.206 c 1
 620.99 620.975 638.913 486.093 641.699 458.999 c 1
 638.735 459.021 637.692 459.095 636.743 459.16 c 1
 635.518 464.87 634.67 473.881 632.818 488.705 c 1
 628.641 516.895 623.09 538.338 602.705 564.383 c 0
 558.467 620.492 481.951 670 383 670 c 0
 234.76 670 95 549.346 95 354 c 0
EndSplineSet
EndChar

StartChar: D
Encoding: 68 68 37
Width: 709
GlyphClass: 2
Flags: HW
HStem: 0 48<10.3898 109.178 205.353 418.413> 633 42<11.0095 108.044 200.812 393.155>
VStem: 111 89<58.0293 626.875> 595 100<233.039 436.012>
LayerCount: 2
Fore
SplineSet
300 28 m 0
 453.203 28 615 125.011 615 316 c 0
 615 417.356 572.125 523.424 486.865 587.101 c 1
 415.903 638.711 331.812 653 267 653 c 0
 230.636 653 204.99 653.64 189.23 634.108 c 0
 180.772 623.625 180 611.674 180 602 c 0
 180 93 l 0
 180 58.69 201.101 40.3449 232.258 34.3532 c 0
 254.463 30.1236 276.787 28 300 28 c 0
31 654 m 0
 31 654.554 31.0203 654.94 31.0203 654.94 c 1
 32.219 655.006 32.257 655 33 655 c 0
 215 655 l 0
 312.741 655 412.677 651.509 496.572 612.862 c 0
 590.214 569.352 675 475.65 675 343 c 0
 675 177.535 536.169 50.1771 401.512 25.6937 c 1
 374.554 21.0459 345.503 20 316 20 c 0
 33 20 l 0
 32.1327 20 30.9888 20.0765 30.9054 20.085 c 1
 30.3281 22.0925 30 23.9599 30 28 c 1
 36.5058 29.7305 56.1869 30.3937 84.9994 32.0246 c 1
 96.287 32.5153 107.947 35.6004 116.689 43.7643 c 0
 130.582 56.7384 131 74.2118 131 88 c 0
 131 594 l 0
 131 652.394 81.2766 649.362 31.0746 650.941 c 1
 31.0161 652.074 31 652.852 31 654 c 0
EndSplineSet
EndChar

StartChar: E
Encoding: 69 69 38
Width: 578
GlyphClass: 2
Flags: HW
HStem: -12 73<27.9152 103.47> 0 62<197.782 319.547> 0 55<229.453 464.01> 369 58<198.975 407.8> 638 53<15.3204 107 199.183 454.471>
VStem: 107 89<64.3716 365.73 427 636.673> 409 55<271.454 368.907 428.208 512.546>
LayerCount: 2
Fore
SplineSet
436 493 m 0
 441.61 493 442.888 491.871 442.888 491.871 c 1
 443.14 491.459 444 488.435 444 484 c 0
 444 300 l 0
 444 295.369 443.014 292.335 442.888 292.129 c 1
 442.782 292.059 441.255 291 436 291 c 0
 432.41 291 429.455 291.567 429.029 291.674 c 1
 429.01 292.06 429 292.495 429 293 c 0
 429 347 l 0
 429 358.42 425.908 370.132 417.181 378.346 c 0
 405.359 389.473 391.302 389 383 389 c 0
 245 389 l 0
 222.295 389 176 383.698 176 329 c 0
 176 100 l 0
 176 78.7696 184.608 47.7959 225.041 42.2188 c 1
 256.762 37.1024 289.289 35 321 35 c 0
 354.122 35 445.883 36.6618 477.14 60.1052 c 1
 502.03 79.4645 527.272 142.38 542 162.544 c 1
 542 162 l 0
 541.996 161.652 l 1
 541.897 160.353 538.311 144.198 511.433 24.1474 c 1
 511.044 22.1978 510.665 20.9387 510.592 20.706 c 1
 508.426 20.2645 505.7 20 501 20 c 0
 157 20 l 0
 81.4294 20 44.2157 8.22542 33.2474 8.00047 c 1
 31.8841 9.4126 29.6312 14.9682 29.0903 17.8631 c 1
 36.1398 21.8516 55.8529 28.5727 91.9997 42.2647 c 1
 119.859 52.5287 127 75.9746 127 100 c 0
 127 621 l 0
 127 627.447 126.673 635.806 120.909 643.98 c 0
 110.417 658.86 95.7561 658.463 83.3081 660.726 c 1
 57.9829 664.622 39.1749 664.881 34.1328 666.63 c 1
 34.0151 667.67 34 667.986 34 669 c 0
 34 670.074 34.0558 671 34.0558 671 c 1
 493 671 l 0
 493.989 671 494.819 670.932 495.294 670.891 c 1
 495.531 670.251 495.595 670.047 495.595 670.047 c 1
 503.747 629.712 518.1 569.156 522.769 546.997 c 1
 516.823 547.208 517.337 547.922 511.929 555.7 c 1
 464.877 639.578 459.648 658 417 658 c 0
 229 658 l 0
 183.791 658 178 619.159 178 600 c 0
 178 449 l 0
 178 443.406 177.317 431.874 185.883 420.82 c 0
 193.453 411.051 205.775 407 218 407 c 0
 371 407 l 0
 387.935 407 429 411.254 429 460 c 0
 429 491 l 0
 429 491.585 429.036 492.325 429.036 492.325 c 1
 430.779 492.741 432.624 493 436 493 c 0
EndSplineSet
EndChar

StartChar: F
Encoding: 70 70 39
Width: 541
GlyphClass: 2
Flags: HW
HStem: -6 53<11.5821 97.6384 193.251 320.983> 360 58<194.165 395.801> 636 51<10.3223 97.588 194.854 441.997>
VStem: 98 94<49.7348 360 418 634.561> 395 55<270.499 360> 403 47<418.264 503.907>
LayerCount: 2
Fore
SplineSet
430 483 m 0
 430 476.486 426 446.346 426 390 c 0
 426 332.729 430 301.463 430 296 c 0
 430 289.878 429.218 290 423 290 c 0
 422.77 290 422.352 290.007 422.352 290.007 c 1
 420.024 297.688 418.571 317.613 414.891 348.104 c 1
 414.249 355.165 411.561 365.644 402.841 372.573 c 0
 393.892 379.685 384.328 380 377 380 c 0
 214 380 l 0
 202.826 380 191.542 376.918 183.478 368.784 c 0
 170.738 355.933 172 340.045 172 332 c 0
 172 84 l 0
 172 63.825 178.584 29.6307 232.205 27.015 c 1
 269.361 25.8718 293.26 26.3425 300.994 24.607 c 1
 301.009 23.6071 301 25 301 24 c 0
 301 15 l 0
 301 14.6782 300.989 14.2184 300.989 14.2184 c 1
 284.64 15.4479 232.428 20 169 20 c 0
 98.5335 20 40.9099 14.4492 33.7053 14.0016 c 1
 32.1666 14.0453 31.6113 14.2088 31.3035 14.2887 c 1
 31.1531 14.8224 31 15.6392 31 17 c 0
 31 19.0465 31.1937 21.5168 31.2234 21.7779 c 1
 37.6162 23.0441 50.2925 23.2665 70.0727 25.1065 c 1
 85.6897 26.9084 99.1439 31.3619 108.295 42.666 c 0
 117.308 53.7995 118 66.4623 118 76 c 0
 118 606 l 0
 118 618.098 116.529 631.111 106.889 641.452 c 0
 88.8542 660.798 63.6372 655.79 33.3996 657 c 1
 31.3659 657 30.9039 657.03 30.0224 657.141 c 1
 29.9805 658.14 30 657 30 658 c 0
 30 662.497 30.4109 665.95 30.7504 667.877 c 1
 41.9279 667.114 67.6465 664 112 664 c 0
 150.825 664 220.603 667 274 667 c 0
 469 667 l 0
 479.324 667 479.283 669.275 482.511 657.506 c 1
 488.478 630.696 503.342 564.991 504.978 554.273 c 1
 504.891 552.974 504.651 552.378 504.497 552.009 c 1
 502.582 552.101 498.649 554.853 459.446 624.78 c 0
 459.213 625.196 l 1
 458.96 625.6 l 0
 447.892 643.309 432.797 656 407 656 c 0
 223 656 l 0
 209.601 656 196.882 652.583 187.693 643.651 c 0
 173.263 629.626 174 611.313 174 600 c 0
 174 433 l 0
 174 426.616 174.449 416.909 182.134 408.371 c 0
 190.038 399.588 200.798 398 209 398 c 0
 376 398 l 0
 383.007 398 392.034 398.431 400.59 404.674 c 0
 420.813 419.432 416.968 441.703 422.729 473.707 c 1
 423.657 479.743 425.197 483.109 425.761 483.908 c 1
 426.249 483.983 426.42 484 427 484 c 0
 428.685 484 429.695 483.601 429.978 483.467 c 1
 430.007 483.094 430 483.214 430 483 c 0
EndSplineSet
EndChar

StartChar: G
Encoding: 71 71 40
Width: 691
GlyphClass: 2
Flags: HW
HStem: -24 53<280.988 476.936> 260 46<423.046 542.581> 441 21G<595 622> 658 48<250.345 437.146>
VStem: 16 100<226.103 480.292> 545 84<76.6719 251.789>
LayerCount: 2
Fore
SplineSet
366 -4 m 0
 191.243 -4 36 154.048 36 354 c 0
 36 546.576 179.378 686 352 686 c 0
 467.661 686 523.786 628.188 550.149 621.597 c 0
 552.538 621 l 1
 559 621 l 0
 588.549 621 603.734 651.199 609 657.906 c 1
 609 642 l 0
 609 553.861 617.161 482.176 619.454 461.477 c 1
 617.482 461.221 613.23 461.021 612.095 461.006 c 1
 608.798 475.501 605.336 509.382 573.143 553.806 c 0
 520.905 625.235 434.56 678 340 678 c 0
 227.817 678 96 593.21 96 367 c 0
 96 92.7964 262.846 9 377 9 c 0
 468.979 9 544.551 56.0745 559.784 84.8472 c 1
 565.441 96.1617 565 105.996 565 111 c 0
 565 224 l 0
 565 234.521 563.385 245.798 555.951 255.401 c 0
 536.387 280.675 502.329 275.169 452.787 279.92 c 1
 447.955 280.323 444.186 281.494 443.042 282.12 c 1
 442.987 282.812 443 282.597 443 283 c 0
 443 284.548 443.427 285.701 443.502 285.855 c 1
 443.816 285.93 444.216 286 445 286 c 0
 452.849 286 485.691 282 548 282 c 0
 550 282 l 0
 614.27 282 650.046 286 657 286 c 0
 662.686 286 662.996 284.719 662.996 284.719 c 1
 662.97 284.021 662.909 283.816 662.896 283.751 c 1
 662.896 283.751 620.927 279.692 610.625 244.072 c 1
 608.512 236.22 609 232.876 609 229 c 0
 609 68.9509 l 1
 604.232 73.719 598.625 81 585 81 c 0
 568.285 81 558.756 69.0308 557.357 67.6407 c 1
 499.015 17.1791 428.397 -4 366 -4 c 0
EndSplineSet
EndChar

StartChar: H
Encoding: 72 72 41
Width: 762
GlyphClass: 2
Flags: HW
HStem: -6 50<15.2519 108.504 199.068 294.781 466.413 565.843 655.964 744.797> 365 62<198 565.916> 636 51<14.6575 108.262 198.337 296.024 474.512 564.115 655.349 749.377>
VStem: 109 89<48.884 365 427 634.922> 567 88<45.9662 365 427 634.938>
LayerCount: 2
Fore
SplineSet
158 20 m 0
 95.6018 20 45.2976 14.8403 35.5453 14.0668 c 1
 35.1673 16.0856 35.0655 17.6412 35.0003 20.2243 c 1
 43.5879 21.7398 59.222 22.2178 84.5557 24.0603 c 1
 98.0905 25.1882 110.562 29.4956 118.961 39.6175 c 0
 129.392 52.1874 129 66.4031 129 76 c 0
 129 605 l 0
 129 617.853 126.237 630.16 118.062 639.678 c 0
 101.557 658.896 76.7698 656.732 61.1369 658.759 c 1
 47.8106 660.794 39.7327 660.572 34.2138 661.748 c 1
 34.7003 664.343 36.0373 666.696 36.2621 666.949 c 1
 36.5269 666.988 36.6328 667 37 667 c 0
 47.5885 667 83.9 665 154 665 c 0
 157 665 l 0
 226.165 665 263.146 666.827 275.5 666.99 c 1
 275.753 665.734 275.961 664.538 276.058 663.986 c 1
 276.256 660.973 276.507 659.851 276.507 659.851 c 1
 266.819 658.315 248.313 657.834 219.845 655.967 c 1
 209.432 655.447 198.186 652.433 189.994 644.206 c 0
 177.967 632.13 178 616.962 178 606 c 0
 178 441 l 0
 178 428.769 187.035 407 211 407 c 0
 549 407 l 0
 560.294 407 572.132 410.971 579.176 420.52 c 0
 586.512 430.465 586 440.378 586 445 c 0
 586 593 l 0
 586 609.346 585.419 641.937 551.74 654.853 c 1
 527.015 664.633 500.834 660.774 494 662.837 c 1
 494 665.118 494.271 666.086 494.418 666.589 c 1
 494.966 666.759 496.095 667 498 667 c 0
 506.397 667 538.869 665 601 665 c 0
 667.048 665 720.887 668.451 731.004 668.95 c 1
 730.95 665.519 730.712 664.954 730.55 664.362 c 1
 726.846 662.335 708.18 660.121 679.335 655.824 c 1
 665.229 654.131 652.114 648.816 644.01 638.441 c 0
 635.053 626.974 635 614.445 635 607 c 0
 635 77 l 0
 635 63.1114 640.818 28.1857 681.426 25.062 c 0
 703.465 23.3221 720.31 22.7424 724.957 21.2904 c 1
 724.991 20.7836 725 20.5182 725 20 c 0
 725 17.6198 724.581 14.9969 724.334 14.0747 c 1
 713.344 14.9377 663.095 20 603 20 c 0
 547.526 20 500.332 15.6147 486 14.36 c 1
 486.021 17.7352 486.154 19.4317 486.277 20.619 c 1
 492.778 22.0815 511.57 22.8943 538.021 25.0162 c 1
 553.929 25.8397 565.276 29.2342 574.614 39.1726 c 0
 587.818 53.2248 587 70.5656 587 83 c 0
 587 354 l 0
 587 375.009 567.197 385 554 385 c 0
 213 385 l 0
 203.89 385 192.887 382.385 185.583 373.487 c 0
 177.801 364.005 178 354.043 178 348 c 0
 178 77 l 0
 178 71.93 177.371 61.8279 183.514 51.1768 c 0
 193.52 33.8258 214.007 27.2243 243.642 24.1374 c 1
 255.209 22.5951 269.54 22.3661 274.99 20.4044 c 1
 274.936 17.3945 274.82 15.9959 274.674 14.4202 c 1
 257.618 15.9483 212.314 20 158 20 c 0
EndSplineSet
EndChar

StartChar: I
Encoding: 73 73 42
Width: 323
GlyphClass: 2
Flags: HW
HStem: -6 52<14.1856 117.673 209.024 305.574> 631 49<30.4961 118.99 209 287.661>
VStem: 118 91<48.0003 628.443>
LayerCount: 2
Fore
SplineSet
51.6486 660.005 m 1
 59.2534 659.568 107.378 655 167 655 c 0
 223.78 655 256.373 658.261 267.994 658.894 c 1
 267.935 655.531 267.684 653.648 267.575 652.99 c 1
 262.311 651.402 246.649 650.219 223.312 647.93 c 1
 212.902 647.187 201.376 642.552 194.94 632.979 c 0
 189.254 624.521 189 616.183 189 611 c 0
 189 71 l 0
 189 65.6185 187.656 52.4289 197.4 40.1207 c 0
 203.984 31.8047 213.739 27.3504 225.182 26.0789 c 1
 257.368 23.7799 278.82 23.5506 285.988 21.9082 c 1
 285.917 18.7614 285.418 15.7302 284.941 14.1014 c 1
 272.249 15.0979 221.071 20 159 20 c 0
 99.7975 20 48.9459 15.4751 34.3674 14.2835 c 1
 34.098 16.6775 34.0777 17.0521 33.9179 18.8107 c 0
 33.7077 21.1224 l 1
 33.0666 23.0459 l 1
 32.9847 23.8417 33.0423 23.3491 33.0357 23.4489 c 1
 43.3426 25.1285 64.4122 25.6213 98.2672 28.0396 c 1
 107.709 28.5641 118.221 31.3533 126.036 38.9798 c 0
 137.969 50.6237 138 65.4248 138 76 c 0
 138 596 l 0
 138 600.085 139 603.196 139 610 c 0
 139 616.843 138.083 625.24 132.55 632.976 c 0
 116.292 655.709 87.932 649.017 54.4065 650.952 c 1
 53.0404 651.066 50.4354 651.446 50 651.531 c 1
 50 655.932 51.007 658.874 51.6486 660.005 c 1
EndSplineSet
EndChar

StartChar: J
Encoding: 74 74 43
Width: 316
GlyphClass: 2
Flags: HW
HStem: -212 60<-26 61.3199> 632 48<15.3288 115.409 210.754 298.798>
VStem: 118 91<-47.6 625.019>
LayerCount: 2
Fore
SplineSet
53.9312 -171.794 m 1
 34.0061 -183.583 12.5751 -192 -2 -192 c 0
 -37.7949 -192 -62 -159.5 -62 -135 c 0
 -62 -117.653 -50.9803 -106 -37 -106 c 0
 -6.91973 -106 -10.2663 -165.532 53.9312 -171.794 c 1
122.689 -115.299 m 1
 125.218 -107.852 127.167 -100.552 128.302 -96.2413 c 1
 135.441 -70.7429 138 -52.8744 138 -26 c 0
 138 595 l 0
 138 650.511 86.0866 646.944 39.1483 651.884 c 1
 37.5338 652.064 35.3643 652.513 35 652.616 c 1
 35 656.507 35.7724 658.888 36.3201 659.97 c 1
 36.7354 660.003 36.7905 659.998 36.7905 659.998 c 1
 44.3637 659.6 97.4788 655 161 655 c 0
 165 655 l 2
 229.386 655 265.964 658.384 279.003 658.925 c 1
 278.951 654.257 278.729 653.336 278.432 651.892 c 1
 273.666 650.304 257.131 649.467 233.076 646.908 c 1
 221.652 645.915 210.076 642.197 201.78 633.794 c 0
 189.101 620.952 189 604.709 189 593 c 0
 189 56 l 0
 189 -9.78407 161.283 -70.9742 122.689 -115.299 c 1
EndSplineSet
EndChar

StartChar: K
Encoding: 75 75 44
Width: 654
GlyphClass: 2
Flags: HW
HStem: -6 50<14.4806 107.22 200.15 299.736> -5 38<587.122 647.484> 315 55<199.002 237.997> 630 57<502.154 616.167> 640 48<12.1716 106.871 200.3 290.377>
VStem: 111 88<49.4271 312.167 370.007 633.513>
LayerCount: 2
Back
SplineSet
280 -6 m 0
 276 -6 222 0 155 0 c 0
 89 0 35 -6 31 -6 c 0
 17 -6 14 6 14 17 c 0
 14 52.2722 59.9646 40.0457 85 47 c 0
 105 53 111 62 111 93 c 2
 111 590 l 2
 111 638 93 635 40 640 c 0
 27 641 12 646 12 664 c 0
 12 673 19 688 41 688 c 0
 52 688 85 684 151 684 c 2
 152 684 l 2
 218 684 251 688 262 688 c 0
 285 688 291 670 291 662 c 0
 291 632 236 647 214 637 c 0
 200 630 199 614 199 604 c 2
 199 387 l 2
 199 380 201 370 212 370 c 0
 222 370 229 381 238 391 c 0
 299 459 415 588 420 596 c 0
 424 601 428 609 428 617 c 0
 428 660 362 630 362 666 c 0
 362 679 371 687 385 687 c 0
 396 687 427 685 490 685 c 2
 496 685 l 2
 556 685 586 687 596 687 c 0
 618 687 624 675 624 666 c 0
 624 638 571 645 535 630 c 0
 504 617 485 590 463 567 c 0
 284 374 284 377 284 368 c 0
 284 362 287 358 292 353 c 0
 571 59 559 69 574 59 c 0
 607 38 626 49 642 33 c 0
 645 29 648 23 648 18 c 0
 648 9 640 -5 619 -5 c 0
 605 -5 600 -1 572 -1 c 0
 498 0 499 -5 474 24 c 0
 224 311 225 315 213 315 c 2
 212 315 l 2
 199 315 198 303 198 295 c 2
 198 84 l 2
 198 45 213 49 278 44 c 0
 285 43 300 41 300 22 c 0
 300 7 296 -6 280 -6 c 0
EndSplineSet
Fore
SplineSet
279.277 14.0772 m 1
 267.166 15.0284 216.639 20 155 20 c 0
 97.3201 20 47.7936 15.4224 34.107 14.2719 c 1
 34.0324 15.16 34 16.0116 34 17 c 0
 34 18.8966 34.2697 20.0272 34.3383 20.2814 c 1
 36.9641 21.7281 50.5068 22.6967 67.4414 24.0514 c 1
 104.151 26.4198 131 44.9154 131 93 c 0
 131 590 l 0
 131 652.525 91.069 655.27 41.7039 659.928 c 1
 36.1548 660.355 32.7365 661.892 32.1652 662.308 c 1
 32.0743 662.696 32.0207 663.207 31.9965 663.892 c 1
 32.0959 664.537 31.2802 668 41 668 c 0
 49.0122 668 84.7571 664 151 664 c 0
 152 664 l 0
 218.305 664 253.917 668 262 668 c 0
 269.576 668 269.754 665.616 270.534 663.666 c 1
 258.624 660.307 230.176 666.322 205.387 655.054 c 1
 178.568 641.645 179 613.655 179 604 c 0
 179 387 l 0
 179 379.463 182.705 350 212 350 c 0
 236.573 350 247.313 371.451 252.888 377.645 c 0
 313.888 445.646 426.069 570.058 436.157 584.188 c 1
 442.522 592.566 448 602.949 448 617 c 0
 448 627.054 445.329 636.863 439.48 644.593 c 0
 421.308 668.609 386.591 665.343 382.321 666.725 c 1
 383.332 666.945 383.795 667 385 667 c 0
 394.451 667 426.853 665 490 665 c 0
 496 665 l 0
 556.157 665 587.621 667 596 667 c 0
 598.869 667 601.176 666.595 602.121 666.38 c 1
 589.531 661.196 556.628 660.679 527.265 648.444 c 0
 489.744 632.709 468.907 602.11 448.442 580.714 c 1
 271.882 390.343 264 394.213 264 368 c 0
 264 354.15 272.529 344.187 277.672 339.044 c 1
 556.198 45.5395 543.12 55.5499 563.083 42.2412 c 1
 601.236 17.9625 622.952 22.7839 626.79 19.8299 c 1
 627.422 18.7483 627.736 18.0113 627.768 17.9361 c 1
 627.339 17.2618 626.377 15 619 15 c 0
 610.595 15 602.063 19 572.135 19 c 1
 494.347 20.0511 510.115 12.7378 489.115 37.097 c 1
 242.521 320.187 244.797 335 213 335 c 0
 212 335 l 0
 179.263 335 178 300.719 178 295 c 0
 178 84 l 0
 178 69.9939 179.159 55.9357 189.148 44.3486 c 0
 207.949 22.5392 237.739 26.9913 275.813 24.1093 c 1
 277.459 23.873 279.489 23.4286 279.941 23.2874 c 1
 280.007 22.4966 280 22.5611 280 22 c 0
 280 18.5457 279.607 15.5562 279.277 14.0772 c 1
EndSplineSet
EndChar

StartChar: L
Encoding: 76 76 45
Width: 563
GlyphClass: 2
Flags: HW
HStem: 0 60<185.415 455.946> 0 45<14.7662 91.4135> 629 49<11.0815 91.9614 185.402 288.929>
VStem: 92 93<60.5237 626.364> 502 45<127.281 178.977>
LayerCount: 2
Fore
SplineSet
151 655 m 2
 217.298 655 255.3 657.54 268.856 657.944 c 1
 268.968 655.972 269 653.727 269 651 c 0
 269 649.742 268.845 648.052 268.845 648.052 c 1
 268.078 648.006 267.991 648 266.707 648 c 1
 224.111 646.746 196.089 655.134 176.001 634.35 c 0
 165.735 623.729 165 610.492 165 599 c 0
 165 92 l 0
 165 81.9224 164.353 65.4175 177.326 52.2365 c 0
 186.081 43.341 198.398 40 211 40 c 0
 405 40 l 0
 423.07 40 454.656 42.2804 476.691 75.9804 c 1
 488.575 93.8069 512.392 150.937 517.908 159.942 c 1
 521.138 159.624 525.69 158.062 526.959 157.169 c 1
 525.641 144.47 513.668 62.269 507.265 19.2611 c 1
 506.749 16.4388 506.508 15.3966 506.284 14.5541 c 1
 504.567 14.1867 503.043 14 500 14 c 0
 487.198 14 307.036 20 83 20 c 0
 46.7837 20 l 1
 53.5963 21.493 62.2846 23.1611 73.0973 25.4242 c 0
 73.684 25.547 l 1
 74.2623 25.7047 l 0
 107.272 34.7073 112 62.2732 112 77 c 0
 112 605 l 0
 112 615.466 110.966 627.734 101.346 637.42 c 0
 83.7512 655.136 60.1988 648.506 37.0395 648.981 c 1
 33.9167 649.255 31.7674 649.809 31.2458 649.99 c 1
 31.0958 650.769 31 651.569 31 653 c 0
 31 655.106 31.2181 657.482 31.2809 657.991 c 1
 42.9132 657.84 77.4375 655.961 143.853 655 c 1
 151 655 l 2
EndSplineSet
EndChar

StartChar: M
Encoding: 77 77 46
Width: 998
GlyphClass: 2
Flags: HW
HStem: -15 21G<492.5 504> -6 59<198.424 290.543> -6 55<19.7654 120.397 703.77 805.323 899.654 995.52> 635 40<22.071 98.7458>
VStem: 124 70<53.3311 334.948> 149 51<334.948 477.998> 809 89<51.3681 476.999>
DStem2: 209 662 138 574 0.520486 -0.85387<-27.1884 64.7399 409.819 606.783>
LayerCount: 2
Back
SplineSet
721 -6 m 4xd8
 706 -6 702 9 702 18 c 4
 702 63 797 20 808 79 c 4
 809 85 809 92 809 98 c 6
 809 311 l 6
 809 380 807 468 806 471 c 4
 805 476 802 477 799 477 c 4
 792 477 788 470 785 465 c 4
 696 323 542 19 524 -3 c 4
 515 -14 506 -15 502 -15 c 4
 483 -15 474 7 467 21 c 4
 359 243 215 472 207 477 c 4
 206 478 205 478 204 478 c 4
 201 478 200 475 200 473 c 4
 196 403 194 335 194 265 c 4
 194 223 197 72 200 62 c 4
 210 29 294 65 294 17 c 4
 294 8 290 -6 276 -6 c 4
 272 -6 220 0 156 0 c 4
 92 0 40 -6 36 -6 c 4
 29 -6 18 -2 18 16 c 4
 18 46 42 43 92 49 c 4
 125 53 121 74 124 102 c 4
 139 280 149 504 149 549 c 4
 149 562 143 568 138 574 c 4
 123 590 100 634 42 635 c 4
 35 636 22 636 22 653 c 4
 22 674 33 675 40 675 c 6
 184 675 l 6
 198 675 203 672 209 662 c 6
 398 346 l 5
 515 160 l 6
 517 156 523 148 532 148 c 4
 539 148 543 152 546 159 c 4
 817 666 816 666 817 666 c 4
 821 673 826 675 835 675 c 6
 980 675 l 6xb8
 987 675 995 674 995 653 c 4
 995 626 971 633 917 616 c 4
 901 612 893 605 893 587 c 4
 897 199 898 150 898 101 c 6
 898 94 l 6
 898 69 899 49 933 45 c 4
 977 41 997 45 997 16 c 4
 997 3 989 -6 977 -6 c 4
 972 -6 917 0 848 0 c 4
 780 0 725 -6 721 -6 c 4xd8
EndSplineSet
Fore
SplineSet
215.743 495.26 m 1
 209.527 498.022 204.461 498 204 498 c 0
 183.155 498 180.164 475.944 180.111 475.509 c 1
 175.908 401.96 174 336.293 174 265 c 0
 174 231.266 175.982 133.012 178.028 84.9095 c 1
 178.682 75.1038 173.743 52.7515 194.014 36.9856 c 1
 229.226 11.633 269 25.2457 273.423 21.0753 c 1
 273.49 20.9464 274 20.0003 274 17 c 0
 274 16.3268 273.779 14.6117 273.692 14.2134 c 1
 259.681 15.4157 212.49 20 156 20 c 0
 99.0668 20 51.2068 15.3203 38.0734 14.1933 c 1
 37.9829 15.4973 38 15.2227 38 16 c 0
 38 18.9627 38.4143 20.5236 38.5356 20.9005 c 1
 41.8226 22.9485 61.2813 25.1703 94.4066 29.1453 c 0
 143.829 35.1359 141.596 78.499 143.91 100.095 c 1
 159.025 279.461 169 502.359 169 549 c 0
 169 569.119 157.489 581.854 153.364 586.804 c 0
 152.99 587.252 l 1
 152.591 587.679 l 0
 141.576 599.428 111.369 652.984 42.5779 655 c 1
 184 655 l 0
 187.401 655 189.712 654.642 189.901 654.603 c 1
 190.506 653.842 190.995 653.136 191.836 651.734 c 0
 380.952 335.54 l 1
 498.071 149.351 l 1
 499.743 146.007 510.698 128 532 128 c 0
 549.046 128 559.972 140.829 564.383 151.122 c 0
 564.777 152.041 564.071 150.473 563.638 149.572 c 1
 759.603 516.209 814.827 620.471 827.714 644.439 c 1
 833.739 654.982 l 1
 834.739 655.003 834 655 835 655 c 0
 974.971 655 l 1
 974.992 654 975 654 975 653 c 0
 975 652.354 974.945 651.472 974.945 651.472 c 1
 969.378 648.94 944.403 645.426 911.556 635.255 c 1
 889.48 629.432 873 613.478 873 586.894 c 1
 877.005 198.668 878 149.728 878 101 c 0
 878 94 l 0
 878 69.2456 882.259 30.8315 930.926 25.1061 c 1
 956.305 22.7989 972.903 21.7816 976.677 20.4164 c 1
 976.922 18.9587 977 18.0545 977 16 c 0
 977 15.056 976.819 14.1505 976.788 14.025 c 1
 967.297 14.6238 913.558 20 848 20 c 0
 786.562 20 735.464 15.1801 722.557 14.1405 c 1
 722.176 15.4461 722 16.9903 722 18 c 0
 722 18.407 722.02 18.6266 722.02 18.6266 c 1
 724.765 20.0875 735.014 21.9319 748.708 23.0731 c 0
 782.839 25.9986 829 34.4055 829 94 c 0
 829 311 l 0
 829 382.415 828.538 463.289 824.976 477.571 c 1
 820.257 492.626 806.241 497 799 497 c 0
 777.473 497 769.342 477.776 767.95 475.457 c 1
 679.279 333.981 523.021 28.3459 508.36 9.4587 c 1
 503.161 3.52 502.243 5 502 5 c 0
 499.89 5 494.049 11.6236 484.937 29.8468 c 1
 375.991 253.789 236.545 480.969 215.743 495.26 c 1
EndSplineSet
EndChar

StartChar: N
Encoding: 78 78 47
Width: 799
GlyphClass: 2
Flags: HW
HStem: -23 21G<675 690> -6 52<188.519 290.647> -6 46<21.4455 113.656 230.63 303.774> 633 48<9.16241 90.8418 551.132 633.188 706.744 790.857>
VStem: 638 62<360.111 627.882> 647 49<172.004 504.224>
DStem2: 194 662 116 590 0.657753 -0.753234<-42.918 76.0834 189.311 648.432>
LayerCount: 2
Back
SplineSet
9 655 m 4xe0
 9 676 18 681 31 681 c 6
 154 681 l 6
 175 681 183 675 194 662 c 6
 351 480 l 5
 442 378 l 5
 623 182 631 172 638 172 c 4xe0
 644 172 645 177 645 182 c 4
 646 218 647 253 647 289 c 4xd0
 647 391 644 489 638 587 c 4
 636 630 617 631 573 636 c 4
 566 637 551 640 551 657 c 4
 551 667 558 681 580 681 c 4
 589 681 618 678 676 678 c 4
 733 678 761 681 770 681 c 4
 781 681 791 675 791 658 c 4
 791 606 700 673 700 576 c 5xe0
 698 486 696 395 696 305 c 4xd0
 696 136 700 52 700 24 c 4
 700 10 700 -23 680 -23 c 4
 670 -23 659 -13 631 19 c 6
 424 255 l 5
 222 480 206 499 202 499 c 4
 200 499 199 496 198 495 c 4
 190 378 185 262 185 140 c 6
 185 111 l 6
 185 59 188 49 230 46 c 4
 243 46 284 41 291 39 c 4
 295 37 304 34 304 13 c 4
 304 2 298 -6 287 -6 c 4
 283 -6 230 0 165 0 c 4
 99 0 47 -6 42 -6 c 4
 30 -6 21 2 21 14 c 4
 21 17 23 36 36 40 c 4
 58 47 105 39 121 72 c 4
 126 84 125 81 149 542 c 5
 149 545 l 5
 149 546 l 6
 149 555 148 561 116 590 c 4
 109 597 82 629 27 633 c 4
 17 633 9 636 9 655 c 4xe0
EndSplineSet
Fore
SplineSet
169 541.48 m 1
 169 546 l 0
 169 562.616 160.433 576.552 129.763 604.521 c 1
 123.971 610.313 90.3994 647.804 29.0511 652.907 c 1
 29.0019 653.969 29 654.176 29 655 c 0
 29 657.794 29.3397 660.291 29.4619 660.955 c 1
 30.2937 661.001 30.377 661 31 661 c 0
 154 661 l 0
 169.904 661 169.316 660.209 178.794 649.008 c 1
 335.965 466.81 l 1
 427.191 364.556 l 1
 605.552 171.417 610.443 152 638 152 c 0
 662.186 152 665 177.607 665 181.722 c 1
 665.982 217.06 667 252.816 667 289 c 0
 667 391.299 663.975 490.004 657.971 588.078 c 1
 655.356 644.33 617.039 651.124 575.544 655.84 c 1
 574.283 656.02 571.657 656.664 571 656.917 c 1
 571 657.468 568.946 661 580 661 c 0
 586.4 661 617.807 658 676 658 c 0
 733.202 658 763.656 661 770 661 c 0
 770.365 661 770.75 660.969 770.75 660.969 c 1
 770.896 660.23 771 659.373 771 658 c 0
 771 657.012 770.892 655.706 770.892 655.706 c 1
 766.158 654.711 756.255 655.008 743.238 653.922 c 1
 700.595 649.925 681.068 623.876 680.004 564.408 c 1
 678.009 479.541 676 391.266 676 305 c 0
 676 135.899 680 50.8309 680 24 c 0
 680 16.7535 679.5 5.29479 677.826 -0.927425 c 1
 671.524 4.02987 661.889 14.0705 646.036 32.1881 c 0
 438.958 268.276 l 1
 239.456 490.49 229.189 519 202 519 c 0
 185.754 519 182.437 507.722 182.437 507.722 c 1
 178.558 503.842 l 1
 178.047 496.364 l 0
 170.023 379.034 165 262.548 165 140 c 0
 165 111 l 0
 165 57.7246 175.581 29.8362 228.575 26.0508 c 0
 229.287 26 l 1
 230 26 l 0
 238.123 26 273.799 21.897 283.284 20.205 c 1
 283.496 19.3785 283.961 15.183 283.984 14.2693 c 1
 268.675 15.5782 221.467 20 165 20 c 0
 100.85 20 48.7153 14.4067 41.8115 14.0024 c 1
 41.4076 14.0171 41.2148 14.0501 41.0364 14.0767 c 1
 41.3636 16.6254 42.3988 19.9348 43.1039 21.2411 c 1
 54.3076 24.1852 116.524 16.9255 138.996 63.2745 c 0
 139.244 63.7845 l 1
 139.462 64.3077 l 0
 148.094 85.0249 144.97 79.8632 168.973 540.96 c 0
 169 541.48 l 1
EndSplineSet
EndChar

StartChar: O
Encoding: 79 79 48
Width: 778
GlyphClass: 2
Flags: HW
HStem: -24 58<292.823 500.654> 667 53<268.469 476.398>
VStem: 18 95<247.435 473.525> 661 99<215.912 458.255>
LayerCount: 2
Fore
SplineSet
740 337 m 0
 740 138.214 585.425 -4 401 -4 c 0
 308.371 -4 215.087 34.033 147.838 98.4398 c 0
 79.8287 163.615 38.9438 257.765 38 353.099 c 1
 38 544.645 196.908 700 387 700 c 0
 590.078 700 740 530.913 740 337 c 0
93 384 m 0
 93 205.765 192.183 14 397 14 c 0
 519.279 14 681 96.5468 681 319 c 0
 681 418.398 651.466 538.532 564.192 615.033 c 0
 511.396 661.363 441.798 687 371 687 c 0
 237.492 687 93 593.281 93 384 c 0
EndSplineSet
EndChar

StartChar: P
Encoding: 80 80 49
Width: 572
GlyphClass: 2
Flags: HW
HStem: -6 53<14.3235 103.74 191.169 329.729> 301 35<192.058 346.108> 635 48<22.1854 103.916> 648 45<192.498 376.489>
VStem: 104 88<48.1758 301 336.165 634.629> 476 84<428.095 566.357>
LayerCount: 2
Fore
SplineSet
496 498 m 0
 496 596.952 399.82 668 253 668 c 0
 206.096 668 172 668.686 172 633 c 0
 172 348 l 0
 172 318.601 201.226 316 229 316 c 0
 379.466 316 496 383.78 496 498 c 0
69 663 m 2
 165.462 663 236.956 673 307 673 c 0
 387.481 673 445.726 656.56 488.57 618.18 c 1
 520.359 589.04 540 546.031 540 503 c 0
 540 502.134 l 1
 539.12 436.022 498.77 386.106 448.498 359.6 c 1
 413.916 340.489 355.089 321 233 321 c 0
 203 321 l 0
 179.279 321 170 299.116 170 285 c 0
 170 82 l 0
 170 53.8728 184.624 29.816 220.812 27.0323 c 1
 272.843 24.8415 300.477 24.829 309.89 22.6934 c 1
 309.985 21.2202 310 20.5099 310 19 c 0
 310 18 l 0
 310 16.5138 309.841 14.3971 309.806 14.0837 c 1
 295.98 15.0282 240.158 20 173 20 c 0
 101.682 20 43.5427 14.5952 34.3796 14.0325 c 1
 34.1371 15.14 34 16.4623 34 18 c 0
 34 19.9668 34.143 22.5232 34.1658 22.7926 c 1
 40.554 24.173 54.9051 24.8794 78.2512 27.1242 c 1
 92.8885 29.0334 105.956 32.655 115.16 44.1892 c 0
 122.95 53.9528 124 65.1114 124 74 c 0
 124 609 l 0
 124 615.826 124.916 629.625 114.382 641.894 c 0
 106.451 651.132 94.3007 655 82 655 c 0
 46 655 l 0
 44.5449 655 42.8696 655.081 42.5138 655.112 c 1
 42.1143 657.159 42 658.269 42 661 c 0
 42 661.764 42.0537 662.625 42.0749 662.925 c 1
 43.2466 663.008 43.1931 663 44 663 c 0
 69 663 l 2
EndSplineSet
EndChar

StartChar: Q
Encoding: 81 81 50
Width: 752
GlyphClass: 2
Flags: HW
HStem: -203 49<721.771 814.451> -16 48<309.028 497.125> 675 49<275.167 480.352>
VStem: 20 97<261.525 474.605> 655 89<231.95 470.122>
LayerCount: 2
Fore
SplineSet
407 12 m 0
 554.858 12 675 137.598 675 329 c 0
 675 425.116 647.785 551.366 555.984 630.212 c 1
 506.042 672.554 441.561 695 376 695 c 0
 237.708 695 97 589.957 97 392 c 0
 97 212.035 212.974 12 407 12 c 0
456 9 m 0
 442.665 9 424.048 4 389 4 c 0
 291.705 4 201.626 45.713 140.245 108.039 c 0
 76.0532 173.175 40 263.218 40 354 c 0
 40 446.558 78.9293 540.533 145.984 605.701 c 1
 209.2 667.975 298.234 704 388 704 c 0
 466.214 704 554.174 674.607 619.958 609.758 c 0
 686.869 543.788 724 449.855 724 356 c 0
 724 225.225 651.405 99.906 550.762 31.5443 c 0
 549.196 30.4807 l 1
 548.721 30.0049 l 1
 543.288 25.0249 539 19.1181 539 10 c 0
 539 -1.50046 549.212 -9.63583 552.619 -11.85 c 1
 618.904 -58.4403 645.551 -107.766 699.867 -143.616 c 1
 724.918 -160.651 755.542 -171.509 785.437 -173.644 c 1
 771.084 -179.368 754.923 -183 740 -183 c 0
 670.875 -183 624.965 -129.682 579.142 -83.8579 c 0
 579.142 -83.8579 497.462 9 456 9 c 0
EndSplineSet
EndChar

StartChar: R
Encoding: 82 82 51
Width: 696
GlyphClass: 2
Flags: HW
HStem: -13 62<594.041 660.287> -6 55<24.5925 112.643 202.643 317.523> 330 36<202.309 305.766> 640 35<14.0265 102.122> 648 39<200.592 346.517>
VStem: 113 89<49.7219 330 366.549 627.863> 438 78<431.776 566.374>
DStem2: 399 338 398 202 0.585268 -0.81084<-4.33804 371.1>
LayerCount: 2
Fore
SplineSet
177.5 618.5 m 2
 178 384 l 0
 178 378.077 178.093 368.614 185.298 359.879 c 0
 201.423 340.329 225.73 346 264 346 c 0
 301.047 346 331.976 349.074 363.409 361.423 c 1
 410.861 380.629 458 425.945 458 496 c 0
 458 588.908 373.176 668 263 668 c 0
 247.48 668 211.989 668.571 190.448 653.653 c 1
 177.09 644.015 177.5 626.141 177.5 618.5 c 2
283 667 m 0
 453.442 667 496 572.078 496 513 c 0
 496 425.493 417.252 373.977 395.054 365.755 c 0
 394.031 365.376 l 1
 393.056 364.889 l 0
 393.056 364.889 377 362.268 377 342 c 0
 377 331.858 383.412 325.37 385.611 322.878 c 1
 505.231 182.594 527.382 117.047 568.833 67.9623 c 1
 583.929 50.7099 606.737 29 638 29 c 0
 643.691 29 652.169 30.6332 654.4 31.2732 c 1
 642.23 17.5304 625.912 7 604 7 c 0
 564.668 7 526.859 54.824 514.182 71.757 c 1
 414.3 213.589 l 1
 327.959 333.885 329.545 334.469 317.967 342.067 c 1
 304.855 351.412 295.376 350 289 350 c 0
 216 350 l 0
 199.346 350 182 336.438 182 315 c 0
 182 81 l 0
 182 68.1016 185.942 33.9034 225.916 29.1066 c 1
 270.624 25.1029 293.837 23.3294 298.549 20.788 c 1
 298.753 20.0177 299 18.5664 299 16 c 0
 299 15.172 298.889 14.2489 298.857 14.0317 c 1
 289.144 14.7153 235.044 20 170 20 c 0
 108.881 20 57.8219 15.3065 44.575 14.2228 c 1
 44.1727 16.3014 44.0226 18.7957 43.9997 20.7175 c 1
 50.9344 22.3781 65.1051 23.1076 88.1074 25.1078 c 1
 101.682 26.8046 113.398 30.9058 121.961 40.8041 c 0
 132.937 53.4934 133 68.3992 133 80 c 0
 133 597 l 0
 133 607.968 131.708 619.761 123.966 630.042 c 0
 109.94 648.666 87.3 650.359 60.1211 655 c 1
 62 655 l 0
 152.867 655 219.547 667 283 667 c 0
EndSplineSet
EndChar

StartChar: S
Encoding: 83 83 52
Width: 492
GlyphClass: 2
Flags: HW
HStem: -17 56<173.564 329.398> 635 50<138.512 269.954>
VStem: 32 72<479.18 595.956> 48 50<112.089 247.636> 398 73<105.026 250.11>
LayerCount: 2
Fore
SplineSet
52 516 m 0
 52 593.687 116.638 665 211 665 c 0
 289.322 665 304.252 625 340 625 c 0
 368.29 625 376.189 657.257 377.536 659.394 c 1
 376.33 645.666 374 622.02 374 583 c 0
 374 543.166 376.712 517.851 377.629 507.4 c 1
 373.905 508.761 375.665 535.322 325.969 592.265 c 1
 296.549 624.953 253.128 655 201 655 c 0
 134.415 655 84 604.129 84 541 c 0
 84 496.367 108.434 458.521 143.357 433.738 c 1
 203.933 389.99 279.003 391.136 337.156 366.602 c 1
 403.022 338.244 451 280.207 451 198 c 0
 451 90.1942 364.259 3 252 3 c 0
 199.007 3 147.101 23.5852 113.248 52.9844 c 1
 102.941 62.2605 88.9285 72 69 72 c 0
 57.6085 72 49.8211 69.6762 45.8379 69.1677 c 1
 49.2256 86.6361 60.4829 130.997 67.9286 225.308 c 1
 68.0068 226.167 68.2916 227.899 68.2972 227.926 c 1
 68.7515 227.97 69.3112 228 70 228 c 0
 70.6912 228 71.448 227.977 71.815 227.965 c 1
 73.4999 222.795 75.5421 208.852 78.1213 187.789 c 1
 84.4232 124.769 79.6457 130.806 107.943 93.0759 c 1
 135.846 55.1285 186.415 19 253 19 c 0
 342.135 19 418 88.0742 418 178 c 0
 418 228.844 392.436 274.8 351.73 304.199 c 0
 287.435 350.758 220.071 347.728 158.373 372.592 c 1
 83.423 401.841 52 458.994 52 516 c 0
EndSplineSet
EndChar

StartChar: T
Encoding: 84 84 53
Width: 692
GlyphClass: 2
Flags: HW
HStem: -6 53<202.22 307.561 402.04 510.545> 622 66<95.0021 308.605 402.112 608.482>
VStem: 309 93<49.375 621.698>
LayerCount: 2
Fore
SplineSet
491.002 14.2173 m 1
 474.787 15.4341 422.327 20 358 20 c 0
 290.483 20 232.942 14.7816 222.464 14.0496 c 1
 222.095 16.1288 222 17.4878 222 20 c 0
 222 20.6596 222.025 21.6984 222.025 21.6984 c 1
 230.447 23.4578 248.047 24.2984 276.99 27.0993 c 0
 317.486 31.1489 329 59.226 329 84 c 0
 329 591 l 0
 329 598.912 329.945 614.567 318.112 627.939 c 0
 309.4 637.784 296.186 642 282 642 c 0
 133 642 l 0
 117.416 642 104.612 640.604 93.637 632.694 c 0
 84.3247 625.982 80.25 617.221 77.1557 611.032 c 0
 50.2004 557.779 38.9447 533.875 34.7626 529.014 c 1
 34.3944 529.001 34.3098 529 34 529 c 0
 34 529 32 528.224 32 534 c 0
 32 535 l 0
 32 535 32.7436 540.696 60.375 667.975 c 1
 60.9204 667.994 61.3841 668 62 668 c 0
 644.178 668 l 1
 644.769 665.142 644.772 664.954 645.295 661.554 c 1
 664.447 563.892 668.82 539.879 669 536.886 c 1
 668.985 536.451 668.976 536.42 668.976 536.42 c 1
 667.187 538.803 666.24 540.641 664.352 543.946 c 0
 620.319 620.775 613.973 642 571 642 c 0
 424 642 l 0
 411.969 642 399.945 638.314 391.959 629.217 c 0
 380.959 616.686 382 602.37 382 595 c 0
 382 71 l 0
 382 63.0536 382.65 53.047 389.65 43.9512 c 0
 407.606 20.619 438.461 26.8141 490.865 22.1112 c 1
 490.937 21.2499 490.988 17.0983 491.002 14.2173 c 1
EndSplineSet
EndChar

StartChar: U
Encoding: 85 85 54
Width: 756
GlyphClass: 2
Flags: HW
HStem: -15 57<289.866 527.494> 641 48<17.1222 85.4336 179.027 269.862>
VStem: 86 90<149.926 634.586> 618 56<128.982 634.348>
LayerCount: 2
Fore
SplineSet
722 663.045 m 1
 702.488 659.194 655.688 654.246 654.991 572.041 c 1
 654.878 570.866 654 567.688 654 562 c 0
 654 335 l 0
 654 318.144 655 303.144 655 288 c 0
 655 256 l 0
 655 187.249 648.401 102.004 574.598 50.4318 c 0
 530.143 19.5854 470.52 5 397 5 c 0
 167.87 5 127.675 127.564 117.175 161.689 c 1
 106.151 200.273 105 237.271 105 284 c 0
 105 308.474 106 334.478 106 360 c 0
 106 612 l 0
 106 623.953 103.473 636.02 94.916 645.167 c 0
 79.9233 661.194 60.1251 659.272 46.3906 660.857 c 1
 42.1799 661.383 37.5869 663.09 37.1494 663.442 c 1
 37.0584 663.84 37 664.161 37 665 c 0
 37 666.083 37.4225 668.373 37.637 668.997 c 1
 47.5434 668.894 78.1066 666.981 137.836 666 c 1
 144 666 l 0
 205.265 666 238.963 668.731 249.613 668.983 c 1
 249.885 667.196 250 665.492 250 663 c 0
 250 662.51 249.975 661.778 249.969 661.634 c 1
 243.712 660.201 226.97 659.989 205.185 656.801 c 1
 164.687 651.214 156 620.058 156 602 c 0
 156 289 l 0
 156 218.182 159.494 139.511 223.56 82.1881 c 1
 279.702 30.5374 360.527 22 417 22 c 0
 454.617 22 571.036 24.6172 618.04 124.365 c 1
 638.478 166.379 639 214.652 639 244 c 0
 639 258 l 0
 639 279.648 638 299.648 638 320 c 0
 638 592 l 0
 638 655.107 596.574 660.165 552.986 664.902 c 1
 551.039 665.079 549.613 665.312 549.057 665.419 c 1
 548.989 666.498 549 666.324 549 667 c 0
 549 668.073 549.081 668.982 549.081 668.982 c 1
 557.882 668.724 585.574 666 636 666 c 0
 684.719 666 711.909 668.508 721.902 668.946 c 1
 722.007 666.799 721.999 665.286 722 663.045 c 1
EndSplineSet
EndChar

StartChar: V
Encoding: 86 86 55
Width: 830
GlyphClass: 2
Flags: HW
HStem: -20 21G<418 433.5> 632 57<22.8225 78.1183> 639 50<198.317 280.264 575.138 660.312>
VStem: 16 182<609 673> 662 161<603 670.5>
LayerCount: 2
Fore
SplineSet
45 669 m 0
 53.7917 669 89.8326 666 157 666 c 0
 216.951 666 250.761 668.641 260.992 668.961 c 1
 260.951 667.128 260.851 666.172 260.791 665.637 c 1
 255.558 663.826 242.006 661.86 222.329 658.826 c 1
 211.501 657.517 178 649.644 178 613 c 0
 178 598.907 184.273 587.747 185.922 584.435 c 1
 291.916 348.23 408.354 146.224 420.948 131.83 c 0
 421.387 131.329 l 1
 421.858 130.858 l 0
 426.045 126.67 433.936 121 445 121 c 0
 465.264 121 473.239 138.779 473.714 139.705 c 1
 550.73 279.651 617.228 423.646 674.864 578.346 c 1
 676.313 582.693 682 592.568 682 607 c 0
 682 636.354 659.926 651.44 646.549 655.899 c 1
 624.044 664.001 600.078 660.42 595.114 661.924 c 1
 595.022 662.739 595 663.13 595 664 c 0
 595 666.232 595.416 668.107 595.699 668.924 c 1
 596.415 669.003 596.416 669 597 669 c 0
 604.595 669 637.789 666 699 666 c 0
 761.192 666 793.445 669 801 669 c 0
 801.62 669 802.309 668.945 802.309 668.945 c 1
 802.75 667.187 803 665.275 803 662 c 0
 802.99 661.362 l 1
 795.435 658.754 759.376 659.331 732.318 630.582 c 1
 693.478 587.858 647.43 403.549 433.63 9.92281 c 1
 428.99 2.18939 426.349 0 426 0 c 0
 424.065 0 421.916 2.3465 417.256 10.1124 c 1
 96.5989 570.509 117.605 617.253 73.3059 648.506 c 1
 57.7311 659.477 41.4543 663.638 36.9409 667.978 c 1
 38.7443 668.555 40.9712 669 45 669 c 0
EndSplineSet
EndChar

StartChar: W
Encoding: 87 87 56
Width: 1002
GlyphClass: 2
Flags: HW
HStem: -22 21G<314 326.5 636 654.5> 644 45<302.026 383.24 474.172 547.97 764.009 849.396>
VStem: 850 150<605 675>
LayerCount: 2
Fore
SplineSet
38 669 m 0
 44.3996 669 75.8065 666 134 666 c 0
 185.595 666 215.859 668.544 225.887 668.948 c 1
 226.021 666.734 226 665.946 226 664 c 1
 220.444 662.956 182.344 671.116 161.451 645.579 c 1
 153.483 635.62 152 626.608 152 620 c 0
 152 612.687 153.622 606.066 156.447 599.349 c 1
 213.463 420.376 230.492 376.398 312.273 156.978 c 0
 314.724 150.443 321.122 126 346 126 c 0
 380.714 126 376.706 149.027 471.595 388.636 c 0
 472.082 389.866 l 1
 472.403 391.149 l 0
 473.392 395.106 475 400.674 475 408 c 0
 475 409 l 0
 475 425.751 472.85 424.672 407.923 612.474 c 0
 402.787 627.488 400.264 640.565 387.559 651.176 c 0
 370.805 665.167 351.67 662.414 322.051 663.872 c 1
 321.998 665.062 322 665.152 322 666 c 0
 322 667.436 322.221 668.435 322.289 668.697 c 1
 322.822 668.847 323.639 669 325 669 c 0
 332.598 669 365.803 666 428 666 c 0
 429 666 l 0
 484.294 666 516.549 668.474 527.969 668.925 c 1
 528.007 667.526 527.997 667.643 528.003 667.123 c 1
 523.304 666.171 514.644 665.316 502.519 663.846 c 0
 491.457 662.463 473.279 660.564 461.612 644.329 c 0
 456.406 637.085 454 628.073 454 619 c 0
 454 611.594 455.512 606.459 456.388 602.078 c 0
 456.63 600.871 l 1
 457.017 599.702 l 0
 527.814 386.297 621.658 156.391 639.893 131.143 c 1
 642.216 128.045 649.659 114 668 114 c 0
 669 114 l 0
 695.564 114 702.22 140.742 703.571 144.486 c 1
 803.872 356.629 870 584.07 870 616 c 0
 870 624.498 868.073 633.579 862.526 641.19 c 0
 845.325 664.796 814.469 660.592 786.258 663.872 c 1
 785.305 663.978 784.652 664.089 784.063 664.184 c 1
 784.002 665.519 784 665.91 784 667 c 0
 784 667.828 784.043 668.959 784.043 668.959 c 1
 795.251 668.589 826.403 666 883 666 c 0
 884 666 l 0
 937.333 666 968.595 668.461 979.901 668.921 c 1
 979.996 667.471 980 667.175 980 666 c 0
 980 665.291 979.933 664.357 979.93 664.32 c 1
 973.068 662.326 929.843 666.493 909.441 629.576 c 1
 898.715 609.656 832.341 383.428 668.818 34.3338 c 1
 654.425 2.22608 646.186 -2 646 -2 c 0
 644.733 -2 633.335 8.56166 622.713 38.0663 c 1
 507.758 328.82 513.245 354 481 354 c 0
 463.057 354 459.111 338.944 459.111 338.944 c 0
 458.686 338.094 l 1
 458.344 337.208 l 0
 356.523 73.6812 333.502 10.6856 326.605 -0.386436 c 1
 326.288 -0.531763 325.95 -0.686301 325.542 -0.876338 c 0
 324.253 -1.47823 l 1
 319.689 2.67468 312.86 22.3817 304.43 41.7697 c 1
 168.624 374.306 103.837 604.108 94.572 628.429 c 1
 78.045 667.839 33.1276 660.117 33.1276 660.117 c 1
 33.0502 660.358 33 660.551 33 661 c 0
 33 668.306 34.2192 669 38 669 c 0
EndSplineSet
EndChar

StartChar: X
Encoding: 88 88 57
Width: 665
GlyphClass: 2
Flags: HW
HStem: -6 48<5.24261 91.0269 167.505 255.734 365.283 446.731 562.391 657.668> 641 48<18.2314 104.749 392.766 472.357>
VStem: 5 162<8.5 74> 285 89<326.776 370.875> 473 185<597 676.5>
LayerCount: 2
Fore
SplineSet
335.532 295.047 m 0
 332.455 300.124 325.026 308 315 308 c 0
 288.293 308 291.512 293.56 161.648 106.516 c 1
 156.749 99.6584 147 86.9163 147 69 c 0
 147 61.2193 148.685 52.6471 153.847 45.288 c 0
 169.594 22.8382 198.219 25.4128 226.19 22.1923 c 1
 232.008 21.2087 235.02 20.0504 235.558 19.7189 c 1
 235.757 19.1095 236 18.1676 236 16 c 0
 236 15.4191 235.961 14.7374 235.923 14.2456 c 1
 222.47 15.5537 179.653 20 129 20 c 0
 80.4408 20 40.1313 15.9829 25.0086 14.5043 c 1
 25.061 18.1137 25.2493 19.9889 25.4431 21.4155 c 1
 30.764 23.0738 40.8007 24.4571 57.4947 27.3073 c 1
 103.615 35.8031 116.043 58.8512 154.28 112.383 c 0
 300.299 317.006 305 311.335 305 333 c 0
 305 354.829 298.596 353.183 142.902 601.693 c 0
 109.678 654.209 86.508 656.948 44.7794 660.921 c 1
 41.2006 661.219 39.0758 661.886 38.6027 662.097 c 1
 38.2937 663.03 38 664.249 38 667 c 0
 38 667.751 38.0487 668.501 38.089 669 c 1
 47.6874 668.957 84.3435 666 153 666 c 0
 156 666 l 2
 221.101 666 256.145 668.745 266.502 668.98 c 1
 266.786 666.681 266.917 664.092 266.94 663.495 c 1
 259.007 661.917 225.371 667.763 206.161 644.52 c 0
 199.887 636.93 197 627.001 197 617 c 0
 197 596.228 209.967 580.344 211.111 578.056 c 0
 211.481 577.316 l 1
 211.91 576.61 l 0
 273.504 475.296 299.846 431.504 312.31 411.899 c 0
 318.932 401.483 324.252 388 341 388 c 0
 350.946 388 358.311 395.027 359.142 395.858 c 0
 360.338 397.054 l 1
 361.316 398.434 l 0
 471.703 554.157 493 570.927 493 611 c 0
 493 663.088 442.234 661.428 419.248 662.961 c 0
 415.739 663.18 413.574 663.795 413.012 664.011 c 1
 412.774 664.628 412.235 667.174 412.104 668.901 c 1
 427.015 668.338 461.85 666 523 666 c 0
 589.104 666 625.393 668.656 637.967 668.973 c 1
 637.743 664.092 637.224 662.796 636.881 661.874 c 1
 631.991 660.074 589.497 667.415 554.175 641.13 c 1
 530.399 623.958 495.526 574.937 487.127 561.737 c 1
 360.301 381.831 354 384.643 354 363 c 0
 354 341.021 359.51 344.65 529.11 76.2892 c 0
 557.179 32.0248 574.988 28.8373 629.4 23.1634 c 1
 638.964 21.5973 638 23.2005 638 15 c 1
 623.427 16.1976 572.874 20 512 20 c 0
 449.467 20 396.678 14.9984 385.027 14.0968 c 1
 385.001 14.572 385 14.6489 385 15 c 0
 385 17.0485 385.165 18.5426 385.284 19.3205 c 1
 389.868 21.2074 404.054 23.0303 427.882 26.2072 c 1
 442.159 28.4616 453.928 34.4596 460.808 45.1425 c 0
 466.209 53.529 467 62.1072 467 68 c 0
 467 70 l 0
 467 94.8367 460.064 96.4146 335.532 295.047 c 0
EndSplineSet
EndChar

StartChar: Y
Encoding: 89 89 58
Width: 667
GlyphClass: 2
Flags: HW
HStem: -6 51<166.486 272.828 358.093 489.951> 642 47<182.316 272.83 429.389 520.835>
VStem: 273 85<49.9095 315.178> 521 138<610 673>
DStem2: 346 353 462 427 0.61277 0.790262<-9.49858 313.684>
LayerCount: 2
Back
SplineSet
490 21 m 6
 490 13 l 6
 490 4 487 -6 474 -6 c 4
 469 -6 408 0 333 0 c 4
 256 0 195 -6 191 -6 c 4
 179 -6 166 0 166 22 c 4
 166 49 178 44 244 48 c 4
 258 49 273 48 273 70 c 6
 273 277 l 6
 273 301 267 307 252 332 c 4
 68 627 73 620 68 627 c 4
 49 651 26 632 15 653 c 4
 13 656 11 661 11 667 c 4
 11 676 16 689 36 689 c 4
 47 689 80 686 146 686 c 4
 212 686 244 689 255 689 c 4
 270 689 273 679 273 669 c 4
 273 639 259 643 208 639 c 4
 200 638 182 636 182 616 c 6
 182 614 l 6
 182 604 186 600 324 361 c 4
 330 351 332 347 338 347 c 4
 343 347 345 352 346 353 c 4
 495 558 521 589 521 617 c 4
 521 666 429 618 429 669 c 4
 429 677 434 689 450 689 c 4
 459 689 486 686 539 686 c 6
 542 686 l 5
 596 687 622 689 631 689 c 4
 652 689 659 677 659 669 c 4
 659 648 631 645 607 614 c 6
 462 427 l 5
 359 287 358 296 358 265 c 6
 358 70 l 6
 358 46 371 50 468 45 c 4
 486 44 490 35 490 21 c 6
EndSplineSet
Fore
SplineSet
475.021 661.975 m 0
 459.904 662.605 450.606 664.622 449.413 665.362 c 1
 449.284 665.746 449.044 666.888 448.994 668.952 c 1
 449.643 669.007 449.559 669 450 669 c 0
 456.27 669 485.74 666 539 666 c 0
 542.186 666 l 1
 596.674 667.008 623.794 669 631 669 c 0
 634.943 669 637.256 668.275 638.202 667.91 c 1
 633.886 663.274 611.019 651.861 591.195 626.255 c 0
 446.04 439.056 l 1
 345.242 302.053 338 305.12 338 265 c 0
 338 70 l 0
 338 63.3262 338.462 54.2766 344.719 45.714 c 0
 363.176 20.4586 397.617 28.6015 466.891 25.0308 c 0
 468.138 24.9615 469.361 24.7899 469.824 24.7175 c 1
 469.977 23.2036 470 22.5497 470 21 c 0
 470 14.2797 l 1
 451.544 15.6327 397.937 20 333 20 c 0
 258.591 20 197.991 14.4309 190.733 14.0022 c 1
 188.002 14.0576 187.336 14.6546 187.336 14.6546 c 1
 187.336 14.6546 186 15.2545 186 22 c 0
 186 22.9042 186.032 23.9877 186.049 24.4113 c 1
 195.033 26.0119 213.909 26.1396 245.317 28.0431 c 1
 251.76 28.5033 267.583 26.3787 281.205 39.0534 c 0
 289.81 47.0595 293 58.6384 293 70 c 0
 293 277 l 0
 293 305.875 282.974 319.249 269.061 342.438 c 1
 84.6977 638.013 90.6108 629.754 84.2747 638.625 c 0
 83.9874 639.027 l 1
 83.6809 639.414 l 0
 64.1148 664.129 33.8413 661.736 32.8836 661.977 c 1
 32.3856 662.844 33.1806 661.394 32.7166 662.28 c 0
 32.2267 663.215 l 1
 31.6657 664.057 l 1
 31.5048 664.345 31 665.67 31 667 c 0
 31 667.454 31.1161 668.055 31.1929 668.299 c 1
 31.5582 668.469 32.8889 669 36 669 c 0
 44.757 669 79.8183 666 146 666 c 0
 208.011 666 241.672 668.641 253.003 668.968 c 1
 252.965 665.059 252.801 664.044 252.651 663.029 c 1
 246.442 661.409 230.831 660.852 206.436 658.939 c 0
 205.976 658.903 l 1
 205.519 658.846 l 0
 200.822 658.258 183.216 657.764 170.863 642.566 c 0
 165.128 635.51 162 626.005 162 616 c 0
 162 614 l 0
 162 590.296 169.085 589.299 306.764 350.854 c 1
 310.805 344.118 318.326 327 338 327 c 0
 354.57 327 361.651 340.513 361.651 340.513 c 1
 362.197 341.267 l 0
 454.337 468.465 498.742 527.43 521.196 563.781 c 1
 529.408 578.152 541 595.103 541 616 c 0
 541 625.963 539.184 636.862 531.573 645.708 c 0
 516.37 663.38 494.587 660.789 475.021 661.975 c 0
EndSplineSet
EndChar

StartChar: Z
Encoding: 90 90 59
Width: 629
GlyphClass: 2
Flags: HW
HStem: 0 81<188.196 522.299> 600 75<76.6612 459.999> 706 20G<40.5 53>
VStem: 16 41<486.018 580.65> 24 47<681.217 725.616> 577 43<149.472 255.763>
LayerCount: 2
Fore
SplineSet
36 511 m 0
 36 521.641 44 570.625 44 661 c 0
 44 698 l 0
 44 703.242 45.1 705.634 45.2833 705.994 c 1
 45.5332 705.971 47.8549 704.893 52.3203 694.789 c 1
 62.2652 666.033 95.1936 655 126 655 c 0
 562 655 l 0
 562.824 655 564.121 654.929 564.282 654.92 c 1
 557.271 643.74 535.236 615.538 480.22 543.29 c 1
 335.477 361.612 l 1
 277.8 292.004 219.233 217.771 173.904 137.401 c 1
 170.206 131.505 166 123.84 166 112 c 0
 166 65.269 218.578 68.3359 284.752 64.0389 c 0
 317.192 62.0115 350.596 61 384 61 c 0
 405 61 l 0
 476.027 61 541.015 62.4517 571.448 134.275 c 1
 584.522 165.872 590.003 221.722 594.372 235.588 c 1
 594.753 235.835 595.137 235.961 595.737 235.994 c 1
 597.113 235.612 600 234.923 600 228 c 0
 600 227 l 0
 600 187.523 593.418 169.696 588.115 125.15 c 1
 580.022 41.8864 583.234 22.6946 567.607 20 c 1
 44 20 l 0
 41.7097 20 37.8348 20.441 35.9988 21.0657 c 1
 36.048 22.0985 36.3995 23.4837 39.6174 27.5061 c 0
 39.9901 27.972 l 1
 40.3344 28.4594 l 0
 169.92 211.873 311.23 388.027 460.948 553.712 c 1
 474.26 568.926 480 578.712 480 589 c 0
 480 600.818 469.382 620 446 620 c 0
 123 620 l 0
 59.7108 620 56.2516 585.607 37.6119 512.91 c 1
 37.1441 511.038 36.4534 508.757 36.2033 508.062 c 1
 36.0154 509.481 36 509.811 36 511 c 0
EndSplineSet
EndChar

StartChar: bracketleft
Encoding: 91 91 60
Width: 378
GlyphClass: 2
Flags: HW
HStem: -185 25<131.75 150.983> 223 77<25.5738 74.811> 233 60<52.6504 78.9392>
VStem: 23 102<233.178 292.875> 80 45<-159.999 232.998 293.002 678.999> 192 42<-138.954 654.033>
LayerCount: 2
Fore
SplineSet
143.052 693.869 m 0
 138.916 696.35 132.415 699 128 699 c 0
 107.506 699 105 678.12 105 674 c 0
 105 -155 l 2
 105 -162.084 111.632 -180 129 -180 c 0
 156.925 -180 152.528 -162.545 190.967 -156.779 c 0
 191.918 -156.636 l 1
 192.851 -156.403 l 0
 208.154 -152.577 212 -134.156 212 -131 c 0
 212 649 l 0
 212 685.193 160.725 683.3 143.052 693.869 c 0
104 724 m 0
 106.066 724 140.314 688 222 688 c 0
 262.938 688 298.225 698.445 320.541 706.659 c 1
 302.876 690.396 274.036 673.503 238.855 673 c 1
 222.663 673 213 655.244 213 645.974 c 0
 214 -127 l 0
 214 -169.032 264.293 -156.94 296.508 -176.031 c 1
 299.337 -177.841 303.493 -180.726 306.53 -182.944 c 1
 281.491 -173.375 250.722 -165 211 -165 c 0
 153.73 -165 115.343 -182.101 100 -188.107 c 1
 100 226 l 0
 100 229.013 98.702 253 76 253 c 0
 47.5703 253 59.1515 243 52 243 c 0
 47.9363 243 43 246.459 43 264 c 0
 43 282.197 48.8981 280 52 280 c 0
 59.683 280 52.1092 273 75 273 c 0
 97.702 273 99 296.987 99 300 c 0
 99 710 l 0
 99 717.021 100.679 722.943 101.171 723.653 c 1
 101.54 723.783 102.256 724 104 724 c 0
EndSplineSet
EndChar

StartChar: backslash
Encoding: 92 92 61
Width: 235
GlyphClass: 2
Flags: HW
HStem: -226 21G<196.5 204>
VStem: 3 229
LayerCount: 2
Fore
SplineSet
211.648 -198.329 m 1
 204.436 -205.546 201.502 -205.919 201.502 -205.919 c 1
 201.405 -205.897 209.643 -210.815 209.536 -210.71 c 1
 65.9534 409.154 30.4051 562.454 23.8867 593.13 c 1
 25.8662 594.49 28.9513 596.012 29.9203 596.425 c 1
 117.49 160.116 203.544 -153.873 211.718 -198.819 c 1
 212.166 -201.465 211.648 -198.329 211.648 -198.329 c 1
EndSplineSet
EndChar

StartChar: bracketright
Encoding: 93 93 62
Width: 378
GlyphClass: 2
Flags: HW
HStem: -185 25<227.017 246.25> 223 77<303.189 352.426> 233 60<299.061 325.35>
VStem: 144 42<-138.954 654.033> 253 102<233.178 292.875> 253 45<-159.999 232.998 293.002 678.999>
LayerCount: 2
Fore
SplineSet
234.948 693.869 m 0
 216.604 682.899 166 685.087 166 649 c 0
 166 -131 l 0
 166 -134.156 169.846 -152.577 185.149 -156.403 c 0
 186.082 -156.636 l 1
 187.033 -156.779 l 0
 225.26 -162.513 221.346 -180 249 -180 c 0
 266.368 -180 273 -162.084 273 -155 c 2
 273 674 l 0
 273 678.12 270.494 699 250 699 c 0
 245.585 699 239.084 696.35 234.948 693.869 c 0
274 724 m 0
 275.9 724 276.702 723.698 276.829 723.653 c 1
 277.547 722.617 279 716.755 279 710 c 0
 279 300 l 0
 279 296.987 280.298 273 303 273 c 0
 325.891 273 318.317 280 326 280 c 0
 329.102 280 335 282.197 335 264 c 0
 335 246.524 329.978 243 326 243 c 0
 318.848 243 330.43 253 302 253 c 0
 279.298 253 278 229.013 278 226 c 0
 278 -188 l 1
 262.782 -182.085 224.176 -165 167 -165 c 0
 127.203 -165 94.3871 -174.186 71.4702 -182.944 c 1
 76.2964 -179.42 78.3913 -178.015 81.4918 -176.031 c 1
 113.698 -156.946 164 -169.008 164 -127.026 c 0
 165 646 l 0
 165 655.223 155.337 673 139.145 673 c 1
 103.71 673.506 74.0472 691.387 57.459 706.659 c 1
 81.7225 697.729 115.192 688 156 688 c 0
 237.688 688 271.933 724 274 724 c 0
EndSplineSet
EndChar

StartChar: asciicircum
Encoding: 94 94 63
Width: 423
GlyphClass: 2
Flags: HW
HStem: 606 110<188.927 234.747>
VStem: 51 322<472 492>
LayerCount: 2
Fore
SplineSet
73 482 m 0
 71.3016 482 71 482.321 71 484 c 0
 71 485.382 72.2287 488.842 75.1849 493.769 c 1
 190.25 688.575 190.754 689.502 201.822 694.585 c 1
 204.819 695.704 206.74 696 209 696 c 0
 218.623 696 229.457 682.668 242.519 663.669 c 0
 243.086 662.845 242.571 663.59 242.024 664.426 c 1
 352.178 487.572 353 485.48 353 483 c 0
 353 481.133 352.739 480 349 480 c 0
 343.035 480 330.619 493.577 314.841 514.21 c 1
 238.733 612.204 238.339 626 212 626 c 0
 210.755 626 l 1
 209.519 625.846 l 0
 187.722 623.121 189.37 616.793 104.626 512.793 c 1
 84.8151 489.486 78.0765 482 73 482 c 0
EndSplineSet
EndChar

StartChar: underscore
Encoding: 95 95 64
Width: 527
GlyphClass: 2
Flags: HW
HStem: -76 55<27.0354 500.941>
LayerCount: 2
Fore
SplineSet
47 -50 m 2
 47 -46 l 0
 47 -44.2245 47.0748 -41.6676 47.1077 -41 c 1
 480.818 -41 l 1
 481.003 -43.5783 481 -44.1018 481 -46 c 0
 481 -48 l 0
 481 -50.9566 480.938 -54.4854 480.86 -56 c 1
 47.0734 -56 l 1
 46.9913 -53.6632 47 -52.2727 47 -50 c 2
EndSplineSet
EndChar

StartChar: grave
Encoding: 96 96 65
Width: 227
GlyphClass: 2
Flags: HW
HStem: 474 227
VStem: 8 198
LayerCount: 2
Fore
SplineSet
28 664 m 0
 28 674.135 36.1311 681 45 681 c 0
 46 681 l 0
 60.2803 681 74.0084 664.002 84.2837 648.018 c 1
 167.007 524.761 184.888 498.138 185.986 494.723 c 1
 185.992 494.597 185.999 494.278 186 494.078 c 1
 185.991 494.045 185.984 494.025 185.977 494.004 c 1
 177.207 500.421 146.926 531.934 47.1927 633.092 c 1
 38.8204 641.464 28 652.828 28 664 c 0
EndSplineSet
EndChar

StartChar: a
Encoding: 97 97 66
Width: 423
GlyphClass: 2
Flags: HW
HStem: -12 59<333.638 390.033> 193 37<161.154 258.94> 387 47<123.78 229.046>
VStem: 33 74<48.7656 154.201> 260 70<76.3281 192.996 230.096 353.167>
LayerCount: 2
Fore
SplineSet
271.721 50 m 1
 244.228 50 246.369 36.5172 228.913 24.6469 c 1
 209.021 11.6739 179.217 0 147 0 c 0
 89.0723 0 53 41.3514 53 92 c 0
 53 93 l 0
 53 124.595 67.9927 150.944 87.4585 166.354 c 0
 135.222 204.388 243.812 206.727 258.27 211.322 c 1
 277.233 218.116 279 236.747 279 244 c 0
 279 280 l 0
 279 313.472 274.67 344.858 249.897 373.348 c 1
 235.117 389.36 210.609 407 177 407 c 0
 110.001 407 79.3269 341.941 73.9354 330.693 c 1
 73.0007 329.695 73.0084 329 69 329 c 0
 57.3617 329 49 336.471 49 345 c 0
 49 360.645 103.661 414 183 414 c 0
 220.332 414 299.897 402.398 308.084 322.155 c 1
 309.049 310.581 310 298.768 310 288 c 0
 310 91 l 0
 310 39.8264 346.805 27 364 27 c 0
 369.912 27 377.816 28.6018 381.017 29.6015 c 1
 370.214 16.1425 357.556 8 340 8 c 0
 301.349 8 299.168 36.2769 277.944 46.8885 c 0
 271.721 50 l 1
171 15 m 0
 229.798 15 263.35 54.6812 270.275 64.3752 c 0
 278.547 75.9567 280 88.7339 280 99 c 0
 280 164 l 0
 280 181.534 279.337 213 250 213 c 0
 229.981 213 158.67 209.336 117.625 171.881 c 1
 100.338 156.882 87 133.803 87 103 c 0
 87 84.0375 91.8994 53.0126 114.656 33.1009 c 1
 132.737 16.5261 156.671 15 171 15 c 0
EndSplineSet
EndChar

StartChar: b
Encoding: 98 98 67
Width: 486
GlyphClass: 2
Flags: HW
HStem: -19 41<151.529 329.336> 377 53<183.706 323.906> 693 20G<129 134>
VStem: 69 69<2.73671 330.126> 72 70<65.0945 353.728 389.001 621.937> 414 63<104.331 284.133>
LayerCount: 2
Fore
SplineSet
34.8238 654.549 m 1
 87.7658 675.533 113.572 685.854 124.998 690.208 c 1
 124.9 626.94 122 425.109 122 395 c 0
 122 383.176 132.639 369 146 369 c 0
 178.579 369 198.341 410 282 410 c 0
 386.533 410 457 332.713 457 209 c 0
 457 149.486 436.791 57.4944 336.88 19.6898 c 0
 298.47 5.05722 251.939 1 232 1 c 0
 189.995 1 175.252 20 135 20 c 0
 111.778 20 96.064 8.4903 89.1837 3.00039 c 1
 89.0083 5.79634 89 6.79559 89 9 c 0
 89 125.814 92 476.814 92 594 c 0
 92 600.933 91.2888 608.353 87.5747 615.632 c 0
 83.1597 624.284 76.8924 628.775 70.7808 632.85 c 1
 51.2811 644.815 43.1886 649.304 34.8238 654.549 c 1
434 192 m 0
 434 314.147 344.687 397 247 397 c 0
 202.397 397 119 374.655 119 328 c 0
 119 72.9842 l 1
 118.738 71.6521 118 69.7433 118 65 c 0
 118 57.6115 118.287 48.2537 124.035 38.883 c 0
 128.894 30.9603 136.468 25.8049 144.353 22.5197 c 0
 175.457 9.64905 209.067 2 244 2 c 0
 356.47 2 434 80.6531 434 192 c 0
EndSplineSet
EndChar

StartChar: c
Encoding: 99 99 68
Width: 381
GlyphClass: 2
Flags: HW
HStem: -18 64<167.358 299.435> 376 52<142.345 251.426>
VStem: 17 66<134.62 305.205>
LayerCount: 2
Fore
SplineSet
209 2 m 0
 106.735 2 37 82.385 37 197 c 0
 37 323.914 114.822 408 231 408 c 0
 300.433 408 338 372.422 338 354 c 0
 338 343.566 329.913 336 318 336 c 0
 291.698 336 270.594 396 197 396 c 0
 119.808 396 63 312.095 63 222 c 0
 63 120.429 135.613 26 241 26 c 0
 300.623 26 333.72 55.706 352.135 71.357 c 1
 321.927 34.1583 272.126 2 209 2 c 0
EndSplineSet
EndChar

StartChar: d
Encoding: 100 100 69
Width: 494
GlyphClass: 2
Flags: HW
HStem: -21 52<181.137 326.745> 383 40<159.841 319.221> 694 20G<412 418>
VStem: 17 67<127.427 307.105> 355 71<69.2324 354.672 408.003 610.663>
LayerCount: 2
Fore
SplineSet
238 403 m 0
 124.18 403 64 324.924 64 216 c 0
 64 79.0318 179.667 11 258 11 c 0
 297.82 11 358.107 25.8418 371.116 68.1183 c 0
 371.273 68.6304 l 1
 371.403 69.1493 l 0
 373.684 78.2762 375 87.3055 375 97 c 0
 375 321 l 0
 375 329.061 373.358 344.926 358.898 359.386 c 1
 323.505 392.419 278.439 403 238 403 c 0
240 403 m 2
 304.611 403 331.261 388 348 388 c 0
 368.508 388 375 407.971 375 417 c 0
 375 585 l 0
 375 591.577 374.572 599.76 369.838 607.961 c 0
 359.111 626.545 334.134 632.075 308.415 642.207 c 1
 363.708 669.314 391.376 682.728 405.929 689.417 c 1
 405.474 648.688 403 552.188 403 376 c 0
 403 276.603 404.991 91.2362 405.994 81.071 c 1
 408.871 49.1592 438.812 49.3248 453.132 48.8156 c 1
 444.78 44.9563 434.543 39.9577 423.239 33.4578 c 1
 401.896 21.8587 384.591 9.43502 376 2.91785 c 1
 376 15 l 0
 376 22.623 370.454 38 354 38 c 0
 322.8 38 313.683 -1 235 -1 c 0
 115.961 -1 37 90.4093 37 207 c 0
 37 302.818 93.3764 403 239 403 c 0
 240 403 l 2
EndSplineSet
EndChar

StartChar: e
Encoding: 101 101 70
Width: 409
GlyphClass: 2
Flags: HW
HStem: -19 57<165.729 309.105> 376 55<130.468 248.721>
VStem: 22 71<115.769 316.359> 290 97<292.942 337.386>
LayerCount: 2
Fore
SplineSet
42 206 m 0
 42 337.763 119.984 411 207 411 c 0
 267.418 411 328.7 370.275 362.812 323.255 c 0
 363.088 322.874 l 1
 363.383 322.506 l 0
 365.16 320.285 367 316.063 367 313 c 0
 367 312 l 0
 367 304.425 338.096 294.223 299.511 280.918 c 0
 103.976 213.851 73 217.795 73 183 c 0
 73 167.304 96.7645 18 241 18 c 0
 278.025 18 314.109 29.9084 344.475 49.3044 c 1
 307.997 18.9097 263.239 1 215 1 c 0
 142.003 1 42 46.4181 42 206 c 0
310 310 m 0
 310 341.571 248.863 396 185 396 c 0
 110.672 396 69 325.936 69 233 c 0
 69 217.59 82.5895 206 94 206 c 0
 111.861 206 282.967 276.623 289.944 280.111 c 0
 301.163 285.721 310 296.348 310 310 c 0
EndSplineSet
EndChar

StartChar: f
Encoding: 102 102 71
Width: 292
GlyphClass: 2
Flags: HW
HStem: -6 45<18.0677 79.8315 153 229.988> 359 52<10.824 82.4098 153.06 281.154> 653 67<224.432 344.919>
VStem: 84 69<38.7292 358.944 411.182 564.612>
LayerCount: 2
Fore
SplineSet
160.007 18.9769 m 1
 148.956 19.5828 136.692 20 124 20 c 0
 84.5329 20 51.5475 16.237 37.5847 14.6055 c 1
 45.2007 15.994 54.3435 17.0107 67.9229 19.2127 c 1
 98.4683 23.2855 99.349 54.358 99.9363 61.4051 c 0
 102.059 87.9367 104 155.746 104 350 c 0
 104 385.731 65.7796 379.279 31.2086 380 c 1
 30.0268 380.003 l 1
 30.1465 384.096 30.7169 387.012 30.9725 388 c 1
 31.9725 388 30.8002 387.976 31.7994 388.016 c 0
 68.1831 389.472 102 384.411 102 418 c 0
 102 418.744 l 1
 103.029 457.8 108.753 542.029 142.312 600.984 c 1
 178.199 661.993 254.698 700 308 700 c 0
 353.15 700 360 676.928 360 668 c 0
 360 659.381 353.652 649 338 649 c 0
 321.552 649 296.452 673 255 673 c 0
 161.248 673 132 550.023 132 436 c 0
 132 427 l 0
 132 414.21 139.286 391 162 391 c 0
 260 391 l 0
 260.752 391 261.44 390.966 262 390.935 c 1
 262 390 l 0
 262 380.651 261.237 379 256 379 c 0
 162 379 l 0
 152.411 379 133 370.012 133 351 c 0
 133 61 l 0
 133 55.097 132.401 42.8606 141.417 31.3707 c 0
 145.594 26.048 152.702 21.462 160.007 18.9769 c 1
206.252 14.9752 m 1
 207.445 14.8968 209.453 14.6653 209.573 14.6553 c 1
 209.28 14.6898 207.408 14.8416 206.252 14.9752 c 1
EndSplineSet
EndChar

StartChar: g
Encoding: 103 103 72
Width: 440
GlyphClass: 2
Flags: HW
HStem: -234 47<142.754 341.117> -30 44<132.457 326.557> 112 35<153.211 252.627> 351 101<362.723 402.419> 399 34<138.823 236.686>
VStem: 22 78<200.871 354.327> 27 56<-139.464 -47.0017> 44 51<19.8401 100.604> 292 72<197.295 342.215> 373 58<-158.727 -67.4462>
LayerCount: 2
Fore
SplineSet
187 419 m 0
 122.867 419 80 361.918 80 289 c 0
 80 209.36 124.094 127 203 127 c 0
 271.76 127 312 189.61 312 258 c 0
 312 332.779 268.055 419 187 419 c 0
63 -88 m 0
 63 -166.968 152.127 -207 246 -207 c 0
 354.693 -207 393 -157.11 393 -114 c 0
 393 -65.7744 354.461 -42.9246 341.724 -36.9979 c 1
 287.584 -9.77892 225.047 -20.7877 124.104 -10.1109 c 0
 123.055 -10 l 1
 119 -10 l 0
 101.893 -10 92.6187 -22.097 87.8579 -26.8579 c 0
 71.6668 -43.0489 63 -65.7653 63 -88 c 0
122 136.906 m 1
 122 173.897 80.7954 173.073 58.3794 213.902 c 1
 47.0597 233.059 42 253.887 42 277 c 0
 42 349.753 101.721 413 184 413 c 0
 251.079 413 269.887 377 310 377 c 0
 338.059 377 362.682 394.579 378.74 418.049 c 1
 385.793 429.333 388.861 432 391 432 c 0
 396.656 432 409 420.689 409 411 c 0
 409 389.819 367.873 384.795 344.721 366.787 c 0
 343.738 366.023 l 1
 342.858 365.142 l 0
 339.028 361.312 333 354.655 333 343 c 0
 333 323.187 344 316.739 344 280 c 0
 344 198.572 280.622 132 198 132 c 0
 168.289 132 163.041 141 140 141 c 0
 133.585 141 127.322 139.164 122 136.906 c 1
76.0292 80.0666 m 1
 75.4028 76.8358 75 73.3575 75 70 c 0
 75 -17.8581 279.737 10.9186 334.424 -5.20717 c 1
 389.1 -20.8289 411 -61.537 411 -97 c 0
 411 -139.57 380.326 -214 223 -214 c 0
 67.0679 -214 47 -142.429 47 -108 c 0
 47 -57.6748 84.8285 -43.4558 93.1421 -35.1421 c 0
 93.9733 -34.311 101 -26.9463 101 -17 c 0
 101 28.5831 64 0.193572 64 43 c 0
 64 54.9554 68.8053 68.0068 76.0292 80.0666 c 1
EndSplineSet
EndChar

StartChar: h
Encoding: 104 104 73
Width: 514
GlyphClass: 2
Flags: HW
HStem: -6 42<21.0267 80.623 293.01 367.94 444.564 497.985> 371 51<192.054 305.085> 699 20G<139.5 147>
VStem: 87 66<39.8055 348.283 385.001 609.081> 370 74<38.0009 293.71>
LayerCount: 2
Fore
SplineSet
211.863 387.429 m 1
 231.838 395.927 252.76 402 281 402 c 0
 338.222 402 376.146 370.294 396.623 323.107 c 1
 414.987 279.951 419.993 253.035 424 65.7863 c 1
 424 52.624 426.269 38.8892 436.18 28.8208 c 0
 443.801 21.0784 453.721 18.2222 460.448 16.7764 c 1
 441.652 18.5388 420.707 20 394 20 c 0
 380.794 20 368.146 19.5336 356.958 18.9201 c 1
 362.865 20.1618 369.185 22.1422 375.213 27.5402 c 0
 394.981 45.2418 390 73.3875 390 125 c 0
 390 270.535 366.14 316.766 336.414 348.87 c 1
 313.031 372.254 279.878 391 241 391 c 0
 231.336 391 221.142 389.599 211.863 387.429 c 1
163.87 365 m 1
 150.165 354.797 138.54 342.622 134.597 326.851 c 0
 132.81 319.703 133 313.864 133 309 c 0
 133 302.18 132.519 70.8115 135.021 59.6738 c 1
 142.005 27.4934 164.094 20.9395 178.843 18.0099 c 1
 161.512 19.2677 146.48 20 127 20 c 0
 104.257 20 80.8693 18.6217 67.0457 17.5027 c 1
 101.663 27.5922 101.186 57.89 101.977 68.9577 c 1
 105.011 161.005 107 252.452 107 345 c 0
 107 349 l 0
 107 432.019 104.797 584.874 102.675 597.606 c 1
 95.3536 634.213 47.6448 634.362 37.5758 637.434 c 1
 38.0271 637.695 l 0
 101.167 674.28 128.072 690.306 138.988 696.28 c 1
 138 392 l 0
 138 376.589 152.275 365 163.87 365 c 1
EndSplineSet
EndChar

StartChar: i
Encoding: 105 105 74
Width: 243
GlyphClass: 2
Flags: HW
HStem: -6 44<18.136 93.0582 163.719 228.991> 421 20<149.5 156> 571 94<112.016 191.668>
VStem: 94 67<39.1511 336.573> 104 96<579.719 656.984>
LayerCount: 2
Fore
SplineSet
124 618 m 0
 124 632.406 136.628 645 152 645 c 0
 167.572 645 180 632.068 180 619 c 0
 180 603.812 166.571 591 151 591 c 0
 135.649 591 124 602.106 124 618 c 0
EndSplineSet
Refer: 203 305 S 1 0 0 1 0 0 2
EndChar

StartChar: j
Encoding: 106 106 75
Width: 232
GlyphClass: 2
Flags: HW
HStem: -231 77<-30.0167 54.2285> 422 20<152.5 158> 558 93<111.688 191.668>
VStem: 95 71<-117.424 346.052> 104 96<566.659 643.248>
LayerCount: 2
Fore
SplineSet
124 604 m 0
 124 619.335 136.248 631 152 631 c 0
 167.954 631 180 618.999 180 605 c 0
 180 591.142 166.769 578 151 578 c 0
 135.449 578 124 589.439 124 604 c 0
EndSplineSet
Refer: 262 567 S 1 0 0 1 0 0 2
EndChar

StartChar: k
Encoding: 107 107 76
Width: 454
GlyphClass: 2
Flags: HW
HStem: -4 38<135.229 201.909 375.977 444.993> 370 45<318.514 420.766> 698 20G<122 129>
VStem: 67 68<37.2274 171.859 225.001 625.327> 243 178<335 403.957>
LayerCount: 2
Fore
SplineSet
136.309 204.685 m 1
 124.92 193.176 121.31 189.4 117.306 179.165 c 1
 114.091 169.518 115 165.412 115 161 c 0
 115 58 l 0
 115 50.4719 115.517 40.8497 122.417 32.0542 c 0
 128.96 23.7144 140.955 20.0296 144.098 19.2975 c 1
 133.973 19.7416 123.709 20 111 20 c 0
 88.8647 20 69.3188 18.9498 58.8962 18.1755 c 1
 65.4107 20.4007 70.9937 23.1738 76.4825 29.0935 c 0
 82.7198 35.8204 86.1218 44.8993 86.9269 54.292 c 0
 87 55.1444 l 1
 87 595 l 0
 87 603.331 86.0645 612.089 81.3092 620.332 c 0
 77.2115 627.436 71.217 632.226 66.2134 635.561 c 1
 57.8857 641.287 39.8798 653.713 33.7288 657.992 c 1
 82.5706 679.585 102.432 688.359 115 693.727 c 1
 115 229 l 0
 115 229 115.438 209.709 136.309 204.685 c 1
164.161 221 m 1
 173.924 230.943 183.485 240.59 191.426 248.564 c 1
 191.239 247.463 191 245 191 244 c 0
 191 221.914 197.562 225.891 311.676 89.1478 c 0
 334.182 62.3144 361.604 29.6158 405.298 16.548 c 1
 385.258 18.3797 362.081 20 333 20 c 0
 303.372 20 275.045 17.8674 258.715 16.3307 c 1
 269.842 18.1839 291 27.5978 291 52 c 0
 291 90.2628 194.767 198.043 185.881 208.785 c 1
 175.51 222.614 170.405 221 164.161 221 c 1
257.911 322.222 m 1
 261.925 330.7 263 339.514 263 347 c 0
 263 372.552 246.398 386.415 238.861 392 c 1
 296 392 l 0
 335.117 392 363.713 393.091 381.227 393.907 c 1
 373.227 392.795 366.815 391.685 357.847 389.325 c 0
 321.668 379.677 292.568 356.091 257.911 322.222 c 1
EndSplineSet
EndChar

StartChar: l
Encoding: 108 108 77
Width: 239
GlyphClass: 2
Flags: HW
HStem: -5 43<18.0052 85.7427 160.703 227.907> 703 20G<143.5 152>
VStem: 87 73<39.238 609.091>
LayerCount: 2
Fore
SplineSet
196.393 16.1731 m 1
 177.085 18.0554 152.094 20 122 20 c 0
 90.2801 20 62.1943 17.8398 46.0067 16.3811 c 1
 52.4394 17.1358 55.2088 17.4161 61.2925 18.1318 c 0
 100.854 22.6966 107 55.0041 107 76 c 0
 107 585 l 0
 107 611.308 86.0423 620.238 74.2119 627.197 c 1
 58.6409 636.539 44.8917 644.204 39.1379 647.612 c 1
 54.6688 655.818 85.8754 671.434 140 699.576 c 1
 140 71 l 0
 140 57.9998 141.079 44.9133 150.421 34.0417 c 0
 163.188 19.1839 182.003 18.529 196.393 16.1731 c 1
EndSplineSet
EndChar

StartChar: m
Encoding: 109 109 78
Width: 723
GlyphClass: 2
Flags: HMW
HStem: -6 43<140.259 206.883 242.009 320.739 387.139 454.994 509.206 575.944 647.643 708.974> 371 51<176.293 286.616 417.763 533.955> 414 20G<126 133>
VStem: 78 62<36.1465 331.765> 322 66<38.0512 337.462> 576 71<37.4201 324.172>
LayerCount: 2
Fore
SplineSet
347.45 349.783 m 1
 355.522 345.509 361.193 346 362 346 c 0
 364.247 346 367.576 346.316 371 347.298 c 1
 366.836 342.153 362 335.3 362 325 c 0
 362 314.506 368 302.081 368 258 c 0
 368 65.4803 l 1
 367.539 63.1731 367 60.9868 367 57 c 0
 367 56 l 0
 367 34.8905 382.89 21.177 401.504 18.0164 c 1
 385.911 19.1528 368.607 20 349 20 c 0
 333.674 20 316.257 19.2843 305.685 18.6466 c 1
 315.499 21.229 323.76 25.1413 330.49 32.873 c 0
 341.57 45.6012 342 60.8653 342 75 c 0
 342 260 l 0
 342 293.623 338.255 335.808 302.075 362.944 c 1
 282.208 378.136 253.215 391 220 391 c 0
 212.183 391 203.951 390.102 196.618 388.707 c 1
 211.955 396.132 230.282 402 250 402 c 0
 304.346 402 338.48 357.094 347.45 349.783 c 1
139.15 357.986 m 1
 133.472 352.184 129.249 346.723 126.442 341.577 c 0
 125.872 340.533 l 1
 125.43 339.428 l 0
 122.84 332.952 120 322.51 120 306 c 0
 120 65 l 0
 120 53.6384 120.585 41.0806 129.884 30.4345 c 0
 135.603 23.887 142.953 20.6475 149.157 18.6096 c 1
 137.096 19.424 123.643 20 109 20 c 0
 92.6733 20 77.7661 19.3636 68.1591 18.7603 c 1
 83.5455 24.6029 95.8486 37.4884 97.9007 58.0099 c 0
 98 59.0025 l 1
 98 308 l 0
 98 314.632 97.9899 321.861 94.5785 329.954 c 0
 87.7458 346.165 74.0233 353.003 55.5997 366.786 c 1
 66.7655 373.999 86.4133 386.136 118 406.37 c 1
 118 384 l 0
 118 380.274 119.956 362.692 139.15 357.986 c 1
426.704 382.559 m 1
 460.315 399.246 486.706 402 501 402 c 0
 544.831 402 596.319 380.409 616.766 307.516 c 1
 626.796 272.872 627 236.153 627 196 c 0
 627 69 l 0
 627 56.0078 627.831 43.0617 637.125 32.1532 c 0
 645.997 21.7396 658.35 19.0574 666.702 17.2239 c 1
 650.433 18.8625 634.006 20 610 20 c 0
 592.132 20 576.905 19.2394 564.81 18.3309 c 1
 575.064 20.9107 582.523 24.8149 588.389 32.6368 c 0
 597.452 44.721 596 57.0719 596 64 c 0
 596 203 l 0
 596 254.386 595.276 323.142 547.809 364.365 c 1
 535.39 374.301 510.428 391 473 391 c 0
 457.084 391 441.018 387.514 426.704 382.559 c 1
EndSplineSet
EndChar

StartChar: n
Encoding: 110 110 79
Width: 499
GlyphClass: 2
Flags: HW
HStem: -6 42<11.1138 75.251 145.568 220.772 294.036 361.915 427.242 488.974> 384 49<199.31 317.254>
VStem: 76 69<38.2075 347.206> 362 65<36.1777 339.27>
LayerCount: 2
Fore
SplineSet
142.612 352.507 m 1
 134.548 342.863 128.791 333.756 126.533 323.595 c 1
 124.776 316.567 125 309.917 125 306 c 0
 125 66 l 0
 125 59.4728 124.57 46.6764 133.631 34.6755 c 0
 140.512 25.5612 151.875 19.9577 163.941 18.2339 c 1
 165.273 18.0119 167.392 17.6684 167.392 17.6684 c 1
 151.509 19.0159 134.403 20 115 20 c 0
 94.1209 20 73.1796 18.7235 59.9754 17.6103 c 1
 72.0385 20.798 79.3843 24.8103 85.9264 32.6993 c 0
 96.8128 45.827 96 60.6295 96 70 c 0
 96 309 l 0
 96 317.013 96.6248 325.28 92.4416 335.213 c 0
 85.6762 351.277 73.406 358.125 52.2437 374.037 c 1
 64.3111 380.731 86.1873 392.172 122 411.372 c 1
 122 384.07 l 1
 121.696 382.701 121 382.861 121 377 c 0
 121 365.972 132.196 355.516 142.612 352.507 c 1
223.802 401.487 m 1
 240.23 407.973 259.99 412.743 282.117 413 c 1
 284 413 l 0
 323.581 413 397.087 398.72 406.094 287.027 c 1
 408.013 270.718 408 255.248 408 238 c 0
 408 221.692 407 202.938 407 65 c 0
 407 63 l 0
 407 51.4402 408.621 39.2022 417.5 29.434 c 0
 423.144 23.2247 431.849 19.4989 436.138 18.1765 c 1
 423.577 19.2161 408.475 20 390 20 c 0
 378.619 20 364.235 19.4177 356.971 18.9829 c 1
 362.2 20.6084 367.085 22.9621 371.58 27.4595 c 0
 382.055 37.9403 382 50.7928 382 61 c 0
 382 216 l 0
 382 234.918 382.22 294.804 367.47 331.676 c 1
 340.276 394.717 274.995 404 249 404 c 0
 240.523 404 231.837 403.053 223.802 401.487 c 1
EndSplineSet
EndChar

StartChar: o
Encoding: 111 111 80
Width: 467
GlyphClass: 2
Flags: HW
HStem: -19 49<167.083 305.289> 385 47<165.676 296.741>
VStem: 21 78<107.025 304.389> 378 68<109.681 295.193>
LayerCount: 2
Fore
SplineSet
41 204 m 0
 41 332.078 135.793 412 237 412 c 0
 344.076 412 426 328.588 426 204 c 0
 426 72.0658 334.93 1 233 1 c 0
 118.069 1 41 90.3428 41 204 c 0
236 10 m 0
 335.707 10 398 103.963 398 200 c 0
 398 314.979 320.246 405 230 405 c 0
 166.757 405 79 352.51 79 209 c 0
 79 99.1181 138.929 10 236 10 c 0
EndSplineSet
EndChar

StartChar: p
Encoding: 112 112 81
Width: 494
GlyphClass: 2
Flags: HW
HStem: -228 46<13.3345 91.7562> -220 42<166.185 266.758> -7 34<182.8 315.77> 372 59<202.772 321.179> 421 20G<134.5 140>
VStem: 93 73<-177.901 -1.00293> 93 65<45.2268 333.699> 408 67<117.256 282.885>
LayerCount: 2
Fore
SplineSet
250 7 m 0
 342.173 7 428 84.1606 428 195 c 0
 428 301.356 346.289 392 253 392 c 0
 238.785 392 205.897 390.769 175.019 367.016 c 1
 148.413 347.667 138 321.898 138 289 c 0
 138 74 l 0
 138 70.7358 137.786 64.1107 140.612 56.4657 c 0
 145.538 43.1391 157.717 33.1034 175.335 24.9718 c 1
 197.317 13.9808 223.693 7 250 7 c 0
286 411 m 0
 383.325 411 455 322.916 455 215 c 0
 455 93.7988 366.838 13 237 13 c 0
 203.41 13 182.479 19 173 19 c 0
 149.895 19 146 -5.69927 146 -12 c 0
 146 -152 l 0
 146 -158.032 145.548 -170.987 155.109 -182.822 c 0
 162.303 -191.727 173.715 -196.73 186.01 -197.901 c 0
 215.402 -200.84 236.579 -201.59 244.388 -203.237 c 1
 228.232 -201.982 202.218 -200 162 -200 c 0
 119.592 -200 82.6408 -202.713 59.054 -204.896 c 1
 65.8733 -203.539 69.4245 -202.81 74.9684 -201.604 c 1
 84.4223 -199.832 95.2813 -195.643 102.808 -186.736 c 0
 111.088 -176.938 113 -164.982 113 -154 c 0
 113 310 l 0
 113 317.428 110.059 339.142 87.9213 348.366 c 1
 69.8212 356.442 54.5677 363.086 46.3799 366.688 c 1
 60.9272 375.254 85.8735 389.662 125 412.727 c 1
 125 371 l 0
 125 370.251 123.236 345 148 345 c 0
 184.909 345 190.871 399.63 265.638 410.174 c 1
 271.811 410.946 278.051 411 286 411 c 0
EndSplineSet
EndChar

StartChar: q
Encoding: 113 113 82
Width: 525
GlyphClass: 2
Flags: HW
HStem: -235 45<290.501 370.591> -225 36<452.956 515.684> -9 61<187.768 336.033> 401 33<185.131 334.656> 426 20G<429.5 439.5>
VStem: 16 72<150.894 302.179> 374 73<-182.941 28.9978 78.3765 371.626>
LayerCount: 2
Fore
SplineSet
259 421 m 0
 154.398 421 68 338.416 68 233 c 0
 68 119.243 163.594 32 273 32 c 0
 314.249 32 359.303 44.6001 379.859 63.5748 c 1
 394.465 78.1807 395 95.4789 395 108 c 0
 395 131.055 394.995 155.53 392 343.16 c 1
 392 361.547 384.491 377.464 369.763 388.175 c 0
 369.369 388.462 l 1
 368.961 388.729 l 0
 336.495 410 297.77 421 259 421 c 0
36 213 m 0
 36 297.882 96.6517 414 283 414 c 0
 343.28 414 375.199 401 397 401 c 0
 408.456 401 419.823 405.125 425.83 408.938 c 1
 425.963 402.912 426 397.882 426 391 c 0
 426 380.52 427 371.52 427 364 c 0
 427 -139 l 0
 427 -173.876 440.244 -195.975 466.778 -203.368 c 1
 457.611 -203.087 452.346 -203 443 -203 c 0
 408.621 -203 377.154 -205.553 355.157 -208.055 c 1
 391.95 -196.921 394 -165.244 394 -150 c 0
 394 22 l 0
 394 32.5034 385.603 49 368 49 c 0
 336.138 49 317.5 11 239 11 c 0
 128.9 11 36 101.298 36 213 c 0
EndSplineSet
EndChar

StartChar: r
Encoding: 114 114 83
Width: 358
GlyphClass: 2
Flags: HW
HStem: -6 44<12.3504 75 147.448 244.95> 346 100<247.701 330.441>
VStem: 75 72<38.4622 329.719>
LayerCount: 2
Fore
SplineSet
185.572 379.614 m 1
 209.924 396.335 244.589 418.858 255.669 423.141 c 1
 262.553 425.331 268.306 426 278 426 c 0
 310.612 426 336 407.45 336 402 c 1
 335.633 398.408 327.414 390.744 317.014 382.066 c 1
 302.152 372.122 294.919 366 288 366 c 0
 281.969 366 276.155 391 229 391 c 0
 213.466 391 198.565 385.808 185.572 379.614 c 1
151.388 357.996 m 1
 143.925 352.039 138.641 347.517 134.359 341.094 c 0
 127.053 330.135 127 318.475 127 312 c 0
 127 68 l 0
 127 61.2592 126.474 46.4936 137.435 33.4892 c 0
 143.393 26.4212 153.731 21.2567 161.725 19.3611 c 1
 151.172 19.773 141.171 20 130 20 c 0
 105.455 20 82.554 18.8017 65.8242 17.5852 c 1
 74.4164 20.2165 80.0796 23.0148 85.7619 29.6367 c 0
 94.0089 39.2474 95 50.5755 95 60 c 0
 95 325 l 0
 95 331.178 94.438 338.174 91.2079 345.246 c 0
 83.4511 362.23 68.1724 368.8 49.042 381.981 c 1
 64.7846 389.527 86.4464 399.841 122 417.219 c 1
 122 382 l 0
 122 377.88 124.506 357 145 357 c 0
 147.988 357 150.086 357.626 151.388 357.996 c 1
EndSplineSet
EndChar

StartChar: s
Encoding: 115 115 84
Width: 338
GlyphClass: 2
Flags: HW
HStem: -19 54<106.18 240.638> 380 47<98.6701 211.868> 412 20G<244 256>
VStem: 26 41<71.0105 155.78> 31 54<283.553 367.539> 230 55<295.352 359.134> 262 67<56.0454 149.045>
LayerCount: 2
Fore
SplineSet
51 309 m 0
 51 356.088 93.7085 407 175 407 c 0
 204.236 407 211.952 402 225 402 c 0
 236.249 402 244.899 408.578 246.3 409.545 c 1
 251.862 377.267 260.873 331.161 264.404 310.74 c 1
 259.806 320.253 258.827 334.694 246.3 352.59 c 1
 228.581 377.124 188.482 400 148 400 c 0
 106.854 400 65 373.323 65 327 c 0
 65 305.268 77.3461 258.802 158.623 235.736 c 1
 213.327 220.72 252.479 218.401 283.886 181.901 c 0
 305.648 156.792 309 128.979 309 116 c 0
 309 62.9309 265.266 1 177 1 c 0
 134.241 1 76.8872 17.3997 54.0115 44.2195 c 1
 46.6245 52.3452 47 51.9173 47 65 c 0
 47 74.2204 46.8538 84.0512 46.7267 90.3425 c 1
 48.122 86.9993 48.2223 86.834 49.0255 85.2277 c 1
 63.0501 55.7761 115.002 15 181 15 c 0
 233.058 15 282 47.7108 282 102 c 0
 282 189.055 170.389 199.791 147.463 206.239 c 0
 73.2106 227.323 51 269.521 51 309 c 0
EndSplineSet
EndChar

StartChar: t
Encoding: 116 116 85
Width: 333
GlyphClass: 2
Flags: HW
HStem: -19 65<156.838 241.254> 363 54<156.006 290.812>
VStem: 75 70<56.8354 362.954>
LayerCount: 2
Fore
SplineSet
50.3541 385 m 1
 69.1705 402.029 102.915 432.161 136.765 487.382 c 1
 136.433 467.503 136 447.508 136 437 c 0
 136 425.861 138.74 413.438 148.805 405.17 c 0
 158.409 397.281 168.913 397 176 397 c 0
 265.52 397 l 1
 267.827 396.539 270.013 396 274 396 c 0
 276.211 396 279.038 395.889 279.854 395.804 c 1
 279.26 391.899 277.728 386.274 276.534 383.082 c 1
 274.31 382.985 274.516 383 273 383 c 0
 156 383 l 0
 143.114 383 126 371.783 126 354.053 c 1
 125.001 167.186 125 144.012 125 120 c 0
 125 85.186 134.758 26 196 26 c 0
 244.351 26 281.047 68.5868 298.577 81.4693 c 1
 262.537 40.6627 219.114 1 177 1 c 0
 147.467 1 102.298 19.1793 95.9327 104.648 c 1
 94.9992 114.916 95 123.867 95 135 c 0
 95 178.482 99 333.239 99 356 c 0
 99 362.422 93.8036 385 72 385 c 0
 50.3541 385 l 1
EndSplineSet
EndChar

StartChar: u
Encoding: 117 117 86
Width: 505
GlyphClass: 2
Flags: HW
HStem: -14 21G<370 378> 377 38<7.08487 63.9033 277.108 356.564>
VStem: 64 68<95.1389 375.136> 358 71<69.1563 373.706>
LayerCount: 2
Fore
SplineSet
306.625 23.7124 m 1
 284.942 12.576 255.395 2 220 2 c 0
 149.033 2 98.0625 46.258 86.8719 129.275 c 1
 84.8461 149.871 84 167.498 84 188 c 0
 84 219.822 85 332.739 85 349 c 0
 85 363.606 76.3524 383.677 45.4986 395.557 c 1
 41.8705 397.086 43.2428 396.494 43.2428 396.494 c 1
 87.674 399.211 102.117 400.179 112 400.684 c 1
 112 204 l 0
 112 174.046 111.566 133.146 132.169 91.9414 c 1
 150.694 56.0497 193.249 14 256 14 c 0
 274.556 14 291.75 17.8301 306.625 23.7124 c 1
350.148 51.0933 m 1
 351.877 52.6767 353.651 54.3664 355.142 55.8579 c 0
 355.584 56.2996 l 1
 355.997 56.7676 l 0
 369.069 71.5826 378 82.2259 378 100 c 0
 378 346 l 0
 378 356.164 376.503 367.139 369.288 376.549 c 0
 358.431 390.709 340.371 393.771 327.665 396.145 c 1
 385.724 398.038 398.542 398.733 409 398.947 c 1
 409 86 l 0
 409 57.5695 435.893 53.8198 461.649 42.039 c 1
 447.403 38.2087 420.794 30.5897 382 10.0341 c 1
 382 29 l 0
 382 44.8814 364.283 53 359 53 c 0
 354.544 53 351.763 51.7424 350.148 51.0933 c 1
EndSplineSet
EndChar

StartChar: v
Encoding: 118 118 87
Width: 490
GlyphClass: 2
Flags: HW
HStem: -25 21G<252.5 264> 374 41<143.006 218.984 298.064 371.985>
VStem: 2 141<349.5 406> 372 113<351 401>
LayerCount: 2
Fore
SplineSet
368.978 392.198 m 1
 376.716 392.053 382.269 392 390 392 c 0
 407.029 392 423.604 392.474 432.974 392.872 c 1
 425.48 390.044 417.808 384.68 412.781 376.175 c 0
 412.425 375.571 l 1
 412.111 374.944 l 0
 407.954 366.63 407.159 361.1 404.654 351.078 c 1
 354.785 169.834 274.553 11.1559 264.101 -2.65389 c 1
 263.423 -3.38873 264.503 -2.21903 263.824 -2.95386 c 1
 263.383 -3.5061 l 0
 263.02 -3.95903 261.321 -5 260 -5 c 0
 259.405 -5 254.589 -3.36805 244.552 15.5919 c 1
 115.891 243.768 85.2724 348.941 64.703 375.387 c 1
 56.1903 386.028 44.444 391.704 37.3862 393.804 c 1
 54.0559 392.926 76.5937 392 109 392 c 0
 126.1 392 142.987 392.327 153.343 392.636 c 1
 137.177 388.571 123 375.124 123 356 c 0
 123 331.214 172.107 201.702 244.714 76.9402 c 0
 246.021 74.6949 l 1
 246.286 74.2701 252.804 59 271 59 c 0
 289.338 59 293.729 74.2586 294.763 76.5335 c 1
 371.977 212.918 392 336.882 392 359 c 0
 392 375.086 380.243 387.83 368.978 392.198 c 1
EndSplineSet
EndChar

StartChar: w
Encoding: 119 119 88
Width: 752
GlyphClass: 2
Flags: HW
HStem: -25 109<234.747 265.221 515.394 546.266> 376 39<394.084 474.998 565.092 643.881 697.814 749.859>
LayerCount: 2
Fore
SplineSet
705.277 392.607 m 1
 649.977 368.706 679.603 287.502 530.34 9.38741 c 1
 524.897 -0.952934 521.217 -4.59875 520.733 -4.96426 c 1
 520.597 -4.97973 520.203 -4.99792 520.203 -4.99792 c 1
 515.382 -1.82174 498.528 26.2939 460.685 96.3413 c 1
 435.437 145.235 420.294 175.04 411.198 192.715 c 0
 400.988 212.552 397.378 230 377 230 c 0
 351.247 230 351.803 209.762 318.984 139.688 c 1
 252.048 4.81374 250.655 1.34089 247.052 -2.71272 c 0
 246.707 -3.10072 l 1
 246.383 -3.5061 l 0
 245.158 -5.03717 244.821 -5 244 -5 c 0
 244 -5 241.673 -6.63666 232.693 10.3257 c 0
 125.582 213.54 77.5802 354.412 67.3205 372 c 1
 60.9115 383.216 49.4106 391.155 42.9316 393.727 c 1
 55.6117 392.896 73.7137 392 98 392 c 0
 101 392 l 0
 108.291 392 117.48 392.141 121.765 392.24 c 1
 110.139 386.452 103 375.08 103 362 c 0
 103 350.715 107.979 340.513 110.64 335.011 c 1
 143.88 247.495 182.084 163.108 223.156 82.9676 c 1
 223.444 82.3907 230.361 64 251 64 c 0
 269.979 64 275.99 77.3477 279.476 83.7384 c 1
 318.529 144.249 370.186 239.135 371.956 265.67 c 0
 372 266.334 l 1
 372 268 l 0
 372 290.391 337.439 352.896 330.741 362.943 c 1
 315.023 387.463 289.487 392.606 274.653 394.075 c 1
 292.413 393.158 318.919 392 358 392 c 0
 373.607 392 390.349 392.258 399.81 392.486 c 1
 387.451 387.787 374 374.905 374 355 c 0
 374 323.161 436.198 193.006 501.72 88.9072 c 1
 508.218 77.6701 516.992 65 535 65 c 0
 554.238 65 563.252 80.9506 565.183 85.524 c 1
 638.558 215.51 664 335.42 664 354 c 0
 664 369.977 654.561 385.575 641.034 391.117 c 1
 648.43 391.004 649.783 391 655 391 c 0
 675.834 391 694.694 391.895 705.277 392.607 c 1
EndSplineSet
EndChar

StartChar: x
Encoding: 120 120 89
Width: 443
GlyphClass: 2
Flags: HW
HStem: -4 42<245.243 306.998 387.004 433.968> -4 30<119.588 175.827> 376 39<11.0516 62.125 150.007 201.163 344.166 422.852>
VStem: 181 68<202.618 231.317>
DStem2: 64 53 129 76 0.613452 0.789732<29.9269 185.508 264.054 389.539> 164 338 177 216 0.630781 -0.775961<-27.1583 95.9275 152.083 312.756>
LayerCount: 2
Fore
SplineSet
53.4713 18.9771 m 2
 57.7598 20.3824 63.1241 22.8868 67.25 26.1875 c 1
 75.0595 32.0446 78.7225 39.2967 79.9441 40.9254 c 1
 85.7804 48.5575 91.5103 56.0427 96.8469 63.0074 c 1
 94.8957 58.0497 95 53.8796 95 51 c 0
 95 34.9553 106.706 23.8955 115.76 19.5597 c 1
 106.51 19.8872 100.386 20 91 20 c 0
 63.7991 20 44.329 18.0419 31.9145 16.5346 c 0
 53.4713 18.9771 l 2
210.341 196.5 m 2
 209.258 196.5 201.815 196.96 197.396 195.16 c 1
 199.661 199.344 201 207.383 201 209 c 0
 201 221.711 191.924 229.355 191.924 229.355 c 1
 81.4207 366.713 74.8097 386.394 45.634 393.696 c 1
 61.5754 392.77 79.2608 392 106 392 c 0
 124.263 392 141.887 392.501 151.767 392.916 c 1
 140.753 388.265 130 378.328 130 362 c 0
 130 341.252 144.906 330.322 147.984 326.013 c 1
 202.259 256.767 199.521 243 224 243 c 0
 225 243 230.842 243.857 232.647 244.207 c 1
 230.658 241.05 229 233.602 229 231 c 0
 229 209.639 234.638 214.915 371.146 41.8057 c 1
 379.343 30.8761 388.268 21.6735 397.592 17.7716 c 1
 382.301 18.9696 364.431 20 338 20 c 0
 324.307 20 310.501 19.6046 301.995 19.2315 c 1
 318.079 25.3437 327 36.9143 327 51 c 0
 327 62.9451 320.952 69.8641 320.795 70.1318 c 1
 319.922 71.878 l 1
 318.564 73.5604 l 0
 226.253 187.945 228.692 185.592 224.142 190.142 c 0
 218.284 196 l 1
 210.341 196.5 l 2
318.386 357.509 m 1
 319.403 360.255 319 360.485 319 364 c 0
 319 379.395 306.918 389.349 298.292 392.746 c 1
 310.181 392.239 319.744 392 334 392 c 0
 337 392 l 0
 347.941 392 358.078 392.209 366.099 392.461 c 1
 342.699 386.043 331.218 372.746 318.702 357.883 c 0
 318.375 357.495 l 1
 311.097 347.904 383.865 443.77 318.386 357.509 c 1
EndSplineSet
EndChar

StartChar: y
Encoding: 121 121 90
Width: 468
GlyphClass: 2
Flags: HW
HStem: -223 21G<81 106.5> 376 39<136.006 187.914 277.065 343.956 405.081 462.995>
LayerCount: 2
Fore
SplineSet
92 -203 m 0
 79.6645 -203 73 -194.774 73 -187 c 0
 73 -164.051 108.628 -158.152 154.656 -114.613 c 1
 183.457 -88.0268 228 -25.227 228 15 c 0
 228 48.5095 197.076 107.567 114.785 272.152 c 1
 96.1445 307.361 62.672 370.047 58.641 376.094 c 0
 58.291 376.619 l 1
 57.9086 377.121 l 0
 50.7215 386.554 41.2544 391.53 33.7123 393.982 c 1
 48.3171 393.016 67.3956 392 96 392 c 0
 111.585 392 127.567 392.435 136.081 392.781 c 1
 123.483 387.003 116 376.115 116 362 c 0
 116 340.823 158.553 236.566 226.014 109.113 c 1
 228.681 100.241 237.741 90 252 90 c 0
 271.181 90 277.635 107.351 277.635 107.351 c 1
 278.342 108.058 278.216 107.932 278.923 108.639 c 1
 280.444 112.265 l 0
 332.604 236.65 364 313.273 364 355 c 0
 364 364.33 362.364 374.926 354.667 383.44 c 0
 350.596 387.943 345.374 390.778 341.153 392.517 c 1
 351.614 392.18 361.413 392 374 392 c 0
 375 392 l 0
 387.693 392 399.666 392.266 408.325 392.559 c 1
 378.455 379.022 383.965 349.441 326.48 206.55 c 1
 281.69 98.0568 220.928 -41.0814 149.255 -150.063 c 1
 124.663 -187.976 108.015 -203 92 -203 c 0
EndSplineSet
EndChar

StartChar: z
Encoding: 122 122 91
Width: 361
GlyphClass: 2
Flags: HW
HStem: 0 65<106.006 290.69> 355 62<83.8823 234.993>
VStem: 39 35<294.02 354.03> 291 47<-92.6147 -3.0012e-08> 309 41<65.8229 140.75>
LayerCount: 2
Fore
SplineSet
315.717 398.259 m 1
 92.0303 94.4369 86 100.325 86 76 c 0
 86 47.522 115.534 45 122 45 c 0
 267 45 l 0
 271.203 45 275.556 44 282 44 c 0
 320.387 44 320.616 79.9191 328.546 120.744 c 1
 329.425 120.579 329.265 120.603 329.265 120.603 c 1
 326.087 101.796 317 48.9092 317 -19 c 0
 317 -49.8547 317.923 -67.4334 317.993 -72.2167 c 1
 316.072 -72.6097 313.89 -72.8208 311 -72.9545 c 1
 311 -15 l 0
 311 -5.19527 307.895 6.30396 298.409 13.3828 c 0
 288.536 20.7508 278.893 20 274 20 c 0
 42 20 l 0
 35.1686 20 32.4211 21.4208 32.1256 21.5857 c 1
 32.0339 22.0472 32 22.4003 32 23 c 0
 32 25.8808 36.0563 33.1217 41.5165 41.6958 c 1
 244.337 315.106 l 1
 249.449 320.682 255 329.039 255 341 c 0
 255 370.114 225.864 375 215 375 c 0
 96 375 l 0
 86.9362 375 73.0785 370.193 66.6525 359.004 c 1
 68.11 374.757 69 390.3 69 409 c 0
 69 414.592 l 1
 75.3897 402.734 86.6769 397 99 397 c 0
 317 397 l 0
 319.384 397 314.912 398.487 315.717 398.259 c 1
EndSplineSet
EndChar

StartChar: braceleft
Encoding: 123 123 92
Width: 251
GlyphClass: 2
Flags: HW
HStem: 700 20G<162.5 189>
VStem: 45 77<240.115 270.308> 73 64<-147.001 59.8049 494.524 665.89> 105 60<24.5381 215.922 297.492 513.796>
LayerCount: 2
Fore
SplineSet
79.5337 255.241 m 1
 101.198 271.791 124 302.291 124 359 c 0
 124 440.882 97 509.638 97 586 c 0
 97 651.821 123.341 679.521 147.733 691.532 c 1
 138.862 679.522 134.185 670.95 129.081 656.49 c 1
 123.189 638.813 121 621.759 121 604 c 0
 121 539.6 148 483.206 148 411 c 0
 148 316.229 102 285.936 102 254 c 0
 102 219.097 145 204.428 145 120 c 0
 145 60.716 117 -1.10621 117 -70 c 0
 117 -113.931 130.795 -146.505 145.925 -168.524 c 1
 119.561 -155.058 93 -125.105 93 -57 c 0
 93 14.3941 125 77.249 125 148 c 0
 125 204.577 99.4518 238.205 79.5337 255.241 c 1
EndSplineSet
EndChar

StartChar: bar
Encoding: 124 124 93
Width: 153
GlyphClass: 2
Flags: HW
HStem: 698 20G<68.5 86.5>
VStem: 50 53<-197.934 717.913>
LayerCount: 2
Fore
SplineSet
77 -178 m 2
 73 -178 l 0
 72.0107 -178 70.0345 -177.953 70 -177.952 c 1
 70 697.925 l 1
 71.5435 697.99 72.5526 698 74 698 c 0
 76 698 l 0
 78.7097 698 81.6339 697.902 83 697.839 c 1
 83 -177.841 l 1
 80.2763 -177.985 79.3179 -178 77 -178 c 2
EndSplineSet
EndChar

StartChar: braceright
Encoding: 125 125 94
Width: 251
GlyphClass: 2
Flags: HW
HStem: 700 20G<65.5 91.5>
VStem: 89 60<24.5381 215.905 296.882 513.796> 117 64<-147.001 59.8049 494.524 666.135> 132 77<240.03 269.121>
LayerCount: 2
Fore
SplineSet
157 586 m 0
 157 509.636 130 440.884 130 359 c 0
 130 302.083 153.192 270.642 174.012 254.896 c 1
 146.091 231.137 129 194.744 129 148 c 0
 129 77.2491 161 14.3941 161 -57 c 0
 161 -125.622 133.674 -155.449 108.075 -168.524 c 1
 124.448 -144.696 137 -113.574 137 -70 c 0
 137 -1.10426 109 60.7141 109 120 c 0
 109 205.411 152 219.016 152 254 c 0
 152 265.945 145.952 272.864 145.795 273.132 c 1
 145.416 273.89 l 1
 144.845 274.781 l 0
 115.329 320.902 106 369.95 106 411 c 0
 106 483.212 133 539.593 133 604 c 0
 133 643.652 120.35 672.555 105.597 691.858 c 1
 131.255 679.447 157 651.76 157 586 c 0
EndSplineSet
EndChar

StartChar: asciitilde
Encoding: 126 126 95
Width: 451
GlyphClass: 2
Flags: HW
HStem: 183 71<236.303 342.652> 242 70<92.9183 188.615>
LayerCount: 2
Fore
SplineSet
78.7355 244.094 m 1
 86.0172 254.209 92.1025 261.818 97.3861 267.102 c 1
 109.544 280.128 127.565 292 149 292 c 0
 193.627 292 225.626 234 299 234 c 0
 346.298 234 378.32 265.034 395.413 283.386 c 1
 371.421 249.776 324.735 203 277 203 c 0
 222.511 203 204.211 262 133 262 c 0
 112.614 262 93.2365 254.452 78.7355 244.094 c 1
EndSplineSet
EndChar

StartChar: exclamdown
Encoding: 161 161 97
Width: 325
GlyphClass: 2
Flags: HW
HStem: -16 21G<127.5 134.5> 572 102<117.887 201.265>
VStem: 108 103<582.181 664.265> 122 95<20.366 289.904> 166 33<367.851 461.971>
LayerCount: 2
Fore
SplineSet
142 10.7048 m 1
 142 32 l 0
 142 203.108 167.064 354.252 179.06 413.121 c 1
 183.973 198.505 195.888 58.9532 196.993 45.3404 c 1
 196.953 43.8467 196.767 42.834 196.767 42.834 c 1
 196.051 42.3954 195.808 42.2647 195.056 41.8885 c 0
 194.447 41.584 l 1
 193.86 41.2387 l 0
 167.782 25.8991 151.291 16.1233 142 10.7048 c 1
160 592 m 0
 142.718 592 128 606.609 128 623 c 0
 128 639.33 141.501 654 159 654 c 0
 176.057 654 191 640.924 191 623 c 0
 191 603.641 177.051 592 160 592 c 0
EndSplineSet
EndChar

StartChar: dieresis
Encoding: 168 168 98
Width: 255
GlyphClass: 2
Flags: HW
HStem: 571 94<20.332 99.9316 155.332 234.932>
VStem: 12 96<579.068 656.984> 147 96<579.068 656.984>
LayerCount: 2
Fore
SplineSet
167 618 m 0
 167 632.041 180.553 645 195 645 c 0
 211.493 645 223 632.443 223 619 c 0
 223 603.266 210.177 591 195 591 c 0
 179.248 591 167 602.666 167 618 c 0
32 618 m 0
 32 632.041 45.5529 645 60 645 c 0
 76.493 645 88 632.443 88 619 c 0
 88 603.266 75.1769 591 60 591 c 0
 44.248 591 32 602.666 32 618 c 0
EndSplineSet
EndChar

StartChar: copyright
Encoding: 169 169 99
Width: 772
GlyphClass: 2
Flags: HW
HStem: -24 51<278.469 494.439> 88 38<321.097 470.988> 520 34<316.956 457.544> 637 52<275.379 496.213>
VStem: 30 51<221.604 443.858> 151 66<234.315 415.614> 559 25<222.277 259.891> 691 51<218.952 443.657>
LayerCount: 2
Fore
SplineSet
386 7 m 0
 558.613 7 711 145.561 711 333 c 0
 711 505.735 571.341 657 385 657 c 0
 202.723 657 61 508.776 61 332 c 0
 61 148.659 211.217 7 386 7 c 0
50 332 m 0
 50 514.267 196.34 669 386 669 c 0
 573.729 669 722 515.156 722 332 c 0
 722 151.692 577.66 -4 385 -4 c 0
 203.831 -4 50 142.24 50 332 c 0
517.766 152.102 m 1
 531.692 163.977 544.202 178.153 554.615 193.905 c 1
 551.926 176.639 549.573 160.246 549.092 154 c 1
 533 154 l 0
 527.998 154 523.066 153.714 517.766 152.102 c 1
360.508 109.363 m 1
 252.743 121.878 171 213.244 171 320 c 0
 171 398.108 214.741 468.307 280.455 505.715 c 1
 231.696 470.636 197 410.126 197 332 c 0
 197 220.508 265.984 128.039 360.508 109.363 c 1
477.199 515.742 m 1
 489.356 509.859 496.979 501 514 501 c 0
 523.213 501 530.187 507.227 533.204 510.623 c 1
 536.726 486.466 539.558 466.725 541.457 452.9 c 1
 538.422 459.315 535.444 464.292 530.657 470.447 c 1
 516.962 487.301 499.138 503.096 477.199 515.742 c 1
EndSplineSet
EndChar

StartChar: guillemotleft
Encoding: 171 171 100
Width: 365
GlyphClass: 2
Flags: HW
HStem: 52 282<180 192 320 333>
VStem: 22 80<171.745 215.713> 163 79<171.745 215.713>
LayerCount: 2
Fore
SplineSet
149.618 104.811 m 0
 127.424 124.046 98.1967 149.525 47.5283 193.53 c 1
 107.394 244.741 142.905 275.244 163.758 292.949 c 0
148.525 279.932 m 0
 134.662 264.346 115.765 243.181 90.0594 214.296 c 0
 88.297 212.315 l 1
 87.3017 210.325 l 1
 86.064 208.382 82 202.916 82 194 c 0
 82 173.073 91.3748 170.953 156.834 95.002 c 0
290.426 104.779 m 0
 268.331 124.024 239.204 149.516 188.528 193.53 c 1
 248.396 244.753 283.759 275.273 304.5 292.988 c 0
289.525 279.932 m 0
 275.918 264.634 256.253 242.603 231.446 214.73 c 1
 230.957 214.242 222 206.672 222 194 c 0
 222 170.932 233.626 171.824 298.992 95.3389 c 1
 298.986 95.3447 301.386 95.2438 299.34 97.0219 c 0
EndSplineSet
EndChar

StartChar: logicalnot
Encoding: 172 172 101
Width: 701
GlyphClass: 2
Flags: HW
HStem: 231 57<53 592>
VStem: 592 57<41.0781 231>
LayerCount: 2
Fore
SplineSet
76 251 m 2
 74.8705 251 73.3257 251.068 73.0482 251.084 c 1
 72.9867 252.538 73 252.186 73 253 c 0
 73 266 l 0
 73 266.706 73.0571 267.788 73.0634 267.897 c 1
 74.4045 267.986 75.4271 268 77 268 c 0
 629 268 l 1
 629 61 l 1
 616 61 l 0
 614.366 61 613.129 61.1394 612.356 61.243 c 1
 612.139 62.5444 612 64.4741 612 67 c 0
 612 251 l 1
 76 251 l 2
EndSplineSet
EndChar

StartChar: registered
Encoding: 174 174 102
Width: 519
GlyphClass: 2
Flags: HW
HStem: 335 37<185.27 334.574> 419 27<146.018 178 349.745 384.28> 542 18<216.119 253.266> 657 19<142.608 175.333 213.002 267.187> 719 36<185.27 332.161>
VStem: 50 35<471.505 618.161> 178 36<445.157 542 560 650 651 652.047> 291 37<568.344 643.871> 433 36<471.505 618.161>
DStem2: 286 548 252 537 0.587113 -0.809505<0 131.605>
LayerCount: 2
Fore
SplineSet
198 550 m 1
 198 641 l 0
 198 644.45 197.101 648.955 195.887 652.58 c 1
 215.445 654.269 228.169 656 242 656 c 0
 298.123 656 308 626.382 308 610 c 0
 308 585.408 284.197 568.82 278.572 566.57 c 0
 259.302 558.861 l 1
 252.254 561.456 246.854 562 244 562 c 0
 218 562 l 0
 218 562 214.042 564.252 205.338 558.449 c 0
 198 550 l 1
311 604 m 0
 311 642.717 280.537 677 234 677 c 0
 217.863 677 193 674.142 193 651 c 0
 193 642.716 l 1
 194 641.716 l 1
 194 564 l 0
 194 536.465 227.014 540 234 540 c 0
 297.114 540 311 580.336 311 604 c 0
258 352 m 0
 364.937 352 453 439.634 453 544 c 0
 453 651.096 365.096 739 258 739 c 0
 153.745 739 65 651.092 65 544 c 0
 65 439.637 153.903 352 258 352 c 0
258 355 m 0
 154.248 355 70 440.926 70 544 c 0
 70 650.205 154.25 735 258 735 c 0
 363.989 735 449 649.989 449 544 c 0
 449 441.143 363.992 355 258 355 c 0
EndSplineSet
EndChar

StartChar: degree
Encoding: 176 176 103
Width: 212
GlyphClass: 2
Flags: HW
HStem: 496 38<67.3347 146.833> 653 37<67.5418 145.575>
VStem: 12 40<548.199 639.382> 162 38<548.7 637.058>
LayerCount: 2
Fore
SplineSet
106 670 m 0
 147.095 670 180 634.76 180 593 c 0
 180 550.467 146.313 516 106 516 c 0
 66.468 516 32 549.692 32 593 c 0
 32 636.308 66.468 670 106 670 c 0
106 673 m 0
 62.2083 673 32 635.105 32 594 c 0
 32 551.654 63.3995 514 107 514 c 0
 153.153 514 182 554.185 182 593 c 0
 182 633.383 150.909 673 106 673 c 0
EndSplineSet
EndChar

StartChar: plusminus
Encoding: 177 177 104
Width: 701
GlyphClass: 2
Flags: HW
HStem: -12 57<53 648.948> 280 58<53 322 379 648.948>
VStem: 322 57<71 280 338 546.977>
LayerCount: 2
Fore
SplineSet
76 300 m 2
 74.8351 300 73.708 300.064 73.0541 300.11 c 1
 72.9782 301.777 73 301.165 73 302 c 0
 73 316 l 0
 73 316.717 73.0459 317.463 73.068 317.824 c 1
 74.2999 317.958 75.4099 318 77 318 c 0
 342 318 l 1
 342 527 l 1
 356 527 l 0
 357.17 527 358.836 526.915 358.994 526.905 c 1
 359.005 525.905 359 527 359 526 c 0
 359 318 l 1
 629 318 l 1
 629 304 l 0
 629 302.338 628.823 300.762 628.759 300.297 c 1
 626.898 300.057 624.924 300 622 300 c 0
 359 300 l 1
 359 91.005 l 1
 358 90.9963 359 91 358 91 c 0
 344 91 l 0
 342.781 91 342 91.0389 342 91.0389 c 1
 342 300 l 1
 76 300 l 2
76 8 m 2
 74.8823 8 73.4219 8.0536 73.0502 8.07167 c 1
 72.9896 9.41785 73 9.19372 73 10 c 0
 73 23 l 0
 73 23.7056 73.0571 24.7877 73.0634 24.8973 c 1
 74.4045 24.986 75.4271 25 77 25 c 0
 629 25 l 1
 629 12 l 0
 629 10.3383 628.823 8.76211 628.759 8.2973 c 1
 626.898 8.0569 624.924 8 622 8 c 0
 76 8 l 2
EndSplineSet
EndChar

StartChar: acute
Encoding: 180 180 105
Width: 227
GlyphClass: 2
Flags: HW
HStem: 474 227
VStem: 15 197
LayerCount: 2
Fore
SplineSet
175 681 m 0
 184.765 681 192 674.574 192 664 c 0
 192 655.039 186.361 646.675 173.533 632.812 c 1
 128.356 586.662 46.4737 503.955 36.544 494.687 c 1
 35.8505 494.276 35.5232 494.193 35 494.081 c 1
 35.0014 494.883 35.012 495.118 35.0202 495.28 c 1
 36.4144 499.417 54.6318 526.885 136.692 647.98 c 1
 147.096 664.164 159.646 681 175 681 c 0
EndSplineSet
EndChar

StartChar: paragraph
Encoding: 182 182 106
Width: 750
GlyphClass: 2
Flags: HW
HStem: -204 53<606.812 684.35> -18 36<300.806 410.564> 679 31<341.197 437.5> 694 39<593.204 669.63>
VStem: 26 172<173.297 423.162> 365 26<175.738 468.644> 444 37<128.563 491.261> 670 54<640.104 693.031>
LayerCount: 2
Fore
SplineSet
464 315 m 0
 464 498.719 517 582.07 517 607 c 0
 517 626.406 497.642 673 466 673 c 0
 447.386 673 446.858 663.142 446.858 663.142 c 0
 444.595 660.88 l 1
 443.152 658.024 l 0
 396.641 566.04 371 459.482 371 323 c 0
 371 208.076 392.026 32 438 32 c 0
 466.081 32 480.774 69.0829 486.57 83.5722 c 0
 488.707 88.9156 l 1
 487.677 94.5777 l 0
 479.723 138.326 464 227.261 464 315 c 0
459 665 m 0
 459 703.874 400.308 699 396 699 c 0
 293.321 699 233.076 582.471 207.051 506.4 c 1
 187.241 446.969 178 384.004 178 321 c 0
 178 320 l 0
 178 146.884 242.292 -2 359 -2 c 0
 375.4 -2 432 0.709647 432 39 c 0
 432 63.8144 385 141.496 385 313 c 0
 385 541.775 459 633.431 459 665 c 0
530.268 636.567 m 1
 528.324 633.218 526.384 629.593 525.028 626.776 c 1
 471.238 518.161 461 411.407 461 321 c 0
 461 316.949 l 1
 462.021 121.363 512.02 -29.9312 557.323 -100.043 c 1
 577.972 -130.471 602.385 -157.112 622.134 -168.398 c 1
 639.755 -178.309 658.748 -176.475 664.393 -178.115 c 1
 662.279 -180.496 655.717 -184 647 -184 c 0
 643 -184 l 0
 635.965 -184 623.833 -184.663 598.851 -160.572 c 0
 577.036 -139.63 561.708 -110.704 545.709 -80.7036 c 1
 515.163 -21.5863 511.335 -5.87597 496.244 47.4464 c 0
 487.701 77.6311 l 1
 463.941 57.1482 l 0
 434.125 31.445 420.3 8.98507 327.413 3.00092 c 1
 317.386 2.86296 313.223 2 308 2 c 0
 151.941 2 46 130.439 46 295 c 0
 46 526.583 234.474 690 390 690 c 0
 480.044 690 488.23 636 525 636 c 0
 526.678 636 528.577 636.221 530.268 636.567 c 1
654.011 712.949 m 1
 655.005 712.978 656.181 713 657 713 c 0
 691.597 713 704 690.02 704 673 c 0
 704 647.791 679.336 632 670 632 c 0
 668.378 632 667.203 632.664 667.005 632.82 c 1
 666.963 633.819 667 632 667 633 c 0
 667 634.526 690 637.368 690 674 c 0
 690 690.423 676.949 708.266 654.011 712.949 c 1
EndSplineSet
EndChar

StartChar: periodcentered
Encoding: 183 183 107
Width: 227
GlyphClass: 2
Flags: HW
HStem: 201 117<67.9846 158.932>
VStem: 54 119<214.578 303.753>
LayerCount: 2
Fore
SplineSet
113 298 m 0
 134.438 298 153 280.309 153 259 c 0
 153 238.841 136.849 221 114 221 c 0
 92.8865 221 74 237.099 74 260 c 0
 74 283.019 91.7245 298 113 298 c 0
EndSplineSet
EndChar

StartChar: cedilla
Encoding: 184 184 108
Width: 199
GlyphClass: 2
Flags: HW
HStem: -199 36<27.665 118.434>
VStem: 46 47<-77.5 -20.3329> 122 61<-160.177 -95.2734>
LayerCount: 2
Fore
SplineSet
108.366 -178.783 m 1
 129.388 -170.537 142 -152.184 142 -130 c 0
 142 -93.2333 108.228 -69.7784 72.6336 -61.9092 c 1
 73.6609 -59.307 75.1672 -55.5125 75.3482 -55.0573 c 1
 84.645 -69.5191 94.7187 -67 97 -67 c 0
 99 -67 l 0
 139.463 -67 163 -85.7453 163 -123 c 0
 163 -148.837 153.878 -175.873 108.366 -178.783 c 1
EndSplineSet
EndChar

StartChar: guillemotright
Encoding: 187 187 109
Width: 365
GlyphClass: 2
Flags: HW
HStem: 52 282<32 45 174 186>
VStem: 123 79<171.321 215.498> 263 79<171.129 215.713>
LayerCount: 2
Fore
SplineSet
216.862 279.447 m 1
 238.972 260.475 267.932 235.601 316.968 193.927 c 1
 274.128 156.471 242.473 128.73 222.849 111.605 c 1
 236.342 127.122 252.981 146.274 275.136 171.928 c 0
 275.95 172.87 l 1
 276.641 173.906 l 0
 279.007 177.454 283 184.771 283 193 c 0
 283 201.04 280.259 206.667 276.641 212.094 c 0
 275.868 213.254 l 1
 274.941 214.296 l 0
 241.51 251.862 219.454 276.395 204.969 292.587 c 0
 216.862 279.447 l 1
76.7202 106.254 m 1
 89.7182 121.45 109.323 144.233 132.519 171.209 c 1
 138.186 177.303 143 182.685 143 194 c 0
 143 203.126 138.867 208.755 136.641 212.094 c 0
 135.824 213.319 l 1
 75.7574 279.776 l 1
 98.6551 259.968 131.197 231.734 180.941 188.852 c 0
 176.018 193.096 l 1
 124.85 148.355 97.8044 124.583 76.7202 106.254 c 1
EndSplineSet
EndChar

StartChar: questiondown
Encoding: 191 191 110
Width: 380
GlyphClass: 2
Flags: HW
HStem: -16 38<137.806 231.719> -7 103<256.943 320.057> 572 118<147.34 238.609>
VStem: 15 85<60.8065 202.07> 133 120<586.247 675.996> 181 52<345.138 480.296>
LayerCount: 2
Fore
SplineSet
193 592 m 0
 171.562 592 153 609.691 153 631 c 0
 153 651.02 170.278 670 193 670 c 0
 213.643 670 233 653.221 233 630 c 0
 233 607.414 214.598 592 193 592 c 0
158.475 6.36518 m 1
 67.9091 19.8307 35 87.0416 35 131 c 0
 35 235.433 201 264.635 201 423 c 0
 201 433.62 200 440.118 200 445 c 0
 200 460.61 206.072 460.971 206.147 460.992 c 1
 206.724 460.481 213 453.212 213 426 c 0
 213 310.056 80 258.166 80 126 c 0
 80 71.3754 110.777 21.6465 158.475 6.36518 c 1
207.839 4.35932 m 1
 277.934 21.6131 266.957 76 295 76 c 0
 306.983 76 317 66.1372 317 52 c 0
 317 45.9908 320.508 23.5738 268.667 12.5256 c 1
 249.04 7.99649 228.476 5.31165 207.839 4.35932 c 1
EndSplineSet
EndChar

StartChar: AE
Encoding: 198 198 117
Width: 1010
GlyphClass: 2
Flags: HMW
HStem: -6 45<-3.94116 79.1425 181.881 269.971> 0 62<607.348 730.546> 0 55<639.454 874.356> 300 52<322.58 517> 369 58<608.877 817.602> 638 54<609.095 872.107>
VStem: 517 89<65 300 352 366.058 427 630.512> 819 54<271.329 368.925 428.417 512.682> 909 44<525.207 582.383>
LayerCount: 2
Back
SplineSet
508 352 m 6x3980
 512 352 517 354 517 361 c 6
 517 619 l 5
 516 627 512 631 507 631 c 4
 503 631 499 629 496 626 c 4
 452 581 321 366 321 356 c 4
 321 352 326 352 330 352 c 6
 508 352 l 6x3980
308 675 m 4
 308 680 311 701 322 701 c 4xb380
 331 701 359 697 459 693 c 4x3980
 510 691 903 693 912 691 c 4
 921 688 923 682 924 675 c 4
 931 631 953 548 953 544 c 4
 953 533 940 525 928 525 c 4
 920 525 913 528 909 535 c 4
 902 547 869 618 862 629 c 4
 856 638 849 638 830 638 c 6
 639 638 l 6
 608 638 608 618 608 596 c 6
 608 449 l 6
 608 439 609 427 628 427 c 6
 781 427 l 6
 817 427 819 440 819 473 c 6
 819 491 l 6
 819 501 822 513 846 513 c 4
 872 513 873 495 873 484 c 6
 873 300 l 6
 873 289 872 271 846 271 c 4
 820 271 819 284 819 293 c 6
 819 332 l 6
 819 363 816 369 793 369 c 6
 655 369 l 6
 631 369 606 367 606 329 c 6
 606 108 l 6
 606 78 607 66 638 62 c 4
 669 57 701 55 732 55 c 4
 802 55 862 66 875 76 c 4
 893 90 928 173 944 183 c 4
 947 185 951 186 954 186 c 4
 963 186 972 178 972 163 c 4
 972 156 970 148 941 20 c 4
 937 0 926 0 906 0 c 6
 571 0 l 6x7580
 462 0 448 -6 434 -6 c 4
 423 -6 417 5 417 15 c 4
 417 60 495 25 513 65 c 4
 517 73 517 83 517 94 c 6
 517 291 l 5
 516 299 510 300 506 300 c 6
 340 300 l 6
 287 300 289 299 283 289 c 4
 226 200 180 91 180 72 c 4
 180 44 206 46 252 39 c 4
 260 38 270 35 270 16 c 4
 270 7 267 -6 253 -6 c 4xb180
 249 -6 196 0 132 0 c 4x7180
 67 0 16 -6 12 -6 c 4
 1 -6 -4 5 -4 15 c 4
 -4 24 -1 33 7 36 c 4
 22 41 56 41 77 59 c 4
 100 79 117 140 253 360 c 4
 389 580 425 609 425 625 c 4
 425 643 399 642 328 653 c 4xb380
 312 655 308 665 308 675 c 4
EndSplineSet
Fore
SplineSet
537 332 m 1
 537 651 l 1
 517 651 l 0
 510.523 651 495.201 653.485 481.778 640.062 c 1
 433.67 590.86 301 379.727 301 352 c 0
 301 332 l 1
 537 332 l 1
327.999 674.88 m 0
 328.026 675.4 328.615 679.292 328.934 680.583 c 1
 344.712 679.352 378.972 676.186 458.201 673.016 c 0
 484.425 671.967 594.793 672 701 672 c 0
 792.599 672 881.027 671.952 904.327 671.364 c 1
 910.924 630.64 927.667 565.724 932.21 545.987 c 1
 930.872 545.363 929.147 545 928 545 c 0
 927.122 545 926.519 545.111 926.219 545.175 c 1
 919.441 557.492 888.436 633.709 878.873 648.737 c 0
 872.979 658 l 1
 639 658 l 0
 624.48 658 610.909 654.334 601.344 644.571 c 0
 585.82 628.728 588 608.259 588 596 c 0
 588 449 l 0
 588 443.406 587.317 431.874 595.883 420.82 c 0
 603.453 411.051 615.774 407 628 407 c 0
 781 407 l 0
 798.236 407 814.579 409.156 826.269 421.658 c 0
 840.473 436.848 839 455.809 839 473 c 0
 839 491 l 0
 839 491.585 839.036 492.325 839.036 492.325 c 1
 840.779 492.741 842.624 493 846 493 c 0
 849.976 493 851.844 492.293 852.176 492.157 c 1
 852.637 490.906 853 487.998 853 484 c 0
 853 300 l 0
 853 295.863 852.492 292.7 852.176 291.843 c 1
 851.425 291.535 849.724 291 846 291 c 0
 842.593 291 839.461 291.498 839.016 291.592 c 1
 838.999 292.29 839 292.441 839 293 c 0
 839 332 l 0
 839 348.539 840.501 365.566 826.601 378.759 c 0
 816.022 388.799 803.284 389 793 389 c 0
 655 389 l 0
 631.17 389 586 383.388 586 329 c 0
 586 108 l 0
 586 92.1262 584.484 75.1167 596.576 60.0834 c 0
 606.143 48.1905 620.708 44.0654 635.127 42.2049 c 1
 666.712 37.1105 700.343 35 732 35 c 0
 803.603 35 864.54 42.7209 887.237 60.1801 c 1
 911.901 79.3635 937.327 142.456 951.99 162.53 c 1
 951.875 160.281 948.467 143.478 921.438 24.1718 c 1
 921.01 22.0301 920.604 20.8699 920.505 20.5898 c 1
 918.307 20.1807 913.204 20 906 20 c 0
 445.384 20 l 1
 461.079 22.9844 516.446 15.0302 535.238 56.7927 c 0
 537 60.7074 l 1
 537 320 l 1
 340 320 l 0
 290.932 320 276.224 316.58 266 299.54 c 1
 207.861 208.764 160 102.841 160 72 c 0
 160 62.7995 162.101 53.2729 167.791 45.3244 c 0
 185.52 20.5598 218.89 23.8083 249.255 19.1875 c 1
 249.325 18.7549 250 17.6776 250 16 c 0
 250 15.467 249.942 14.4753 249.926 14.2745 c 1
 234.566 15.5904 187.551 20 132 20 c 0
 76.8864 20 31.6188 15.7585 16.0196 14.3682 c 1
 16.0035 14.6424 16 14.7842 16 15 c 0
 16 16.0628 16.1732 17.5181 16.2222 17.8154 c 1
 30.7525 21.0769 64.3684 21.8313 90.0701 43.8614 c 1
 122.351 71.9318 134.084 129.601 270.012 349.484 c 0
 405.083 567.98 445 590.376 445 625 c 0
 445 669.179 388.375 663.886 330.772 672.809 c 1
 328.961 673.036 328.223 673.286 328.099 673.324 c 1
 328.022 673.967 328.008 674.444 327.999 674.88 c 0
EndSplineSet
EndChar

StartChar: Ccedilla
Encoding: 199 199 118
Width: 700
GlyphClass: 2
Flags: HW
HStem: -195 36<325.143 416.233> -23 50<300.541 363 390.001 498.99> 439 21G<629 650.5> 650 46<283.328 486.406>
VStem: 19 96<229.101 451.697> 420 61<-156.256 -91.5187> 613 49<439.285 545.701>
LayerCount: 2
Fore
SplineSet
373.056 -51.6772 m 1
 379.231 -62.2631 390.214 -63 394 -63 c 0
 397 -63 l 0
 437.463 -63 461 -81.7453 461 -119 c 0
 461 -120 l 0
 461 -144.397 451.466 -171.814 405.921 -174.804 c 1
 425.399 -167.422 440 -149.614 440 -127 c 0
 440 -89.6061 405.993 -65.6476 370.618 -57.91 c 1
 371.767 -54.9621 372.2 -53.8567 373.056 -51.6772 c 1
390.625 -4.24744 m 1
 363.917 -3.02105 l 2
 178.697 5.48386 39 157.58 39 335 c 0
 39 429.936 82.6332 520.237 143.867 579.588 c 1
 207.911 640.807 297.227 676 385 676 c 0
 386 676 l 0
 505.781 676 547.574 623 582 623 c 0
 611.423 623 615.713 655.779 616.226 657.206 c 1
 620.99 620.975 638.913 486.093 641.699 458.999 c 1
 638.735 459.021 637.692 459.095 636.743 459.16 c 1
 635.518 464.87 634.67 473.881 632.818 488.705 c 1
 628.641 516.895 623.09 538.338 602.705 564.383 c 0
 558.467 620.492 481.951 670 383 670 c 0
 234.76 670 95 549.346 95 354 c 0
 95 161.554 226.57 7 396 7 c 0
 507.209 7 611.963 73.9483 661.066 178.994 c 1
 654.854 136.113 646.043 78.4156 644.252 70.3171 c 1
 643.675 68.1533 l 0
 643.561 67.7243 643.442 67.4228 643.385 67.2719 c 1
 642.724 67.0832 641.856 67 641 67 c 0
 612 67 l 0
 581.768 67 569.71 52.6124 554.778 43.1916 c 1
 504.457 14.3365 450.835 -1.18595 394.984 -4.0258 c 0
 390.625 -4.24744 l 1
EndSplineSet
EndChar

StartChar: multiply
Encoding: 215 215 133
Width: 552
GlyphClass: 2
Flags: HW
DStem2: 63 86 277 219 0.707107 0.707107<23.0541 245.366 302.642 523.883> 277 300 237 259 0.707107 -0.707107<-220.441 0.0306047 57.9828 280.295>
LayerCount: 2
Fore
SplineSet
74.7566 69.3052 m 0
 75.3489 70.009 76.1555 70.8714 77.1013 71.8172 c 0
 265.284 258.918 l 1
 251.183 273.101 l 0
 129.025 395.973 86.5378 436.488 74.9391 450.171 c 1
 78.5508 454.979 84.322 459.972 86.8318 461.431 c 1
 98.8299 451.934 136.789 412.641 262.818 285.898 c 0
 276.922 271.714 l 1
 291.104 285.82 l 0
 415.314 409.361 455.067 450.483 467.923 462.02 c 1
 472.64 458.367 477.527 452.815 479.301 449.98 c 1
 470.03 438.222 430.523 399.807 303.858 273.142 c 0
 289.716 259 l 1
 303.858 244.858 l 0
 428.09 120.623 469.033 81.2047 479.627 68.7433 c 1
 476.383 64.0482 470.879 58.8778 467.695 56.7566 c 1
 466.969 57.3674 466.174 58.1107 465.142 59.1421 c 0
 277 247.284 l 1
 262.858 233.142 l 0
 138.626 108.907 99.2044 67.9662 86.7434 57.3731 c 1
 82.0482 60.6174 76.8778 66.1215 74.7566 69.3052 c 0
EndSplineSet
EndChar

StartChar: Oslash
Encoding: 216 216 134
Width: 778
GlyphClass: 2
Flags: HW
HStem: -24 58<292.657 500.654> 667 53<268.469 479.38>
VStem: 18 95<244.676 473.525> 661 99<215.912 457.417>
DStem2: 183 44 196 -39 0.482254 0.876032<-79.7358 0 70.7106 665.33 734.538 805.635>
LayerCount: 2
Fore
SplineSet
740 337 m 0
 740 138.214 585.425 -4 401 -4 c 0
 344.347 -4 288.393 10.1643 236.944 35.8885 c 0
 219.662 44.5297 l 1
 210.43 27.5554 l 0
 192.42 -5.56115 185.108 -19.1561 182.674 -23.4258 c 1
 181.563 -23.7117 179.997 -24 177 -24 c 0
 174.149 -24 168.86 -23.8258 168.542 -23.8086 c 1
 174.933 -12.4101 184.122 4.07967 200.586 34.4743 c 0
 209.178 50.3374 l 1
 194.282 60.5142 l 0
 98.7296 125.792 38.9444 236.911 38 353.081 c 1
 38 544.659 196.908 700 387 700 c 0
 435.126 700 483.523 689.594 528.169 670.597 c 0
 544.995 663.437 l 1
 553.63 679.556 l 0
 567.672 705.767 575.439 720.774 578.283 724.991 c 1
 579.78 725.003 579.951 725 581 725 c 0
 586.442 725 592.111 724.334 593.561 724.086 c 1
 588.822 715.372 580.125 700.322 565.468 673.625 c 0
 556.387 657.084 l 1
 572.372 647.057 l 0
 676.192 581.933 740 462.364 740 337 c 0
93 384 m 0
 93 289.619 120.467 171.034 203.142 91.5797 c 0
 222.004 73.4518 l 1
 532.215 641.094 l 1
 514.456 650.623 l 0
 470.642 674.135 421.41 687 371 687 c 0
 237.492 687 93 593.281 93 384 c 0
397 14 m 0
 519.279 14 681 96.5468 681 319 c 0
 681 422.612 649.245 540.726 562.183 617.04 c 0
 543.47 633.443 l 1
 231.227 65.8263 l 1
 247.644 55.89 l 0
 288.253 31.3106 338.032 14 397 14 c 0
EndSplineSet
EndChar

StartChar: germandbls
Encoding: 223 223 140
Width: 529
GlyphClass: 2
Flags: HW
HStem: -19 56<332.655 442.874> -6 45<18.1294 80.4949 152.236 217.996> 360 47<9.65625 81.9186> 659 60<213.74 316.602>
VStem: 82 71<38.5658 359.712 410.048 563.25> 252 57<345.337 432.51> 258 41<68.2012 148.863> 340 81<533.904 634.935> 460 61<54.6943 152.155>
LayerCount: 2
Fore
SplineSet
87.9525 391.919 m 1
 103.453 401.203 102 416.929 102 417 c 0
 102 418.902 l 1
 102.974 518.207 129.252 608.983 182.871 654.691 c 1
 219.452 685.025 268.629 699 304 699 c 0
 361.601 699 401 663.395 401 607 c 0
 401 552.752 366.494 522.711 332.229 485.905 c 1
 347.169 510.941 360 540.192 360 575 c 0
 360 629.251 323.188 679 265 679 c 0
 234.645 679 156.127 658.486 138.154 510.477 c 1
 132.959 469.961 133 429.935 133 390 c 0
 133 380 l 0
 133 130.967 132 99.383 132 68 c 0
 132 60.4902 131.442 47.4983 140.296 35.0952 c 0
 146.12 26.9381 156.002 21.1879 165.073 18.2961 c 1
 150.444 19.3293 135.953 20 119 20 c 0
 83.7311 20 52.3076 16.7886 38.5992 15.1928 c 1
 43.5289 16.2028 54.0804 17.3908 67.3518 19.1371 c 1
 74.4258 19.8817 83.2058 23.0804 89.311 29.484 c 0
 107.274 48.3243 100.644 73.3862 101.98 100.101 c 1
 103.037 126.531 104 300.534 104 351 c 0
 104 387.528 62.8358 379.313 31.2171 380 c 1
 30 380 l 0
 29.6621 380 29.0561 380.017 29.0561 380.017 c 1
 29.2722 382.49 30.3111 386.763 30.8897 388.125 c 1
 46.1462 389.5 71.8005 386.324 87.9525 391.919 c 1
293.503 427.404 m 1
 290.729 418.536 289 408.687 289 399 c 0
 289 322.144 367.319 294.912 444.325 211.412 c 0
 468.844 184.931 501 144.057 501 97 c 0
 501 40.3808 455.867 1 397 1 c 0
 329.801 1 289.215 35.5015 281.3 48.0422 c 1
 278.159 53.9435 278 55.2316 278 65 c 0
 278 88.2866 l 1
 279.711 84.5562 279.987 84.0248 281.747 80.8761 c 1
 292.478 63.4381 333.405 17 390 17 c 0
 435.244 17 480 48.6008 480 100 c 0
 480 175.428 399.846 205.6 306.249 302.035 c 1
 283.368 324.916 272 343.439 272 368 c 0
 272 387.494 280.315 406.358 293.503 427.404 c 1
EndSplineSet
EndChar

StartChar: ae
Encoding: 230 230 147
Width: 645
GlyphClass: 2
Flags: HW
HStem: -22 54<120.893 227.079 414.939 541.487> 191 37<159.882 257.94> 376 56<370.172 486.763> 385 47<124.393 228.628>
VStem: 32 74<46.7656 152.973> 259 74<115.787 190.367 228.097 337.5> 529 98<298.142 339.608>
LayerCount: 2
Fore
SplineSet
424 396 m 0
 350.543 396 308 325.046 308 233 c 0
 308 222.412 316.576 206 333 206 c 0
 350.871 206 520.768 275.523 529.944 280.111 c 0
 542.977 286.628 549 299.338 549 310 c 0
 549 343.659 486.453 396 424 396 c 0
86 101 m 0
 86 69.0961 102.276 12 169 12 c 0
 197.408 12 227.006 23.5072 247.649 40.5076 c 1
 270.446 58.9622 279 74.5687 279 115 c 0
 279 144 l 0
 279 182.318 278.045 211 249 211 c 0
 246.311 211 l 1
 245.624 210.953 l 0
 191.237 207.202 86 193.996 86 101 c 0
447 412 m 0
 529.401 412 604.096 330.58 607.025 312.682 c 1
 606.179 303.987 575.404 293.64 538.483 280.908 c 0
 343.915 213.852 313 217.749 313 183 c 0
 313 167.304 336.764 18 481 18 c 0
 517.466 18 552.77 29.0861 583.163 48.3084 c 1
 544.028 16.4765 498.596 1 454 1 c 0
 350.244 1 344.507 74 303 74 c 0
 267.505 74 228.193 -2 146 -2 c 0
 89.0388 -2 52 39.5146 52 90 c 0
 52 91 l 0
 52 122.604 66.9647 148.922 86.4904 164.38 c 1
 130.148 199.642 250.984 208.024 250.984 208.024 c 0
 253.282 208.137 l 1
 255.494 208.77 l 0
 278.115 215.233 278 238.985 278 250 c 0
 278 278 l 0
 278 311.413 273.546 343.001 249.02 371.206 c 1
 229.247 393.451 202.821 405 176 405 c 0
 109.263 405 79.6609 341.134 73.7361 329.876 c 1
 71.2483 327.57 69.5214 327 67 327 c 0
 57.2567 327 48 335.162 48 343 c 0
 48 357.954 99.8362 412 183 412 c 0
 283.278 412 267.489 355 315 355 c 0
 326.987 355 334.337 362.053 337.914 365.629 c 1
 352.216 379.038 392.156 412 447 412 c 0
EndSplineSet
EndChar

StartChar: ccedilla
Encoding: 231 231 148
Width: 381
GlyphClass: 2
Flags: HW
HStem: -195 36<133.143 224.233> -18 64<199.932 299.226> 376 52<142.345 251.426>
VStem: 17 66<132.437 305.205> 228 61<-156.256 -91.5187>
LayerCount: 2
Fore
SplineSet
180.617 -53.2558 m 1
 189.656 -60.4875 198.719 -63 202 -63 c 0
 205 -63 l 0
 245.463 -63 269 -81.7453 269 -119 c 0
 269 -120 l 2
 269 -144.397 259.466 -171.814 213.921 -174.804 c 1
 233.399 -167.423 248 -149.614 248 -127 c 0
 248 -89.6174 213.847 -65.6157 178.792 -57.948 c 1
 179.832 -55.277 179.897 -55.11 180.617 -53.2558 c 1
199.19 2 m 1
 177.356 5.71642 l 0
 94.3728 19.8412 37 91.5271 37 197 c 0
 37 323.914 114.822 408 231 408 c 0
 300.433 408 338 372.422 338 354 c 0
 338 343.566 329.913 336 318 336 c 0
 291.698 336 270.594 396 197 396 c 0
 119.808 396 63 312.095 63 222 c 0
 63 120.429 135.613 26 241 26 c 0
 300.623 26 333.72 55.706 352.135 71.357 c 1
 321.927 34.1583 272.126 2 209 2 c 0
 199.19 2 l 1
EndSplineSet
EndChar

StartChar: divide
Encoding: 247 247 163
Width: 701
GlyphClass: 2
Flags: HW
HStem: 67 103<302.248 386.752> 231 57<53 647.954> 349 103<295.609 380.752>
VStem: 285 106<359.248 440.996> 292 105<76.9539 159.752>
CounterMasks: 1 e0
LayerCount: 2
Fore
SplineSet
76 251 m 2
 74.7495 251 73.0407 251.072 73.0407 251.072 c 1
 72.9914 252.424 73 252.2 73 253 c 0
 73 266 l 0
 73 266.772 73.0596 267.951 73.0596 267.951 c 1
 74.0389 267.991 74.8726 268 76 268 c 0
 628 268 l 1
 628 255 l 0
 628 253.306 627.816 251.701 627.751 251.238 c 1
 626.232 251.055 624.454 251 622 251 c 0
 76 251 l 2
305 400 m 0
 305 417.024 320.244 432 339 432 c 0
 357.212 432 371 417.733 371 401 c 0
 371 383.477 356.397 369 338 369 c 0
 319.076 369 305 382.844 305 400 c 0
345 87 m 0
 327.189 87 312 100.874 312 119 c 0
 312 136.666 325.441 150 344 150 c 0
 362.397 150 377 135.523 377 118 c 0
 377 100.334 363.559 87 345 87 c 0
EndSplineSet
EndChar

StartChar: oslash
Encoding: 248 248 164
Width: 467
GlyphClass: 2
Flags: HW
HStem: -19 49<173.958 305.289> 385 47<165.676 294.523>
VStem: 21 78<108.789 304.389> 378 68<109.681 294.771>
DStem2: 105 23 146 -1 0.485263 0.874368<-42.3314 1.97359 66.2418 380.82 443.734 502.726>
LayerCount: 2
Fore
SplineSet
426 204 m 0
 426 72.0658 334.93 1 233 1 c 0
 205.683 1 179.49 6.40638 153.878 17.3829 c 0
 136.944 24.6403 l 1
 128.324 8.35775 l 0
 122.617 -2.42253 118.252 -11.0377 116.665 -12.9967 c 1
 112.525 -12.9627 108.618 -12.771 107.94 -12.7317 c 1
 112.501 -4.55368 116.103 1.72322 122.512 13.3385 c 0
 130.885 28.5155 l 1
 117.052 38.9608 l 0
 73.3473 71.9624 41 130.937 41 204 c 0
 41 332.078 135.793 412 237 412 c 0
 262.776 412 289.316 405.719 314.454 395.478 c 0
 331.21 388.652 l 1
 339.676 404.642 l 0
 349.414 423.036 355.332 434.962 358.078 438.989 c 1
 362.777 438.932 367.31 438.569 369.426 438.29 c 1
 365.034 429.944 358.159 418.228 346.606 397.872 c 0
 338.016 382.736 l 1
 351.819 372.137 l 0
 401.495 333.992 426 268.405 426 204 c 0
236 10 m 0
 335.707 10 398 103.963 398 200 c 0
 398 243.644 385.315 300.016 348.427 344.728 c 0
 329.851 367.245 l 1
 145.984 39.7331 l 1
 162.825 29.7815 l 0
 188.382 14.6798 214.212 10 236 10 c 0
230 405 m 0
 166.757 405 79 352.51 79 209 c 0
 79 168.551 87.0696 113.107 121.148 68.8058 c 0
 139.691 44.699 l 1
 321.574 371.627 l 1
 305.865 381.791 l 0
 286.488 394.329 260.727 405 230 405 c 0
EndSplineSet
EndChar

StartChar: dotlessi
Encoding: 305 305 203
Width: 243
GlyphClass: 2
Flags: HW
HStem: -6 44<18.136 93.0582 163.719 228.991> 421 20G<149.5 156>
VStem: 94 67<39.1511 336.573>
LayerCount: 2
Fore
SplineSet
114 121 m 2
 114 236.96 115 294.578 115 314 c 0
 115 344.163 87.5946 352.131 45.93 368.921 c 1
 47.7513 369.676 48.5565 370.011 50.472 370.882 c 1
 108.752 398.901 135.164 412.059 146.707 417.622 c 1
 145.438 389.832 141 303.465 141 198 c 0
 141 165 l 0
 141 77.6216 135.432 44.2293 158.621 25.4998 c 0
 164.594 20.675 171.613 18.8782 175.498 18.1083 c 1
 158.554 19.3094 143.898 20 125 20 c 0
 100.139 20 74.4826 18.2637 60.9729 17.0456 c 1
 64.544 17.503 66.2188 17.7188 69.9021 18.21 c 1
 107.717 24.2604 114 54.2072 114 74 c 0
 114 121 l 2
EndSplineSet
EndChar

StartChar: OE
Encoding: 338 338 224
Width: 1018
GlyphClass: 2
Flags: HW
HStem: -24 58<295.027 503.146> 0 55<642.732 907.982> 369 58<639.607 848.8> 638 53<639.128 894.672> 667 53<268.839 477.071>
VStem: 18 94<249.63 473.331> 548 90<67.3145 365.5 427 617.33> 850 55<271.316 368.907 428.208 513.367>
LayerCount: 2
Fore
SplineSet
618 97 m 2
 618 52.5353 648.984 35 762 35 c 0
 795.217 35 886.94 37.0933 918.625 59.7253 c 0
 919.344 60.2393 l 1
 920.016 60.8149 l 0
 933.538 72.4051 937.158 83.7265 981.409 159.15 c 1
 982.168 160.542 982.999 161.756 982.999 161.756 c 1
 982.999 161.756 981.299 151.959 953.55 24.677 c 1
 953.158 23.1875 952.258 21.0111 952.068 20.6305 c 1
 950.586 20.288 946.811 20 941 20 c 0
 663 20 l 0
 510.283 20 446.717 -4 401 -4 c 0
 201.862 -4 38 158.364 38 353 c 0
 38 543.809 196.008 700 386 700 c 0
 446.436 700 484.919 688.591 525.422 681.323 c 0
 571.844 672.882 629.402 671.044 630.65 671 c 1
 936 671 l 1
 936.012 670.957 936.536 670.328 936.602 670.094 c 1
 964.18 545.995 l 1
 963.181 545.411 961.901 545 960 545 c 0
 959.257 545 958.544 545.057 958.245 545.08 c 1
 957.563 546.801 957.105 548.859 955.383 552.878 c 0
 954.88 554.051 l 1
 659.507 1055.62 954.233 555.151 954.233 555.151 c 0
 911.239 628.14 l 0
 905.701 637.554 900.569 646.524 889.819 652.571 c 0
 880.919 657.578 872.007 658 864 658 c 0
 670 658 l 0
 642.008 658 619 639.427 619 614 c 0
 619 449 l 0
 619 442.789 620.842 407 654 407 c 0
 812 407 l 0
 828.935 407 870 411.254 870 460 c 0
 870 491 l 0
 870 491.701 869.932 494 876 494 c 0
 886.192 494 885 494.254 885 484 c 0
 885 300 l 0
 885 294.899 884.048 292.278 883.815 291.804 c 1
 883.231 291.548 881.587 291 878 291 c 0
 874.121 291 871.015 291.474 870.033 291.684 c 1
 870.009 292.128 870 292.499 870 293 c 0
 870 347 l 0
 870 358.42 866.908 370.132 858.181 378.346 c 0
 846.359 389.473 832.302 389 824 389 c 0
 712 389 l 0
 674.538 389 647.478 390.651 629.968 371.191 c 0
 618.678 358.644 618 343.271 618 329 c 0
 618 97 l 2
371 687 m 2
 370 687 l 0
 237.505 687 92 593.342 92 384 c 0
 92 205.666 192.243 14 397 14 c 0
 444.987 14 495.887 25.0378 543.23 53.8108 c 1
 549.528 57.4036 555.316 59.5475 561.279 68.169 c 0
 569.405 79.9176 568 90.7299 568 104 c 0
 568 609.995 l 1
 561.27 615.964 l 0
 504.182 666.592 435.155 687 371 687 c 2
EndSplineSet
EndChar

StartChar: oe
Encoding: 339 339 225
Width: 763
GlyphClass: 2
Flags: HW
HStem: -19 57<522.033 664.959> -19 49<167.083 306.865> 376 55<487.022 605.717> 385 47<165.676 298.48>
VStem: 21 78<107.025 304.389> 378 72<117.554 196.704 226.001 294.23> 647 97<292.942 337.386>
LayerCount: 2
Fore
SplineSet
564 411 m 0
 624.439 411 685.638 370.25 718.661 323.466 c 0
 719.007 322.975 l 1
 719.383 322.506 l 0
 722.221 318.958 724 314.605 724 313 c 0
 724 312.43 l 1
 723.2 304.208 692.371 293.628 655.483 280.908 c 0
 460.915 213.852 430 217.749 430 183 c 0
 430 167.304 453.764 18 598 18 c 0
 634.736 18 671.761 30.3256 700.875 48.9215 c 1
 663.915 18.5599 619.238 1 572 1 c 0
 504.318 1 453.996 35.7633 427.324 81.9944 c 0
 411.082 110.146 l 1
 393.271 82.9605 l 0
 359.42 31.294 297.997 1 233 1 c 0
 118.069 1 41 90.3428 41 204 c 0
 41 332.078 135.793 412 237 412 c 0
 297.547 412 357.953 382.18 393.071 326.351 c 0
 410.823 298.129 l 1
 427.365 327.077 l 0
 452.821 371.627 499.916 411 564 411 c 0
667 310 m 0
 667 341.571 605.863 396 542 396 c 0
 467.672 396 426 325.936 426 233 c 0
 426 217.59 439.59 206 451 206 c 0
 467.988 206 639.845 276.562 646.944 280.111 c 0
 658.163 285.721 667 296.348 667 310 c 0
236 10 m 0
 335.707 10 398 103.963 398 200 c 0
 398 314.979 320.246 405 230 405 c 0
 166.757 405 79 352.51 79 209 c 0
 79 99.1181 138.929 10 236 10 c 0
EndSplineSet
EndChar

StartChar: Scedilla
Encoding: 350 350 236
Width: 492
GlyphClass: 2
Flags: HW
HStem: -195 36<189.143 280.233> -16 55<175.012 229 254.519 327.705> 635 50<138.512 269.954>
VStem: 32 72<479.18 595.956> 48 50<112.089 247.636> 284 61<-156.256 -91.5187> 398 73<105.358 250.11>
LayerCount: 2
Fore
SplineSet
247.1 2.42 m 1
 230.831 3.91598 l 0
 150.105 11.3391 117.29 53.9523 94.9172 65.4039 c 1
 83.1961 71.7119 76.7643 72 69 72 c 0
 57.6085 72 49.8211 69.6762 45.8379 69.1677 c 1
 49.2256 86.6361 60.4829 130.997 67.9286 225.308 c 1
 68.0068 226.167 68.2916 227.899 68.2972 227.926 c 1
 68.7515 227.97 69.3112 228 70 228 c 0
 70.6912 228 71.448 227.977 71.815 227.965 c 1
 73.4999 222.795 75.5421 208.852 78.1213 187.789 c 1
 84.4232 124.769 79.6457 130.806 107.943 93.0759 c 1
 135.846 55.1285 186.415 19 253 19 c 0
 342.135 19 418 88.0742 418 178 c 0
 418 228.844 392.436 274.8 351.73 304.199 c 0
 287.435 350.758 220.071 347.728 158.373 372.592 c 1
 83.423 401.841 52 458.994 52 516 c 0
 52 593.687 116.638 665 211 665 c 0
 289.322 665 304.252 625 340 625 c 0
 368.29 625 376.189 657.257 377.536 659.394 c 1
 376.33 645.666 374 622.02 374 583 c 0
 374 543.166 376.712 517.851 377.629 507.4 c 1
 373.905 508.761 375.665 535.322 325.969 592.265 c 1
 296.549 624.953 253.128 655 201 655 c 0
 134.415 655 84 604.129 84 541 c 0
 84 496.367 108.434 458.521 143.357 433.738 c 1
 203.933 389.99 279.003 391.136 337.156 366.602 c 1
 403.022 338.244 451 280.207 451 198 c 0
 451 99.1361 375.021 7.53681 261.201 2.98402 c 0
 247.1 2.42 l 1
236.975 -51.538 m 1
 243.185 -62.1851 254.214 -63 258 -63 c 0
 261 -63 l 0
 301.463 -63 325 -81.7453 325 -119 c 0
 325 -120 l 2
 325 -144.397 315.466 -171.814 269.921 -174.804 c 1
 289.399 -167.422 304 -149.614 304 -127 c 0
 304 -89.602 270.046 -65.6592 234.555 -57.8962 c 1
 235.625 -55.0837 236.126 -53.7683 236.975 -51.538 c 1
EndSplineSet
EndChar

StartChar: scedilla
Encoding: 351 351 237
Width: 338
GlyphClass: 2
Flags: HW
HStem: -195 36<101.143 192.233> -19 54<106 141 166.004 238.939> 380 47<98.6701 211.868> 412 20G<244 256>
VStem: 27 40<71.0105 155.76> 31 54<283.553 367.539> 196 61<-156.256 -91.5187> 230 55<295.352 359.134> 262 67<56.0454 149.045>
LayerCount: 2
Back
SplineSet
27 104 m 6x9f
 27 141 24 156 44 156 c 4x9f
 69 156 53 122 67 94 c 4
 77 73 123 35 181 35 c 4
 226 35 262 62 262 102 c 4
 262 168 174 178 142 187 c 4
 61 210 31 260 31 309 c 4
 31 369 85 427 175 427 c 4
 205 427 220 422 225 422 c 4
 234 422 238 432 250 432 c 4
 262 432 265 418 266 413 c 4
 272 378 285 312 285 308 c 4
 285 295 270 292 262 292 c 4
 241 292 244 321 230 341 c 4
 217 359 181 380 148 380 c 4
 114 380 85 359 85 327 c 4
 85 313 90 276 164 255 c 4
 215 241 262 238 299 195 c 4
 325 165 329 132 329 116 c 4
 329 52 276 -19 177 -19 c 6
 173 -19 l 5
 167 -36 166 -38 166 -40 c 4
 166 -42 167 -43 170 -43 c 6
 173 -43 l 6
 221 -43 257 -69 257 -119 c 6
 257 -120 l 6
 257 -152 240 -195 175 -195 c 4xaf
 143 -195 100 -186 96 -182 c 4
 93 -180 92 -178 92 -175 c 4
 92 -174 95 -151 106 -151 c 4x4f
 107 -151 139 -159 158 -159 c 4
 180 -159 196 -146 196 -127 c 4
 196 -100 167 -78 125 -75 c 4
 123 -75 120 -75 120 -72 c 4
 120 -71 134 -35 141 -16 c 5
 103 -11 41 11 29 47 c 4
 27 53 27 59 27 65 c 6
 27 104 l 6x9f
EndSplineSet
Fore
SplineSet
164.123 1 m 1
 143.733 3.81242 l 0
 117.659 7.40877 76.4059 21.6456 57.9916 39.2926 c 1
 48.9685 48.3158 47 50.0116 47 65 c 0
 47 89.6876 l 2
 47.7734 87.8344 48.4197 86.4392 49.0255 85.2277 c 1
 63.0501 55.7761 115.002 15 181 15 c 0
 233.058 15 282 47.7108 282 102 c 0
 282 189.055 170.389 199.791 147.463 206.239 c 0
 73.2106 227.323 51 269.521 51 309 c 0
 51 356.088 93.7085 407 175 407 c 0
 204.236 407 211.952 402 225 402 c 0
 236.249 402 244.899 408.578 246.3 409.545 c 1
 251.862 377.267 260.873 331.161 264.404 310.74 c 1
 259.806 320.253 258.827 334.694 246.3 352.59 c 1
 228.581 377.124 188.482 400 148 400 c 0
 106.854 400 65 373.323 65 327 c 0
 65 305.268 77.3461 258.802 158.623 235.736 c 1
 213.327 220.72 252.479 218.401 283.886 181.901 c 0
 305.648 156.792 309 128.979 309 116 c 0
 309 62.9309 265.266 1 177 1 c 0
 164.123 1 l 1
148.975 -51.538 m 1
 155.185 -62.1851 166.214 -63 170 -63 c 0
 211.13 -63 237 -82.6752 237 -119 c 0
 237 -120 l 0
 237 -144.397 227.466 -171.814 181.921 -174.804 c 1
 201.399 -167.423 216 -149.614 216 -127 c 0
 216 -89.602 182.046 -65.6592 146.555 -57.8962 c 1
 147.625 -55.0837 148.126 -53.7683 148.975 -51.538 c 1
EndSplineSet
EndChar

StartChar: Tcommaaccent
Encoding: 354 354 240
Width: 692
GlyphClass: 2
Flags: HW
HStem: -195 36<285.143 376.233> -6 53<202.22 307.561 402.04 510.545> 622 66<95.0021 308.605 402.112 608.482>
VStem: 309 93<49.375 621.698> 380 61<-156.256 -91.5187>
LayerCount: 2
Fore
SplineSet
362.156 20.2299 m 1
 331.697 19.9977 l 0
 266.622 19.0117 230.593 14.1823 222.472 14.0053 c 1
 222.085 16.1836 222 17.4614 222 20 c 0
 222 20.6596 222.025 21.6984 222.025 21.6984 c 1
 230.447 23.4578 248.047 24.2984 276.99 27.0993 c 0
 317.486 31.1489 329 59.226 329 84 c 0
 329 591 l 0
 329 598.912 329.945 614.567 318.112 627.939 c 0
 309.4 637.784 296.186 642 282 642 c 0
 133 642 l 0
 117.416 642 104.612 640.604 93.637 632.694 c 0
 84.3247 625.982 80.25 617.221 77.1557 611.032 c 0
 50.2004 557.779 38.9447 533.875 34.7626 529.014 c 1
 34.3944 529.001 34.3098 529 34 529 c 0
 34 529 32 528.224 32 534 c 0
 32 535 l 0
 32 535 32.7436 540.696 60.375 667.975 c 1
 60.9204 667.994 61.3841 668 62 668 c 0
 644.178 668 l 1
 644.769 665.142 644.772 664.954 645.295 661.554 c 1
 664.447 563.892 668.82 539.879 669 536.886 c 1
 668.985 536.451 668.976 536.42 668.976 536.42 c 1
 667.187 538.803 666.24 540.641 664.352 543.946 c 0
 620.319 620.775 613.973 642 571 642 c 0
 424 642 l 0
 411.969 642 399.945 638.314 391.959 629.217 c 0
 380.959 616.686 382 602.37 382 595 c 0
 382 71 l 0
 382 63.0536 382.65 53.047 389.65 43.9512 c 0
 407.606 20.619 438.461 26.8141 490.865 22.1112 c 1
 490.937 21.2545 490.988 17.0887 491.002 14.225 c 1
 474.464 15.512 424.601 20 364 20 c 0
 362.156 20.2299 l 1
333.002 -51.5847 m 1
 339.201 -62.2112 350.214 -63 354 -63 c 0
 357 -63 l 0
 397.463 -63 421 -81.7453 421 -119 c 0
 421 -120 l 2
 421 -144.397 411.466 -171.814 365.921 -174.804 c 1
 385.399 -167.422 400 -149.614 400 -127 c 0
 400 -89.6029 366.034 -65.6566 330.569 -57.8993 c 1
 331.91 -54.4104 332.126 -53.8525 333.002 -51.5847 c 1
EndSplineSet
EndChar

StartChar: tcommaaccent
Encoding: 355 355 241
Width: 333
GlyphClass: 2
Flags: HW
HStem: -195 36<113.143 204.233> -18 64<178.638 241.831> 363 54<156.006 290.812>
VStem: 76 69<55.2482 362.954> 208 61<-156.256 -91.5187>
LayerCount: 2
Fore
SplineSet
168.269 0.855908 m 1
 159.228 3.30453 l 0
 122.455 13.2639 100.632 46.3704 95.9271 104.709 c 1
 95.0066 114.835 95 123.907 95 135 c 0
 95 178.482 99 333.239 99 356 c 0
 99 362.422 93.8036 385 72 385 c 0
 50.3541 385 l 1
 69.1705 402.029 102.915 432.161 136.765 487.382 c 1
 136.433 467.503 136 447.508 136 437 c 0
 136 425.861 138.74 413.438 148.805 405.17 c 0
 158.409 397.281 168.913 397 176 397 c 0
 265.52 397 l 1
 267.827 396.539 270.013 396 274 396 c 0
 276.211 396 279.038 395.889 279.854 395.804 c 1
 279.26 391.899 277.728 386.274 276.534 383.082 c 1
 274.31 382.985 274.516 383 273 383 c 0
 156 383 l 0
 143.114 383 126 371.783 126 354.053 c 1
 125.001 167.186 125 144.012 125 120 c 0
 125 85.186 134.758 26 196 26 c 0
 244.389 26 280.954 68.5183 298.674 81.5404 c 1
 238.253 12.5115 204.811 3.46602 183.575 1.94917 c 0
 168.269 0.855908 l 1
161.097 -51.7487 m 1
 167.255 -62.3051 178.214 -63 182 -63 c 0
 185 -63 l 0
 225.463 -63 249 -81.7453 249 -119 c 0
 249 -120 l 2
 249 -144.397 239.466 -171.814 193.921 -174.804 c 1
 213.399 -167.423 228 -149.614 228 -127 c 0
 228 -89.6095 193.949 -65.638 158.67 -57.9214 c 1
 160.083 -54.3179 160.229 -53.9496 161.097 -51.7487 c 1
EndSplineSet
EndChar

StartChar: longs
Encoding: 383 383 261
Width: 240
GlyphClass: 2
Flags: HW
HStem: -6 45<18.0677 79.8315 153 229.988> 360 48<10.5069 82.2295> 653 67<224.432 344.919>
VStem: 84 69<38.7292 359.683 408.753 564.612>
LayerCount: 2
Fore
SplineSet
160.007 18.9769 m 1
 148.956 19.5828 136.692 20 124 20 c 0
 84.5329 20 51.5475 16.237 37.5847 14.6055 c 1
 45.2007 15.994 54.3435 17.0107 67.9229 19.2127 c 1
 98.4683 23.2855 99.349 54.358 99.9363 61.4051 c 0
 102.059 87.9367 104 155.746 104 350 c 0
 104 385.731 65.7796 379.279 31.2086 380 c 1
 30.0268 380.003 l 1
 30.1465 384.096 30.7169 387.012 30.9725 388 c 1
 31.9725 388 30.8002 387.976 31.7994 388.016 c 0
 68.1831 389.472 102 384.411 102 418 c 0
 102 418.744 l 1
 103.029 457.8 108.753 542.029 142.312 600.984 c 1
 178.199 661.993 254.698 700 308 700 c 0
 353.15 700 360 676.928 360 668 c 0
 360 659.381 353.652 649 338 649 c 0
 321.552 649 296.452 673 255 673 c 0
 161.248 673 132 550.023 132 436 c 0
 132 420.007 133 406.735 133 365 c 0
 133 61 l 0
 133 55.097 132.401 42.8606 141.417 31.3707 c 0
 145.594 26.048 152.702 21.462 160.007 18.9769 c 1
206.252 14.9752 m 1
 207.445 14.8968 209.453 14.6653 209.573 14.6553 c 1
 209.28 14.6898 207.408 14.8416 206.252 14.9752 c 1
EndSplineSet
EndChar

StartChar: uni0237
Encoding: 567 567 262
Width: 232
GlyphClass: 2
Flags: HW
HStem: -231 77<-30.0167 54.2285> 422 20G<152.5 158>
VStem: 95 71<-117.424 346.052>
LayerCount: 2
Fore
SplineSet
76.4067 -165.773 m 1
 49.3838 -192.111 19.7988 -211 2 -211 c 0
 -10.4836 -211 -16 -203.956 -16 -197 c 0
 -16 -187.037 -7.91041 -174 8 -174 c 0
 15.1727 -174 23.7788 -177 38 -177 c 0
 47.7871 -177 62.1164 -174.769 76.4067 -165.773 c 1
101.095 -139.564 m 1
 109.729 -123.971 115 -103.329 115 -78 c 0
 115 -59.5447 114 -5.96016 114 102 c 0
 114 228.932 116 292.228 116 314 c 0
 116 320.993 115.636 329.019 111.622 337.325 c 0
 102.574 356.045 85.4715 362.485 56.8333 379.75 c 1
 73.2158 387.053 100.288 398.29 143.91 416.923 c 1
 143.515 391.519 142 335.15 142 235 c 0
 142 54.9023 146 -36.0905 146 -65 c 0
 146 -79.7359 143.578 -83.9777 134.577 -97.5799 c 1
 130.063 -103.821 117.559 -120.717 101.095 -139.564 c 1
EndSplineSet
EndChar

StartChar: circumflex
Encoding: 710 710 263
Width: 215
GlyphClass: 2
Flags: HW
HStem: 479 221
VStem: 16 183<482 499>
LayerCount: 2
Fore
SplineSet
168.929 523.212 m 1
 137.387 578.613 134.79 597 108 597 c 0
 80.1225 597 74.3044 573.704 45.8582 524.17 c 1
 59.3172 565.286 84.7688 637.304 96.312 662.956 c 1
 98.8426 668.861 103.957 677.729 106.689 679.733 c 1
 116.338 671.981 133.543 626.332 168.929 523.212 c 1
EndSplineSet
EndChar

StartChar: caron
Encoding: 711 711 264
Width: 215
GlyphClass: 2
Flags: HW
HStem: 479 221
VStem: 16 183<680 697>
LayerCount: 2
Fore
SplineSet
168.701 653.278 m 1
 155.418 612.564 130.043 540.653 118.726 516.132 c 1
 116.116 510.042 111.076 501.295 108.311 499.267 c 1
 99.4809 506.361 78.8054 560.038 46.0935 655.709 c 1
 58.032 634.762 77.6017 600.754 79.229 597.821 c 1
 80.059 596.161 l 1
 81.3826 594.506 l 0
 90.1691 583.523 103.506 582 107 582 c 0
 134.655 582 140.905 605.56 168.701 653.278 c 1
EndSplineSet
EndChar

StartChar: breve
Encoding: 728 728 265
Width: 272
GlyphClass: 2
Flags: HW
HStem: 481 68<83.8293 182.514>
VStem: 15 57<564.065 630.344>
LayerCount: 2
Fore
SplineSet
44.9516 587.971 m 1
 48.6456 581.424 51.2174 577.432 56.1614 570.783 c 1
 74.5852 547.752 99.4257 529 132 529 c 0
 133 529 l 0
 175.709 529 204.048 559.236 220.799 583.012 c 1
 202.379 539.935 172.897 501 128 501 c 0
 99.3665 501 66.8928 514.362 44.9516 587.971 c 1
EndSplineSet
EndChar

StartChar: dotaccent
Encoding: 729 729 266
Width: 146
GlyphClass: 2
Flags: HW
HStem: 479 112<28.2549 118.311>
VStem: 15 116<492.202 577.369>
LayerCount: 2
Fore
SplineSet
35 534 m 0
 35 554.014 53.4566 571 73 571 c 0
 94.5823 571 111 554.344 111 535 c 0
 111 515.963 93.647 499 73 499 c 0
 50.9325 499 35 514.995 35 534 c 0
EndSplineSet
EndChar

StartChar: ring
Encoding: 730 730 267
Width: 196
GlyphClass: 2
Flags: HW
HStem: 474 39<63.0263 133.711> 612 38<63.3267 133.209>
VStem: 13 40<522.079 602.575> 144 39<521.969 601.702>
LayerCount: 2
Fore
SplineSet
98 630 m 0
 134.002 630 163 598.848 163 562 c 0
 163 523.455 133.434 494 98 494 c 0
 63.5174 494 33 523.66 33 562 c 0
 33 599.382 63.7214 630 98 630 c 0
98 632 m 0
 60.1093 632 33 598.437 33 563 c 0
 33 526.661 60.2781 493 99 493 c 0
 139.72 493 164 529.519 164 562 c 0
 164 596.179 137.424 632 98 632 c 0
EndSplineSet
EndChar

StartChar: tilde
Encoding: 732 732 268
Width: 336
GlyphClass: 2
Flags: HW
HStem: 568 54<166.82 263.676> 613 52<62.1629 146.569>
VStem: 16 304
LayerCount: 2
Fore
SplineSet
223 602 m 0
 234.587 602 247.888 605.369 254.646 608.052 c 1
 252.573 606.411 253.26 606.945 251.82 605.865 c 1
 239.465 596.158 223.805 588 206 588 c 0
 168.7 588 156.665 633 99 633 c 0
 91.209 633 82.5576 631.313 76.9398 629.621 c 1
 87.3478 639.517 95.9696 645 111 645 c 0
 141.627 645 163.619 602 223 602 c 0
EndSplineSet
EndChar

StartChar: emdash
Encoding: 8212 8212 270
Width: 1068
GlyphClass: 2
Flags: HW
HStem: 224 55<27.0354 1041.88>
LayerCount: 2
Fore
SplineSet
47 250 m 2
 47 254 l 0
 47 255.776 47.0748 258.332 47.1077 259 c 1
 1021.84 259 l 1
 1021.99 256.891 1022 255.809 1022 254 c 0
 1022 252 l 0
 1022 248.849 1021.87 245.383 1021.8 244 c 1
 47.0734 244 l 1
 46.9913 246.337 47 247.727 47 250 c 2
EndSplineSet
EndChar

StartChar: quoteleft
Encoding: 8216 8216 271
Width: 227
GlyphClass: 2
Flags: HW
HStem: 464 98<82.4082 175.109>
VStem: 39 39<567.528 642.282>
LayerCount: 2
Fore
SplineSet
125 484 m 0
 101.024 484 59 501.815 59 576 c 0
 59 579.79 59.165 584.392 59.3107 587.212 c 1
 63.992 565.193 83.3982 542 121 542 c 0
 129.216 542 135.216 543 139 543 c 0
 166.598 543 169 528.149 169 520 c 0
 169 506.333 155.131 484 125 484 c 0
EndSplineSet
EndChar

StartChar: quoteright
Encoding: 8217 8217 272
Width: 227
GlyphClass: 2
Flags: HW
HStem: 586 98<52.2751 144.908>
VStem: 149 40<505.811 580.483>
LayerCount: 2
Fore
SplineSet
148.976 497.411 m 1
 146.565 494.134 143.537 490.851 141.77 489.16 c 1
 143.989 491.596 146.422 494.338 148.976 497.411 c 1
168.437 557.084 m 1
 165.379 578.666 146.85 606 106 606 c 0
 97.7836 606 91.7836 605 88 605 c 0
 60.7975 605 59 619.126 59 628 c 0
 59 642.148 72.1847 664 102 664 c 0
 126.178 664 169 645.929 169 572 c 0
 169 567 168.787 561.802 168.437 557.084 c 1
EndSplineSet
EndChar

StartChar: quotesinglbase
Encoding: 8218 8218 273
Width: 227
GlyphClass: 2
Flags: HW
HStem: -44 98<51.8914 144.152>
VStem: 148 40<-124.657 -49.5172>
LayerCount: 2
Fore
SplineSet
102 34 m 0
 125 34 168 16.0224 168 -58 c 0
 168 -62.923 167.653 -70.032 167.452 -72.7186 c 1
 164.249 -50.2614 146.056 -24 105 -24 c 0
 96.6137 -24 91.6137 -25 88 -25 c 0
 60.4021 -25 58 -10.1492 58 -2 c 0
 58 11.6674 71.8693 34 102 34 c 0
EndSplineSet
EndChar

StartChar: quotedblleft
Encoding: 8220 8220 274
Width: 416
GlyphClass: 2
Flags: HW
HStem: 464 98<82.0918 174.725 272.092 364.725>
VStem: 38 40<567.528 642.751> 228 40<567.528 642.751>
LayerCount: 2
Fore
SplineSet
271.626 655.69 m 1
 272.309 656.475 273.36 657.627 273.714 658.005 c 1
 272.861 657.069 272.393 656.547 271.626 655.69 c 1
248.579 591.163 m 1
 251.533 569.149 269.739 542 311 542 c 0
 319.216 542 325.216 543 329 543 c 0
 356.202 543 358 528.874 358 520 c 0
 358 505.852 344.815 484 315 484 c 0
 290.822 484 248 502.071 248 576 c 0
 248 580.966 248.226 586.359 248.579 591.163 c 1
81.6262 655.69 m 1
 82.3088 656.475 83.3603 657.627 83.7143 658.005 c 1
 82.8606 657.068 82.3932 656.547 81.6262 655.69 c 1
58.5794 591.163 m 1
 61.5331 569.149 79.7394 542 121 542 c 0
 129.216 542 135.216 543 139 543 c 0
 166.202 543 168 528.874 168 520 c 0
 168 505.852 154.815 484 125 484 c 0
 100.822 484 58 502.071 58 576 c 0
 58 580.966 58.2264 586.359 58.5794 591.163 c 1
EndSplineSet
Substitution2: "'ss01' Style Set 1 in Latin lookup 0 subtable" quotedblleft.001
EndChar

StartChar: quotedblright
Encoding: 8221 8221 275
Width: 416
GlyphClass: 2
Flags: HW
HStem: 586 98<51.8914 144.152 241.891 334.152>
VStem: 148 40<505.343 580.483> 338 40<505.343 580.483>
LayerCount: 2
Fore
SplineSet
102 664 m 0
 125 664 168 646.022 168 572 c 0
 168 567.077 167.653 559.968 167.452 557.281 c 1
 164.249 579.739 146.056 606 105 606 c 0
 96.6137 606 91.6137 605 88 605 c 0
 60.4021 605 58 619.851 58 628 c 0
 58 641.667 71.8693 664 102 664 c 0
292 664 m 0
 315 664 358 646.022 358 572 c 0
 358 567.077 357.653 559.968 357.452 557.281 c 1
 354.25 579.739 336.056 606 295 606 c 0
 286.614 606 281.614 605 278 605 c 0
 250.402 605 248 619.851 248 628 c 0
 248 641.667 261.869 664 292 664 c 0
EndSplineSet
Substitution2: "'ss01' Style Set 1 in Latin lookup 0 subtable" quotedblright.001
EndChar

StartChar: bullet
Encoding: 8226 8226 277
Width: 286
GlyphClass: 2
Flags: HW
HStem: 188 160<89.0344 196.966>
VStem: 63 160<214.034 321.966>
LayerCount: 2
Fore
SplineSet
143 208 m 0
 108.814 208 83 237.495 83 268 c 0
 83 302.186 112.495 328 143 328 c 0
 177.186 328 203 298.505 203 268 c 0
 203 233.814 173.505 208 143 208 c 0
EndSplineSet
EndChar

StartChar: guilsinglleft
Encoding: 8249 8249 280
Width: 223
GlyphClass: 2
Flags: HW
HStem: 52 282<179 192>
VStem: 22 79<170.963 215.713>
LayerCount: 2
Fore
SplineSet
149.275 104.278 m 0
 127.056 123.496 98.1631 148.686 47.0081 193.113 c 1
 106.031 243.937 141.44 274.551 162.288 292.318 c 0
148.128 280.166 m 0
 134.66 264.866 115.047 242.664 90.4093 214.694 c 1
 89.991 214.275 81 206.658 81 194 c 0
 81 173.073 90.3748 170.953 155.834 95.002 c 0
EndSplineSet
EndChar

StartChar: guilsinglright
Encoding: 8250 8250 281
Width: 223
GlyphClass: 2
Flags: HW
HStem: 52 282<32 43>
VStem: 122 79<170.161 215.625>
LayerCount: 2
Fore
SplineSet
72.0644 103.37 m 1
 67.1843 99.1592 63.5704 92.8385 58.1544 88.1585 c 1
 64.2669 91.6583 l 0
 72.0644 103.37 l 1
75.3056 279.448 m 1
 96.7641 261.033 129.697 232.695 176.055 193.031 c 1
 162.964 181.323 136.619 159.02 80.8865 110.978 c 1
 133.157 171.752 142 173.473 142 193 c 0
 142 202.18 136.977 209.94 131.68 215.722 c 1
 75.3056 279.448 l 1
EndSplineSet
EndChar

StartChar: fraction
Encoding: 8260 8260 282
Width: 435
GlyphClass: 2
Flags: HW
LayerCount: 2
Fore
SplineSet
34.6417 -166.999 m 1
 33.4437 -166.99 31.7677 -166.919 30.1895 -166.804 c 1
 48.4092 -129.269 120.096 10.8904 400.821 561.921 c 0
 401.275 562.812 400.634 561.585 400.15 560.71 c 1
 402.198 564.124 397.175 560 398 560 c 0
 409.887 560 409 562 409 562 c 0
 409 562 410.008 567.271 407.026 558.325 c 0
 406.71 557.376 407.808 560.187 408.195 561.109 c 1
 101.967 -37.4757 46.0689 -146.593 34.6417 -166.999 c 1
EndSplineSet
EndChar

StartChar: Euro
Encoding: 8364 8364 283
Width: 713
GlyphClass: 2
Flags: HW
HStem: -14 60<351.543 560.238> 234 62<49 119 193 558> 345 61<45 119 193 605> 594 60<346.586 559.047>
VStem: 119 61<296 345>
LayerCount: 2
Fore
SplineSet
451 614 m 0
 358.59 614 229.552 565.045 174.204 412.835 c 0
 164.446 386 l 1
 600.189 386 l 1
 591.582 365 l 1
 160 365 l 1
 160 345 l 0
 160 342.353 159 333.045 159 321 c 0
 159 308.063 160 298.638 160 296 c 0
 160 276 l 1
 553.925 276 l 1
 544.7 254 l 1
 165.186 254 l 1
 174.041 227.633 l 0
 222.314 83.8827 354.965 26 449 26 c 0
 545.912 26 613.298 69.0132 648 98.6811 c 1
 648 73.7494 l 1
 591.839 30.9902 530.592 6 453 6 c 0
 348.349 6 204.065 58.753 148.109 239.903 c 0
 143.754 254 l 1
 53.6292 254 l 1
 62.5002 276 l 1
 139 276 l 1
 139 365 l 1
 49.8112 365 l 1
 58.4178 386 l 1
 144 386 l 1
 148.2 400.4 l 0
 201.071 581.671 359.377 634 445 634 c 0
 535.634 634 600.049 610.557 669.213 548.736 c 1
 665.186 539.121 662.981 534.074 660.338 528.089 c 1
 625.491 563.681 556.14 614 451 614 c 0
EndSplineSet
EndChar

StartChar: trademark
Encoding: 8482 8482 284
Width: 919
GlyphClass: 2
Flags: HW
HStem: 370 31<134.007 186 236 287.974 398.207 447.5 489.25 535.771 730.098 781.808 830.118 877.847> 675 36<81.2008 186 236 336.799> 682 23<400.046 440.89>
VStem: 42 26<620.051 656.362> 186 50<400.096 675> 456 32<401.858 605> 782 48<398.694 604.998>
LayerCount: 2
Fore
SplineSet
468.376 432.811 m 2
 468.827 414.236 468.148 404.45 474.987 392.961 c 1
 469.475 393.011 470.859 393 468 393 c 0
 465.492 393 460.656 392.959 460.254 392.954 c 1
 466.809 402.503 467.175 410.363 468.675 423.216 c 0
 468.376 432.811 l 2
657.232 429 m 1
 646.659 409.645 639.951 397.751 635.528 390.502 c 1
 621.526 415.757 593.194 485.598 510.544 612.188 c 1
 499.926 633.426 490 625 490 625 c 0
 481.636 625 l 1
 481.876 632.848 482 638.636 482 642 c 0
 482 657.872 469.987 672.362 455.075 685 c 1
 478.48 685 l 1
 568.949 534.546 l 1
 625.248 444.47 631.489 429 657.232 429 c 1
766.038 619.358 m 2
 799.748 681.774 l 1
 800.818 683.914 801.276 685 801.276 685 c 1
 818.102 685 l 1
 810.56 677.472 808 669.74 808 661 c 0
 808 636.966 808.005 613.639 810 426.895 c 1
 810 421 l 2
 810 411.934 810.482 402.484 816.657 392.912 c 1
 813.174 392.97 809.743 393 806 393 c 0
 804 393 l 0
 800.889 393 795.2 392.946 794.438 392.937 c 1
 803.295 405.429 802 414.27 802 423 c 0
 802 526 l 0
 802 585.097 811.649 625 780 625 c 0
 774.009 625 l 1
 769.005 621.707 l 0
 768.537 621.399 766.746 620.005 766.038 619.358 c 2
227.987 691 m 1
 214.236 680.107 216 665.978 216 664 c 0
 216 410 l 0
 216 406.599 216.061 400.656 220.447 392.972 c 1
 216.247 393.003 216.504 393 214 393 c 0
 212 393 l 0
 207.728 393 200.906 392.924 199.135 392.896 c 1
 206.133 402.08 206 410.381 206 416 c 0
 206 662 l 0
 206 664.602 207.804 680.483 192.781 691 c 1
 227.987 691 l 1
82.3499 691 m 1
 77.66 688.154 72.9714 682.839 71.7928 681.219 c 1
 72.8064 685.979 73.6145 689.757 73.8805 691 c 1
 82.3499 691 l 1
335.033 691 m 1
 345.484 691 l 1
 346.326 686.745 347.124 681.986 347.681 678.593 c 1
 344.417 683.44 341.127 687.469 335.033 691 c 1
EndSplineSet
EndChar

StartChar: minus
Encoding: 8722 8722 285
Width: 701
GlyphClass: 2
Flags: HW
HStem: 231 57<53 648.954>
LayerCount: 2
Fore
SplineSet
76 251 m 2
 74.8705 251 73.3257 251.068 73.0482 251.084 c 1
 72.9867 252.538 73 252.186 73 253 c 0
 73 266 l 0
 73 266.706 73.0571 267.788 73.0634 267.897 c 1
 74.4045 267.986 75.4271 268 77 268 c 0
 629 268 l 1
 629 255 l 0
 629 253.338 628.823 251.762 628.759 251.297 c 1
 626.898 251.057 624.924 251 622 251 c 0
 76 251 l 2
EndSplineSet
EndChar

StartChar: f_f
Encoding: 65537 -1 287
Width: 499
GlyphClass: 3
Flags: HW
HStem: 0 37<9.03824 67.2429 141.056 214.72 227.414 291.805 365.069 440.754> 360 51<20.6325 69.1224 141.007 293.875 365.055 485.331> 630 90<476.137 567.731> 643 62<206.359 301.352>
VStem: 71 70<38.2926 360 411 549.4> 294 70<38.1114 358.995 411 571.372> 332 32<608 615>
LayerCount: 2
Fore
SplineSet
325 637 m 2
 303.82 637 283.123 663 237 663 c 0
 134.997 663 120 508.664 120 441 c 0
 120 424 l 0
 120 412.278 128.55 391 151 391 c 0
 279 391 l 0
 288.941 391 314 397.214 314 423 c 0
 314 431 l 0
 314 550.864 352 588.401 352 613 c 0
 352 622.016 343.672 637 328 637 c 0
 325 637 l 2
62 391 m 2
 81.8011 391 89 411.849 89 420 c 0
 89 421 l 0
 89 478.617 106.508 620.891 227.794 671.581 c 1
 247.115 679.861 267.43 685 287 685 c 0
 346.307 685 326.809 647 368 647 c 0
 401.139 647 425.902 700 510 700 c 0
 553.019 700 559 678.105 559 670 c 0
 559 658.854 551.149 650 538 650 c 0
 519.603 650 495.878 675 453 675 c 0
 404.967 675 366.6 638.311 349.272 531.288 c 0
 344.991 505.603 344 479.529 344 454 c 0
 344 422 l 0
 344 408.243 355.759 391 374 391 c 0
 466.635 391 l 1
 466.062 386.35 464.826 381.536 463.782 379.002 c 1
 462 379 l 0
 374 379 l 0
 352.243 379 345 357.017 345 348 c 0
 345 58 l 0
 345 50.2962 345.613 40.3691 352.81 31.4732 c 0
 359.086 23.717 368.251 20.5453 374.279 19.0669 c 1
 360.779 19.6902 349.024 20 333 20 c 0
 309.775 20 286.815 18.815 272.065 17.7849 c 1
 275.723 18.3722 285.29 17.4575 296.085 25.1404 c 0
 314.859 38.5022 315 61.7451 315 100.92 c 0
 316 350 l 0
 316 363.443 303.872 380 285 380 c 0
 155 380 l 0
 146.333 380 121 374.505 121 349 c 0
 121 58 l 0
 121 53.0356 120.723 42.2794 128.517 31.9217 c 0
 133.132 25.7873 141.565 20.981 147.4 19.0418 c 1
 134.588 19.7027 124.864 20 112 20 c 0
 84.0369 20 59.0653 18.0377 42.8881 16.4278 c 1
 47.8167 17.271 52.4632 18.2062 57.9244 19.6156 c 1
 92.1591 28.1743 91 54.2596 91 166 c 0
 91 350 l 0
 91 371.985 69.2374 380 59 380 c 0
 40.0057 380 l 1
 40.0853 385.84 40.8897 389.662 41.2826 391 c 1
 62 391 l 2
EndSplineSet
Ligature2: "'liga' Standard Ligatures in Latin lookup 1 per glyph data 1" f f
EndChar

StartChar: f_i
Encoding: 65538 -1 288
Width: 475
GlyphClass: 3
Flags: HW
HStem: -6 43<18.1213 79.6467 153.04 229.992 251.092 325.612 397.141 452.929> 359 52<20.0811 82.5469 153.06 326.485> 402 20G<374.5 383.5> 656 65<235.164 360.933>
VStem: 82 71<38.4601 358.944 411.009 541.351> 327 67<40.9917 355.634>
LayerCount: 2
Fore
SplineSet
160.007 18.9769 m 1
 148.956 19.5828 136.692 20 124 20 c 0
 84.5329 20 51.5475 16.237 37.5847 14.6055 c 1
 45.2007 15.994 54.3435 17.0107 67.9229 19.2127 c 1
 98.4683 23.2855 99.349 54.358 99.9363 61.4051 c 0
 102.059 87.9367 104 155.746 104 350 c 0
 104 385.846 64.3613 379.349 40.2705 380 c 1
 39.3497 380 39.2741 380.016 39.0339 380.026 c 1
 39.3 385.439 40.0893 387.382 40.3273 388 c 1
 41.3273 388 39.4995 388 40.4995 388 c 1
 40.9988 388.025 l 0
 68.4591 389.398 102 385.957 102 417 c 0
 102 418.622 l 1
 105.083 494.472 126.281 565.459 162.151 614.204 c 0
 221.593 695.595 306.74 701 327 701 c 0
 366.658 701 382 683.324 382 669 c 0
 382 658.234 373.565 649 359 649 c 0
 358 649 l 0
 336.866 649 312.57 676 265 676 c 0
 150.939 676 135.599 503.555 133.076 470.762 c 1
 131.996 459.961 132 448.833 132 438 c 0
 132 429 l 0
 132 415.378 138.335 391 162 391 c 0
 289.555 391 l 1
 290.109 391.031 l 0
 343.456 393.995 375.5 401.819 379.073 402.001 c 1
 379.684 401.988 379.968 401.948 380.092 401.932 c 1
 380.519 400.728 380.924 398.505 381.005 395.281 c 1
 380.718 386.45 374 296.82 374 184 c 0
 374 163.783 374.964 61.1979 377.388 49.0777 c 0
 377.573 48.1546 l 1
 377.843 47.253 l 0
 384.703 24.3896 405.386 22.3606 431.2 17.3644 c 0
 431.684 17.2707 l 1
 432.172 17.201 l 0
 432.554 17.1464 433 17.07 433 17.07 c 1
 433 16.7441 432.921 15.7902 432.861 15.3497 c 1
 420.619 16.6723 396.534 20 356 20 c 0
 332.365 20 310.636 18.5481 294.654 17.1325 c 1
 299.486 17.7547 299.47 17.7524 302.902 18.21 c 1
 341.17 24.333 347 55.3429 347 74 c 0
 347 120 l 0
 347 251.967 348 318.631 348 341 c 0
 348 367.869 321.915 374.226 303.497 375.859 c 1
 290.156 378.022 277.818 379 264 379 c 0
 162 379 l 0
 152.411 379 133 370.012 133 351 c 0
 133 61 l 0
 133 55.097 132.401 42.8606 141.417 31.3707 c 0
 145.594 26.048 152.702 21.462 160.007 18.9769 c 1
206.252 14.9752 m 1
 207.445 14.8968 209.453 14.6653 209.573 14.6553 c 1
 209.28 14.6898 207.408 14.8416 206.252 14.9752 c 1
EndSplineSet
Ligature2: "'liga' Standard Ligatures in Latin lookup 1 per glyph data 1" f i
EndChar

StartChar: f_l
Encoding: 65539 -1 289
Width: 460
GlyphClass: 3
Flags: HW
HStem: -6 45<11.1216 72.8318 146 222.988 241.024 309.036 383.553 451.843> 359 52<17.1307 74.8379 146.023 258.046> 656 64<200.436 288.606>
VStem: 77 69<39.0996 358.944 411.009 577.529> 310 73<39.4059 634.46>
LayerCount: 2
Fore
SplineSet
152.717 19.0007 m 1
 141.69 19.6008 129.692 20 117 20 c 0
 78.1287 20 45.3837 16.3295 31.2826 14.6871 c 1
 38.6721 15.9865 48.102 17.0315 61.9742 19.2218 c 1
 92.3475 23.5609 92.3982 54.9481 92.9363 61.4051 c 0
 95.0588 87.9367 97 155.746 97 350 c 0
 97 384.807 58.9926 379.362 37.2943 380 c 1
 36.1307 380 36.0328 380.02 36.0328 380.02 c 1
 36.2957 385.328 36.8572 386.685 37.3157 388 c 1
 38.3157 388 36.5877 388 37.5877 388 c 1
 38.1744 388.035 l 0
 59.4386 389.285 95 385.084 95 417 c 2
 95 425 l 0
 95 459.658 99.5126 538.386 127.917 596.112 c 1
 150.775 641.828 205.403 700 286 700 c 0
 311.769 700 315.795 692 337 692 c 0
 348.854 692 359.103 697.365 363 699.376 c 1
 363 71 l 0
 363 58.1414 364.039 45.1634 373.252 34.2995 c 0
 386.108 19.1419 403.747 18.7923 420.103 16.175 c 1
 400.929 18.0536 375.63 20 345 20 c 0
 313.55 20 285.391 17.851 269.669 16.4176 c 1
 275.384 17.0998 278.618 17.4437 284.349 18.1384 c 1
 323.807 22.6911 330 55.006 330 76 c 0
 330 566 l 0
 330 591.216 326.895 651.274 264.79 670.839 c 1
 254.519 674.965 245.649 676 237 676 c 0
 128.493 676 125 503.771 125 434 c 0
 125 418.006 129.372 391 156 391 c 0
 237 391 l 0
 237.752 391 238.501 390.951 239 390.911 c 1
 239 390 l 0
 239 381.481 237.27 379 233 379 c 0
 155 379 l 0
 145.411 379 126 370.012 126 351 c 0
 126 59 l 0
 126 53.8886 125.595 43.4634 132.839 32.992 c 0
 137.055 26.8974 144.689 21.6854 152.717 19.0007 c 1
200.243 14.9105 m 1
 201.27 14.8378 202.501 14.6874 202.501 14.6874 c 1
 202.45 14.6936 200.948 14.8279 200.243 14.9105 c 1
EndSplineSet
Ligature2: "'liga' Standard Ligatures in Latin lookup 1 per glyph data 1" f l
EndChar

StartChar: f_f_i
Encoding: 65540 -1 290
Width: 712
GlyphClass: 3
Flags: HW
HStem: 0 37<8.03824 65.9997 140.056 213.72 236.405 300.805 374.075 449.754 490.232 563.602 636.141 691.923> 360 51<19.6325 68.1602 140.007 302.875 374.055 566.311> 402 20G<613.5 622.5> 644 61<208.918 307.215> 668 59<432.573 543.301>
VStem: 70 70<38.2926 360 411 552.357> 303 70<38.1114 358.995 411 572.813> 565 71<40.3151 74 77 355.724>
LayerCount: 2
Fore
SplineSet
243 664 m 0
 136.449 664 119 520.81 119 441 c 0
 119 424 l 0
 119 412.278 127.55 391 150 391 c 0
 288 391 l 0
 297.941 391 323 397.214 323 423 c 0
 323 431 l 0
 323 550.864 361 588.401 361 613 c 0
 361 622.016 352.672 637 337 637 c 0
 334 637 l 0
 313.401 637 291.707 664 243 664 c 0
535 707 m 0
 613.645 707 616 678.914 616 671 c 0
 616 658.938 606.374 650 592 650 c 0
 566.996 650 538.937 688 481 688 c 0
 422.629 688 353 636.883 353 454 c 0
 353 422 l 0
 353 408.243 364.759 391 383 391 c 0
 529.555 391 l 1
 530.109 391.031 l 0
 583.433 393.994 614.686 401.825 618.075 402 c 1
 618.681 401.989 618.969 401.948 619.092 401.932 c 1
 619.52 400.727 619.924 398.506 620.005 395.28 c 1
 619.718 386.451 613 296.819 613 184 c 0
 613 163.599 612.206 62.5638 616.859 47.1819 c 1
 624.28 23.586 643.742 22.3249 670.512 17.3054 c 1
 671.411 17.1556 671.854 17.0551 672 17.0219 c 1
 672 16.8013 671.918 15.7637 671.861 15.3497 c 1
 659.619 16.6723 635.534 20 595 20 c 0
 572.086 20 549.663 18.5802 535.063 17.3306 c 1
 539.959 17.953 538.584 17.7763 541.874 18.2054 c 1
 580.194 24.3368 586 55.3415 586 74 c 0
 586 77.2456 l 1
 585 80.2458 l 1
 585 120 l 0
 585 251.933 587 318.262 587 341 c 0
 587 367.865 560.797 374.237 542.635 375.846 c 1
 530.263 378.018 517.944 379 506 379 c 0
 383 379 l 0
 361.243 379 354 357.017 354 348 c 0
 354 58 l 0
 354 50.3579 354.746 40.8399 361.405 32.2107 c 0
 367.892 23.8043 379.065 20.1146 383.795 19.0419 c 1
 371.986 19.6082 358.078 20 342 20 c 0
 318.775 20 295.815 18.815 281.065 17.7849 c 1
 284.723 18.3722 294.29 17.4575 305.085 25.1404 c 0
 323.859 38.5022 324 61.7451 324 100.92 c 0
 325 350 l 0
 325 363.443 312.872 380 294 380 c 0
 154 380 l 0
 145.333 380 120 374.505 120 349 c 0
 120 58 l 0
 120 53.0356 119.723 42.2794 127.517 31.9217 c 0
 132.132 25.7873 140.565 20.981 146.4 19.0418 c 1
 133.588 19.7027 123.864 20 111 20 c 0
 83.0369 20 58.0653 18.0377 41.8881 16.4278 c 1
 45.9966 17.1307 53.1228 18.666 55.6007 19.28 c 1
 77.3787 24.414 84.164 39.8358 85.8456 52.4256 c 1
 90.1929 78.9576 90 109.818 90 203 c 0
 90 350 l 0
 90 371.985 68.2374 380 58 380 c 0
 39.0057 380 l 1
 39.0853 385.84 39.8897 389.662 40.2826 391 c 1
 61 391 l 0
 82.8036 391 88 413.578 88 420 c 0
 88 421 l 0
 88 496.679 111.536 585.364 172.011 636.81 c 1
 198.107 659.308 247.663 685 295 685 c 0
 296 685 l 0
 356.983 685 334.168 646 377 646 c 0
 378.422 646 l 1
 379.828 646.201 l 0
 414.412 651.141 424.896 707 535 707 c 0
EndSplineSet
Ligature2: "'liga' Standard Ligatures in Latin lookup 1 per glyph data 0" f f i
EndChar

StartChar: f_f_l
Encoding: 65541 -1 291
Width: 708
GlyphClass: 3
Flags: HW
HStem: 0 37<18.0354 75.6759 150.056 223.72 253.473 316.765 392.069 467.692 487.057 554.494 630.521 697.75> 360 51<9.66742 78.3494 150.007 320.875 392.055 511.948> 645 60<218.947 322.472> 703 20G<611.5 621.5>
VStem: 80 70<38.2926 360 411 552.477> 321 70<50.4385 358.995 411 574.152> 557 73<39.238 633.094>
LayerCount: 2
Fore
SplineSet
351 637 m 2
 330.934 637 306.539 665 253 665 c 0
 200.439 665 153.928 628.085 134.296 514.427 c 0
 129.991 489.675 129 464.58 129 441 c 0
 129 424 l 0
 129 412.278 137.55 391 160 391 c 0
 306 391 l 0
 314.511 391 341 396.092 341 423 c 0
 341 431 l 0
 341 550.875 378 588.83 378 613 c 0
 378 622.016 369.672 637 354 637 c 0
 351 637 l 2
395 647 m 2
 429.829 647 448.773 700 536 700 c 0
 558.416 700 562.226 692 583 692 c 0
 584 692 l 0
 595.854 692 606.103 697.365 610 699.376 c 1
 610 80.2235 l 1
 609.755 78.5726 609 76.0976 609 71 c 0
 609 58.1412 610.039 45.1637 619.252 34.2995 c 0
 632.018 19.2478 650.176 18.7237 665.683 16.2423 c 1
 648.03 17.9632 621.621 20 592 20 c 0
 560.003 20 530.643 17.7124 515.694 16.3524 c 1
 520.704 16.9435 525.1 17.4033 531.383 18.1425 c 0
 569.744 22.7458 577 54.2742 577 76 c 0
 577 567 l 0
 577 618.689 558.953 644.353 529.29 662.15 c 0
 528.399 662.684 l 1
 527.458 663.124 l 0
 510.461 671.056 494.651 675 480 675 c 0
 382.765 675 371 530.821 371 454 c 0
 371 422 l 0
 371 408.243 382.759 391 401 391 c 0
 493.467 391 l 1
 492.643 386.008 491.204 381.448 490.039 379.001 c 1
 489 379 l 0
 400 379 l 0
 377.666 379 372 355.73 372 348 c 0
 372 58 l 0
 372 50.2962 372.613 40.3691 379.81 31.4732 c 0
 386.198 23.578 396.836 20.084 401.441 19.03 c 1
 389.207 19.623 375.962 20 360 20 c 0
 336.777 20 313.189 18.8131 299.054 17.8421 c 1
 304.573 18.9032 327.08 20.4935 335.667 42.8204 c 0
 335.83 43.2446 l 1
 335.974 43.6754 l 0
 341.127 59.1351 342 88.7811 342 100.92 c 0
 343 350 l 0
 343 363.443 330.872 380 312 380 c 0
 163 380 l 0
 153.079 380 130 372.73 130 349 c 0
 130 58 l 0
 130 53.0356 129.723 42.2794 137.517 31.9217 c 0
 142.152 25.7615 150.478 21.0097 156.483 19.0142 c 1
 143.278 19.7062 133.866 20 121 20 c 0
 92.5005 20 67.5664 18.0366 51.5417 16.4263 c 1
 56.4642 17.254 61.1312 18.1673 66.8507 19.5972 c 0
 102.329 28.4666 100 55.0506 100 190 c 0
 100 350 l 0
 100 373.47 76.6995 380 68 380 c 0
 29.0057 380 l 1
 29.0853 385.84 29.8897 389.662 30.2826 391 c 1
 71 391 l 0
 109.316 391 97.228 437.552 100.851 469.553 c 1
 110.383 541.049 138.091 602.86 182.579 638.451 c 1
 221.988 670.694 280.495 685 312 685 c 0
 361.623 685 371.116 659.599 377.858 652.858 c 0
 383.716 647 l 1
 395 647 l 2
EndSplineSet
Ligature2: "'liga' Standard Ligatures in Latin lookup 1 per glyph data 0" f f l
EndChar

StartChar: circumflex.cap
Encoding: 65542 -1 292
Width: 271
GlyphClass: 2
Flags: HW
HStem: 804 79<102.094 167.759>
VStem: 14 243<742 755>
LayerCount: 2
Fore
SplineSet
54.7618 771.237 m 1
 67.5985 787.099 86.412 810.17 115.799 846.732 c 1
 122.177 855.236 130.602 863 138 863 c 0
 140.895 863 140.064 864.588 148.134 855.621 c 0
 148.803 854.877 148.098 855.663 147.449 856.424 c 1
 182.693 812.842 205.435 785.182 218.338 769.317 c 1
 172.614 807.948 162.606 824 136 824 c 0
 102.091 824 70.1773 783.293 47.015 764.554 c 0
 54.7618 771.237 l 1
EndSplineSet
EndChar

StartChar: acute.cap
Encoding: 65543 -1 293
Width: 282
GlyphClass: 2
Flags: HW
HStem: 730 169
VStem: 17 248
LayerCount: 2
Fore
SplineSet
225 879 m 0
 237.419 879 245 870.556 245 863 c 0
 245 848.831 232.16 842.44 215.237 833.979 c 1
 73.7328 766.784 42.2998 751.579 37.1319 749.988 c 1
 37.0142 750.035 37.019 750.037 37.0002 750.047 c 1
 37.0002 750.047 36.4956 752.294 47.4195 759.576 c 1
 185.967 859.973 l 1
 199.409 870.313 213.453 879 225 879 c 0
EndSplineSet
EndChar

StartChar: grave.cap
Encoding: 65544 -1 294
Width: 282
GlyphClass: 2
Flags: HW
HStem: 730 169
VStem: 17 248
LayerCount: 2
Fore
SplineSet
37 863 m 0
 37 872.172 43.5649 879 56 879 c 0
 68.8034 879 82.6715 870.251 96.0278 859.977 c 1
 213.119 775.03 239.113 755.882 243.829 751.611 c 1
 244.349 750.54 244.542 750.086 244.64 749.866 c 1
 237.128 752.345 205.159 767.892 66.7813 833.97 c 1
 53.3994 840.661 37 848.676 37 863 c 0
EndSplineSet
EndChar

StartChar: breve.cap
Encoding: 65545 -1 295
Width: 324
GlyphClass: 2
Flags: HW
HStem: 728 65<98.8173 225.357>
VStem: 16 293<834 848>
LayerCount: 2
Fore
SplineSet
162 773 m 0
 225.69 773 270.463 824.252 286.763 839.026 c 1
 270.397 811.338 220.012 748 164 748 c 0
 160 748 l 0
 104.408 748 54.8154 810.868 38.759 838.002 c 1
 57.9275 820.478 99.9729 773 162 773 c 0
EndSplineSet
EndChar

StartChar: longs_i
Encoding: 65546 -1 296
Width: 476
GlyphClass: 3
Flags: HW
HStem: -6 44<252.136 327.058 397.719 462.991> -6 45<18.0865 79.5371 152.472 229.856> 360 50<20.8714 82.6363> 421 20<383.5 390> 656 65<236.537 360.933>
VStem: 84 68<115.416 360> 328 67<39.1511 336.573>
LayerCount: 2
Fore
SplineSet
132 436 m 0
 132 419.275 133 428.093 133 362 c 0
 133 120 l 0
 133 103.751 132 90.1657 132 78 c 0
 132 57.881 130.299 39.2981 145.785 25.9391 c 0
 149.885 22.4015 154.762 20.3129 158.704 19.0478 c 1
 147.08 19.6613 136.44 20 124 20 c 0
 90.2749 20 60.5918 17.1669 44.8762 15.4387 c 1
 50.7936 16.4359 59.1225 17.6538 68.2218 19.2595 c 1
 113.918 26.1139 103.046 65.7618 104 348 c 0
 104 360.992 92.2243 378.384 73.6609 379.931 c 0
 72.8318 380 l 1
 40.0279 380 l 1
 40.2817 385.324 40.7439 386.557 41.1845 388.035 c 1
 76.5957 390.002 l 1
 118.921 391.599 99.4629 455.837 117.241 519.541 c 1
 161.334 672.466 273.496 701 327 701 c 0
 366.658 701 382 683.324 382 669 c 0
 382 658.653 372.725 649 359 649 c 0
 358 649 l 0
 336.866 649 312.57 676 265 676 c 0
 159.254 676 132 521.758 132 436 c 0
EndSplineSet
Refer: 203 305 S 1 0 0 1 234 0 2
Ligature2: "'liga' Standard Ligatures in Latin lookup 1 per glyph data 3" longs i
EndChar

StartChar: caron.cap
Encoding: 65547 -1 297
Width: 271
GlyphClass: 2
Flags: HW
HStem: 732 79<103.114 168.906>
VStem: 14 243<860 874>
LayerCount: 2
Fore
SplineSet
216.238 843.763 m 1
 203.402 827.901 184.588 804.83 155.201 768.268 c 1
 148.823 759.764 140.398 752 133 752 c 0
 130.105 752 130.936 750.412 122.866 759.379 c 0
 122.197 760.123 122.899 759.341 123.548 758.58 c 1
 88.6668 801.691 66.0364 829.18 52.9462 845.3 c 1
 97.0438 807.476 108.866 791 135 791 c 0
 168.909 791 200.823 831.707 223.985 850.446 c 0
 216.238 843.763 l 1
EndSplineSet
EndChar

StartChar: longs_longs
Encoding: 65548 -1 298
Width: 439
GlyphClass: 3
Flags: HW
HStem: -6 43<9.02019 67.0701 141.012 215.867 227.199 292.504 365 441.867> 360 51<20.0274 69.0488 245.027 294.027> 630 90<473.298 567.731> 643 62<205.947 301.638> 655 12<371 373>
VStem: 71 70<37.75 360 411 549.823> 244 121<360 411> 296 69<38.4201 360 411 581.069>
LayerCount: 2
Fore
SplineSet
314 421 m 0
 314 565.58 351 582.746 351 614 c 0
 351 628.079 335.51 637 327 637 c 0
 324 637 l 0
 306.376 637 282.584 663 237 663 c 0
 135.059 663 120 509.684 120 441 c 0
 120 424 l 0
 120 415.451 121 358.654 121 349 c 0
 121 59 l 0
 121 49.481 122.741 38.77 130.278 30.0529 c 0
 135.2 24.3597 142.237 20.8017 147.076 19.0586 c 1
 135.015 19.6807 124.652 20 112 20 c 0
 85.5944 20 62.2823 18.2848 45.7797 16.7132 c 1
 47.2023 16.937 47.7322 17.0209 49.3815 17.2869 c 1
 54.4155 18.2022 62.7166 18.2949 72.0063 25.4975 c 0
 95.5048 43.7165 91 77.103 91 169 c 0
 91 350 l 0
 91 373.47 67.6995 380 59 380 c 0
 40 380 l 0
 39.5465 380 39.0483 380.037 39.0483 380.037 c 1
 38.9963 380.634 39.0044 380.705 38.9984 380.917 c 1
 39.026 382.287 40.2758 388.727 41.4514 391 c 1
 62 391 l 0
 85.7058 391 89 417.262 89 421 c 0
 89 588.314 192.166 685 287 685 c 0
 345.666 685 325.749 647 369 647 c 0
 401.231 647 427.857 700 510 700 c 0
 553.019 700 559 678.105 559 670 c 0
 559 658.935 553.837 650 539 650 c 0
 518.188 650 496.187 675 453 675 c 0
 344.088 675 344 494.516 344 454 c 0
 344 422 l 0
 344 396.459 345 372.456 345 348 c 0
 345 58 l 0
 345 50.8925 345.263 41.4378 352.01 32.4692 c 0
 358.497 23.8463 368.732 20.4918 374.882 19.064 c 1
 361.349 19.694 349.577 20 333 20 c 0
 302.805 20 278.619 17.6072 263.625 16.2403 c 1
 265.96 16.6543 267.475 16.9281 269.742 17.3532 c 0
 274.862 18.3285 285.666 16.8553 297.684 26.2707 c 0
 315.667 40.3586 315 62.9717 315 100.948 c 1
 316.001 299.828 316 324.987 316 350 c 0
 316 373.47 292.699 380 284 380 c 0
 265 380 l 0
 264.546 380 264.048 380.037 264.048 380.037 c 1
 263.996 380.634 264.004 380.705 263.998 380.916 c 1
 264.026 382.288 265.276 388.727 266.451 391 c 1
 287 391 l 0
 310.706 391 314 417.262 314 421 c 0
EndSplineSet
Ligature2: "'liga' Standard Ligatures in Latin lookup 1 per glyph data 3" longs longs
EndChar

